<svg width="376" height="693" viewBox="0 0 376 693" fill="none" xmlns="http://www.w3.org/2000/svg">
<path d="M113.699 654.251C113.741 654.259 113.903 654.298 113.699 654.251V654.251Z" fill="#B6B4CA"/>
<path d="M325.201 543.571C322.747 535.618 319.255 527.862 316.51 519.965C313.745 512.009 310.536 504.055 305.163 496.954C299.937 490.047 293.596 486.203 283.55 484.982C272.856 483.683 261.31 483.404 250.689 485.178C254.716 480.621 258.686 475.966 261.474 470.825C264.407 465.417 265.446 459.619 266.207 453.794C267.692 442.435 267.449 430.81 261.474 420.205C258.591 415.09 254.222 410.594 250.201 406.033C245.979 401.244 242.573 396.205 238.801 391.203C237.085 388.927 235.161 386.812 233.089 384.74C231.47 383.119 229.987 380.756 227.664 379.722C223.786 377.998 217.409 380.453 213.882 381.749C199.54 387.016 187.4 396.475 177.49 406.144C176.294 398.974 166.572 393.315 159.555 389.561C156.422 387.885 152.555 386.171 149.377 388.674C146.422 391.002 145.373 395.282 144.182 398.351C141.27 405.85 137.511 413.297 131.884 419.769C125.343 427.295 117.935 434.335 110.918 441.572C107.284 435.35 100.835 428.152 93.8837 424.084C86.7547 419.912 77.8416 417.883 69.5565 415.714C60.2156 413.269 50.6555 411.474 41.8356 407.896C33.661 404.579 25.859 400.305 16.7458 398.81C7.94659 397.368 -0.626587 397.106 -7.61074 402.206C-14.2274 407.036 -18.2578 413.766 -22.2916 420.049C-31.8258 434.899 -40.7113 450.339 -48.2147 465.924C-55.456 480.964 -59.0119 497.657 -55.28 513.653C-53.6495 520.639 -49.7002 527.479 -42.9904 532.245C-41.3496 533.411 -39.6122 534.503 -37.8093 535.504C-36.8707 536.024 -34.1964 536.884 -33.7789 537.803C-32.8679 539.808 -36.9104 545.607 -37.8058 547.733C-44.067 562.603 -52.1778 576.729 -57.3021 591.92C-59.8642 599.515 -62.4177 607.031 -65.2093 614.571C-66.7086 618.618 -68.3977 625.716 -60.5353 624.504C-55.3335 623.701 -50.575 620.837 -46.2203 618.56C-37.0846 613.78 -27.8886 609.064 -19.3292 603.626C-3.26118 593.415 14.8807 582.329 36.7942 583.975C31.3283 586.426 27.5222 591.249 22.6671 594.405C17.0926 598.028 11.6267 601.284 5.27405 603.993C-7.80225 609.568 -21.5152 614.331 -33.5753 621.288C-56.536 634.532 -72.6213 658.124 -66.1599 680.934C-63.1078 691.71 -59.1706 703.153 -49.9504 711.649C-44.8762 716.325 -40.4904 718.149 -32.8506 718.276C-30.6163 718.314 -27.9231 718.146 -25.8906 719.039C-23.432 720.119 -23.0973 722.356 -21.6774 724.116C-13.6891 734.03 3.75576 732.647 16.4749 731.992C20.2361 731.798 23.9939 731.545 27.7396 731.213C30.9505 730.928 35.5209 729.641 38.5074 730.598C41.0764 731.422 43.8439 733.714 45.985 735.109C48.7645 736.92 51.4129 738.858 53.9267 740.902C59.3702 745.329 64.0096 750.439 70.0948 754.341C76.0421 758.155 83.0952 760.613 90.5349 761.809C98.7043 763.121 107.352 764.484 115.702 764.014C124.187 763.535 132.328 761.751 140.875 761.729C145.173 761.686 152.687 764.017 158.151 764.026C164.669 764.039 169.634 758.62 172.913 754.72C177.233 749.581 179.961 743.724 182.435 737.892C183.755 734.78 184.881 731.643 186.013 728.485C187.071 725.536 188.841 722.483 188.611 719.356C201.539 726.446 215.249 734.28 231.255 735.731C246.872 737.146 262.635 730.857 276.112 725.221C279.809 723.675 282.72 723.431 286.735 722.877C289.973 722.43 294.064 721.758 296.208 719.601C300.794 714.989 299.978 706.933 299.93 701.423C299.816 688.409 296.058 674.608 290.213 662.492C283.541 648.659 270.001 636.027 256.284 626.299C267.095 627.24 277.085 625.676 285.12 619.547C293.945 612.814 300.693 605.848 305.841 596.949C308.301 592.697 310.113 588.17 312.796 584.009C315.298 580.131 318.127 576.507 320.413 572.522C322.982 568.044 325.487 563.49 326.638 558.621C327.887 553.347 326.781 548.691 325.201 543.571ZM181.959 406.692C190.956 398.1 201.498 390.077 214.19 385.129C216.865 384.085 220.454 382.469 223.503 382.289C226.748 382.098 227.837 384.51 229.667 386.314C234.567 391.14 237.921 396.539 242.017 401.794C245.993 406.892 250.582 411.644 254.666 416.681C258.905 421.909 261.013 427.536 262.225 433.665C264.507 445.22 263.463 459.5 257.525 470.307C255.927 473.215 253.865 475.902 251.64 478.524C249.564 480.968 247.428 484.333 244.436 486.146C241.807 487.741 237.82 488.313 234.788 489.415C230.618 490.93 226.445 492.443 222.559 494.402C218.682 487.287 214.721 476.859 202.832 477.758C192.516 478.539 183.294 483.9 176.588 489.918C169.44 496.333 165.088 504.232 158.427 510.907C154.89 514.45 151.025 517.549 146.525 520.307C144.434 521.588 142.248 522.733 140.019 523.854C138.509 524.613 135.783 526.657 134.074 526.904C133.647 524.798 134.936 521.975 132.849 520.265C130.673 518.485 126.66 519.52 124.046 519.992C123.944 516.913 124.436 510.725 119.779 509.452C116.08 508.44 114.512 511.661 113.297 513.776C112.845 514.564 112.383 515.333 111.874 516.099C111.793 516.222 110.789 517.635 111.351 516.87C110.512 518.013 107.207 525.024 105.523 525.136C103.389 525.28 102.393 520.171 102.038 519.233C99.5394 512.626 98.8803 506.66 100.316 499.822C102.987 487.1 106.525 473.873 115.549 462.978C124.745 451.877 139.32 446.816 151.368 438.247C163.808 429.399 171.315 416.853 181.959 406.692ZM147.973 592.521C145.913 592.161 142.5 595.999 140.682 596.781C141.07 595.498 142.238 592.089 139.065 592.369C136.867 592.562 136.977 596.064 136.33 597.381C134.298 601.517 129.712 605.965 123.994 606.926C125.023 606.178 127.136 604.918 126.596 603.6C125.778 601.605 123.565 603.097 122.436 603.733C118.963 605.686 115.959 608.212 111.572 608.85C109.339 609.175 107.169 609.102 105.081 608.37C102.678 607.527 102.21 607.242 99.46 607.391C94.2702 607.675 88.9372 606.201 85.3761 603.031C87.6035 602.665 91.3199 600.75 87.255 599.736C85.8126 599.378 83.6663 600.15 82.1791 600.213C79.8844 600.307 77.5845 600.141 75.6539 599.022C77.7933 598.448 90.8333 592.877 86.6597 590.223C84.7981 589.04 82.0152 592.269 80.8126 593.043C78.0969 594.789 75.1742 596.288 71.62 596.341C69.158 596.378 65.1569 595.822 63.0796 594.618C61.984 593.982 59.8187 592.085 59.3029 591.135C57.4913 587.799 58.906 581.537 60.7763 578.409C61.601 577.03 64.9654 575.619 64.6583 574.234C64.3339 572.77 60.7763 572.908 59.5789 571.715C58.5127 570.652 56.6993 567.376 56.9012 565.875C57.1583 563.958 57.7104 564.729 59.7998 564.632C61.1386 564.57 63.5782 564.223 64.327 563.115C65.364 561.582 62.6397 559.623 62.4982 557.861C62.3032 555.445 63.5524 553.016 64.2373 550.707C65.1259 547.712 64.8239 544.886 65.1086 541.846C67.5224 543.767 70.4537 545.976 73.9251 546.53C75.4848 546.779 76.57 546.558 77.9986 546.221C77.9865 546.224 80.4054 545.366 80.2174 545.517C82.1239 543.984 81.5355 539.886 82.343 537.837C83.3661 535.241 84.8223 532.605 87.1791 530.605C87.8019 533.055 89.0787 537.152 93.2333 536.117C95.3779 535.582 96.8427 533.487 98.0573 532.118C98.8044 531.275 100.79 527.935 102.183 527.745C104.187 527.471 104.988 529.03 107.491 527.806C109.672 526.739 110.602 524.508 111.71 522.776C112.847 520.999 114.125 519.288 115.307 517.531C116.182 516.23 116.972 513.341 118.465 512.439C120.299 514.254 120.214 517.671 120.238 519.872C120.264 522.326 119.921 523.791 123.513 523.324C125.155 523.111 128.936 521.896 130.074 522.837C131.575 524.08 129.072 527.546 131.26 529.196C132.861 530.403 135.514 529.712 137.438 530.429C140.259 531.481 141.42 533.937 142.04 536.237C142.395 537.558 141.796 540.762 143.982 541.213C145.704 541.569 145.654 540.647 146.399 539.968C146.244 540.109 147.272 538.235 146.468 538.863C148.729 537.07 151.172 534.438 154.531 534.02C155.123 537.115 155.326 540.337 154.698 543.439C154.101 546.385 152.347 548.183 150.79 550.73C149.488 552.86 150.576 554.944 153.541 553.206C156.437 551.507 157.914 546.886 158.359 544.223C166.601 546.225 158.178 555.512 156.85 559.39C156.023 561.804 157.657 562.78 160.733 562.26C162.54 561.955 163.891 561.259 165.828 561.103C167.813 560.942 169.826 560.891 171.819 560.835C169.809 567.186 164.876 573.195 158.235 577.066C156.52 578.066 149.64 579.462 149.503 581.291C149.239 584.836 156.658 581.508 157.964 580.914C160.131 579.929 164.081 578.55 166.624 579.768C168.494 580.662 165.972 583.683 164.781 585.121C162.849 587.456 159.684 589.506 156.351 590.421C154.22 591 147.222 589.11 147.973 592.521ZM124.077 677.919C106.489 668.57 90.9852 657.473 71.9806 649.805C62.4982 645.979 53.4419 642.032 45.0275 636.822C40.8453 634.232 36.7976 631.62 33.0398 628.634C29.4235 625.76 25.1464 623.157 21.9408 619.984C32.4084 619.17 43.416 620.045 53.0951 623.493C62.6517 626.897 69.6531 632.787 77.0548 638.489C93.2643 650.98 113.992 654.827 135.592 657.155C140.666 657.702 145.727 658.08 150.837 658.298C153.503 658.413 156.168 658.524 158.824 658.748C160.306 658.873 164.395 659.954 165.587 659.049C169.552 656.038 159.357 655.637 157.918 655.537C152.15 655.141 146.377 655.062 140.621 654.517C120.297 652.594 99.096 649.932 83.0831 638.776C74.5031 632.798 67.7484 626.015 57.4084 621.785C46.4612 617.307 33.8093 615.938 21.6526 616.882C28.8128 605.593 44.1924 600.488 55.8643 592.921C56.7822 595.318 60.5882 597.127 63.3695 598.069C65.5417 598.804 68.2108 598.669 70.276 599.426C72.2135 600.135 73.4782 601.672 75.4468 602.425C77.2153 603.1 79.4875 602.91 81.0576 603.73C82.6259 604.548 83.6974 606.263 85.2674 607.206C89.0752 609.491 94.8844 611.21 99.6791 610.622C98.4041 616.538 97.5828 624.628 99.4824 630.176C99.9138 631.459 101.611 632.954 103.106 631.459C104.27 630.295 102.849 627.214 102.724 625.823C102.293 620.957 102.403 616.071 103.464 611.26C107.103 612.605 111.306 612.381 114.967 611.247C115.954 610.941 117.871 609.824 118.91 609.711C119.966 609.596 120.866 610.074 121.895 610.147C125.756 610.425 129.584 608.522 132.524 606.706C134.275 605.625 135.794 604.434 137.036 602.964C137.773 602.094 138.163 600.769 139.586 600.488C140.221 612.834 149.262 621.097 160.796 628.461C169.802 634.211 186.472 638.473 187.788 649.247C188.468 654.814 183.382 658.571 178.649 661.991C173.461 665.741 167.769 669.049 161.677 671.79C155.585 674.532 149.077 676.604 142.555 678.582C135.925 680.595 130.19 681.168 124.077 677.919ZM129.103 680.121C128.979 680.094 128.855 680.067 128.73 680.04C129.11 680.115 129.234 680.141 129.103 680.121ZM5.03251 545.762C4.85135 544.808 4.62188 543.838 4.48212 542.878C4.45797 542.715 4.33202 541.443 4.33374 542.361C4.35617 534.684 4.70815 526.974 4.39758 519.303C4.10255 512.028 2.48074 504.319 5.27578 497.462C5.7606 496.273 6.91829 495.256 7.41174 494.014C8.19676 492.042 8.54701 489.857 8.91451 487.817C9.74439 483.205 10.0567 478.545 10.4224 473.898C10.7554 469.669 10.7692 465.439 11.0263 461.208C11.1816 458.658 10.8831 455.523 12.1029 453.128C13.6523 450.089 17.1806 451.235 20.5105 451.711C25.9056 452.485 31.3559 452.962 36.7717 453.629C48.1089 455.027 59.0941 455.993 70.5797 456.204C79.8292 456.373 89.579 456.158 93.373 464.193C97.0877 472.057 93.9941 479.638 91.1836 487.25C89.5721 491.614 88.3627 496.597 87.9555 501.147C87.5224 506.008 89.6308 510.255 92.362 514.492C93.6784 516.535 95.0708 518.546 96.3958 520.586C97.0169 521.543 99.2978 523.962 99.2788 525.068C99.2478 526.819 94.0028 532.009 92.0928 533.076C90.6625 531.416 91.8064 527.906 89.3685 526.945C87.1118 526.055 84.7929 528.04 83.4679 529.279C79.4392 533.043 77.1204 538.621 77.2877 543.555C75.5538 543.252 74.0614 540.251 73.1469 539.143C71.5061 537.155 69.993 535.196 68.825 532.994C67.2998 530.122 64.9171 524.728 64.2839 522.881C61.4198 514.41 57.0686 505.416 51.2542 497.956C49.5927 495.825 47.0081 491.182 44.3287 489.719C43.2228 489.116 41.4284 488.595 40.721 489.96C40.1258 491.109 42.0616 492.665 42.7776 493.476C49.0113 500.532 53.7663 508.01 57.3877 516.169C61.2456 524.861 63.9613 533.787 70.4951 541.533C68.618 540.203 65.7849 537.226 62.8778 538.614C60.6918 539.658 61.1472 542.253 61.1041 543.953C60.9713 549.25 56.3698 556.538 59.5927 561.476C57.2463 561.402 54.9309 562.348 52.8777 561.991C50.6676 561.608 48.4678 560.463 46.1645 560.033C40.5088 558.977 34.6254 558.682 28.8559 558.268C23.6368 557.894 18.3262 557.565 13.6298 555.53C8.67468 553.383 6.73196 550.865 5.27578 546.733C5.30683 546.767 5.06356 545.929 5.03251 545.762ZM99.422 525.637C99.3755 525.497 99.4238 525.636 99.422 525.637V525.637ZM134.231 527.194C133.958 526.971 134.203 527.174 134.231 527.194V527.194ZM160.73 592.021C165.297 590.007 168.934 586.606 170.642 582.641C172.559 578.192 169.776 576.852 164.728 576.572C169.622 572.6 174.258 567.374 175.513 561.744C176.803 555.948 165.878 557.329 161.52 558.547C163.548 554.778 166.455 550.295 165.533 546.044C165.178 544.4 164.234 543.148 162.469 542.249C161.184 541.593 159.512 541.561 158.772 540.656C157.961 539.664 158.706 536.33 158.523 534.979C158.321 533.491 158.309 531.788 156.391 531.022C152.683 529.542 148.021 533.348 145.673 535.145C144.766 532.216 143.121 529.224 139.669 527.704C146.72 524.032 153.644 520.171 159.224 515.07C164.833 509.943 168.553 503.84 173.38 498.268C177.635 493.355 182.776 488.524 189.041 485.202C192.933 483.139 205.282 477.535 207.635 483.068C210.118 488.904 207.24 495.868 205.006 501.375C202.283 508.082 198.858 514.589 196.127 521.294C190.537 535.023 188.227 550.447 192.566 564.616C194.869 572.136 197.928 579.627 202.003 586.641C204.034 590.137 206.146 593.567 208.627 596.875C210.692 599.631 212.723 603.088 216.724 604.308C207.497 605.571 196.61 599.825 188.127 597.522C178.808 594.992 169.074 593.721 159.362 592.608C159.819 592.414 160.275 592.218 160.73 592.021ZM167.454 579.808C167.297 579.775 167.454 579.81 167.454 579.808V579.808ZM167.511 579.851C167.517 579.851 167.576 580.047 167.511 579.851V579.851ZM167.599 579.862C167.605 579.864 167.693 579.995 167.599 579.862V579.862ZM212.4 595.922C199.693 579.201 192.223 559.159 195 539.558C196.441 529.387 200.965 519.864 205.254 510.294C209.148 501.605 213.116 493.29 211.705 483.94C216.039 488.551 218.727 494.694 221.324 500.039C224.017 505.583 226.363 511.178 229.274 516.662C232.359 522.472 235.435 528.185 238.089 534.128C240.385 539.271 243.51 544.39 244.947 549.75C246.652 556.108 244.78 561.687 242.021 567.626C239.393 573.283 236.481 578.975 233.47 584.509C230.861 589.305 228.325 595.92 223.955 599.867C219.034 604.314 214.985 599.321 212.4 595.922ZM112.435 445.144C123.432 432.716 136.789 422.077 144.143 407.776C145.871 404.413 147.148 400.924 148.663 397.499C149.27 396.125 150.43 391.311 152.457 390.583C154.762 389.753 159.219 393.206 160.911 394.209C164.372 396.262 167.63 398.54 170.345 401.23C172.395 403.26 175.023 406.791 173.937 409.601C173.563 410.57 172.293 411.308 171.532 412.083C169.905 413.739 168.456 415.534 166.977 417.274C161.81 423.36 157.128 429.762 150.345 434.811C143.622 439.818 135.564 443.357 128.309 447.816C121.46 452.024 115.616 456.904 111.032 462.79C105.4 470.018 102.359 477.969 99.9983 486.221C97.4638 495.081 93.8268 504.611 96.2699 513.737C92.2585 507.845 91.2267 502.964 92.7864 496.389C94.234 490.285 97.0187 484.437 98.304 478.338C98.8941 475.54 99.1891 472.583 98.8199 469.745C98.3679 466.274 99.0925 465.002 101.021 461.943C104.612 456.247 107.809 450.375 112.435 445.144ZM-33.3993 534.137C-44.7692 527.844 -50.7803 519.754 -52.3555 508.677C-53.9912 497.173 -52.0933 484.544 -47.4763 473.593C-42.7247 462.326 -36.5946 451.398 -30.4024 440.603C-25.3817 431.849 -19.7002 421.955 -13.9358 414.133C-11.0062 410.159 -7.46064 405.288 -2.12418 402.68C3.52283 399.92 11.6216 401.039 17.712 402.222C25.4553 403.728 32.2807 407.362 39.2459 410.304C46.042 413.175 53.2142 414.905 60.5486 416.643C68.2332 418.461 76.1628 420.383 83.4869 423.01C90.5349 425.537 95.3589 429.042 100.016 433.901C102.152 436.128 104.46 438.305 106.172 440.767C107.733 443.014 108.653 443.919 106.829 446.148C102.704 451.19 99.8413 456.83 96.5304 462.222C92.7726 455.043 85 453.701 76.1214 453.264C66.6976 452.8 57.2911 453.167 47.9329 451.952C38.2227 450.689 28.5488 449.273 18.7731 448.329C15.7641 448.039 12.6568 447.576 10.3224 449.522C7.48592 451.888 7.52389 456.18 7.29442 459.224C6.73886 466.6 6.42485 473.971 5.76405 481.348C5.18261 487.845 4.351 495.502 -0.944054 500.739C-6.41163 506.148 -12.4779 511.143 -18.0007 516.506C-23.7564 522.095 -27.9507 528.581 -31.7326 535.131C-32.2727 534.788 -32.8299 534.456 -33.3993 534.137ZM-62.4436 621.845C-62.447 621.838 -62.3159 621.903 -62.4436 621.845V621.845ZM-45.8786 614.69C-47.9939 615.811 -60.858 623.273 -62.742 621.162C-63.4995 620.312 -61.7621 616.223 -61.4877 615.411C-60.6354 612.878 -59.3552 610.46 -58.3942 607.954C-53.7203 595.772 -50.9028 583.403 -45.1057 571.448C-42.2744 565.61 -39.0826 559.911 -36.4756 553.999C-33.6702 547.639 -31.0408 541.237 -27.4987 535.106C-24.293 529.56 -20.568 524.081 -15.8043 519.289C-10.8147 514.27 -5.20045 509.647 -0.129692 504.67C-0.138321 509.376 0.367203 514.04 0.382736 518.736C0.382736 517.919 0.500053 521.832 0.506958 522.333C0.546638 524.82 0.522484 527.313 0.515579 529.801C0.506958 532.791 0.36203 535.78 0.386185 538.77C0.399986 540.613 1.07977 542.772 0.764023 544.581C0.46209 546.313 -1.13557 548.509 -1.59795 550.404C-2.19665 552.852 -2.74184 555.292 -3.49754 557.713C-5.00031 562.528 -6.6618 567.618 -10.3764 571.679C-13.6442 575.25 -17.9179 577.347 -22.9352 579.013C-29.5415 581.205 -27.6971 584.801 -28.577 589.751C-30.2212 598.992 -35.8199 609.355 -45.8786 614.69ZM35.4415 580.793C7.74645 579.278 -11.6981 596.01 -32.528 607.502C-28.5873 602.57 -26.4652 597.059 -25.0659 591.348C-24.5915 589.413 -24.4086 587.583 -24.3879 585.614C-24.3793 584.715 -24.7537 583.569 -24.0635 582.775C-22.8989 581.436 -18.3768 581.049 -16.6066 580.247C-3.2767 574.209 -0.152122 561.363 2.38066 550.266C5.312 557.134 15.7175 560.46 23.9887 561.104C29.3373 561.519 34.6617 561.726 39.9912 562.341C43.2831 562.722 49.6824 563.01 52.3325 564.956C54.258 566.369 54.3684 570.314 55.6434 572.316C56.1334 573.085 58.3971 574.819 58.4764 575.512C58.5558 576.196 56.9909 577.621 56.6597 578.307C54.8463 582.066 56.4285 582.515 51.2162 582.173C45.9419 581.827 40.7193 581.089 35.4415 580.793ZM35.5381 727.272C27.9536 728.132 20.3517 728.782 12.6964 729.043C5.62601 729.283 -2.52791 729.862 -9.34988 727.992C-12.0742 727.245 -14.6121 726.02 -16.5997 724.34C-18.7875 722.491 -19.4034 719.983 -21.422 718.112C-25.0004 714.795 -30.9355 715.397 -35.8286 715.112C-49.1637 714.334 -55.4301 699.223 -58.6599 690.724C-63.1061 679.024 -66.3911 667.889 -61.1668 655.93C-56.5619 645.392 -47.5677 634.413 -36.8707 627.168C-25.0349 619.152 -10.5093 614.107 3.10186 608.399C9.4114 605.752 15.5208 603.1 21.0436 599.46C26.2006 596.062 30.7244 592.396 35.5278 588.714C37.6171 587.113 40.7021 585.421 43.5816 584.955C45.8798 584.583 48.5903 585.172 50.9833 585.311C54.2459 585.5 54.8205 584.796 55.0378 587.224C55.081 587.705 55.3605 588.727 55.1759 589.179C54.6565 590.449 54.9878 589.257 54.0441 590.09C52.7863 591.203 50.8004 592.16 49.3063 593.038C42.8328 596.846 35.5951 599.915 29.6737 604.288C25.35 607.48 16.1247 613.967 17.3065 619.301C17.9414 622.164 21.5957 624.173 24.1112 625.992C27.1496 628.19 29.9567 630.576 32.9208 632.836C38.6558 637.209 45.3259 641.471 52.1203 644.731C38.8283 655.45 25.6088 666.246 12.3979 677.026C11.2661 677.951 5.16708 681.936 7.11325 683.629C9.52699 685.726 14.7789 679.494 16.3438 678.253C22.6982 673.21 29.0681 668.204 35.269 663.035C41.3111 657.998 47.2963 652.906 53.4868 647.985C55.3605 646.496 55.0258 646.548 57.3256 647.088C59.2649 647.543 61.3888 648.966 63.19 649.739C66.9979 651.372 70.8781 652.895 74.7222 654.471C90.5642 660.969 103.216 670.692 118.028 678.397C112.031 683.698 109.377 691.639 104.329 697.575C99.2564 703.538 93.6128 708.1 86.2112 712.254C71.513 720.502 53.1607 725.282 35.5381 727.272ZM184.215 722.419C180.078 734.336 175.894 749.156 164.9 757.744C163.12 759.139 161.346 760.732 158.696 760.919C155.128 761.171 150.53 759.375 146.945 759.009C139.609 758.258 132.778 758.856 125.537 759.796C108.946 761.949 90.9627 760.746 76.1577 753.918C75.7746 753.722 74.1235 752.918 74.3961 753.075C72.8191 752.168 71.3837 751.12 69.9827 750.047C67.7294 748.32 65.6279 746.462 63.5041 744.634C57.0789 739.108 50.7694 733.801 43.0433 729.412C58.8025 726.669 74.4944 722.416 87.8916 715.06C102.126 707.244 110.657 696.423 118.049 684.111C119.46 681.758 120.3 679.362 123.544 681.33C126.234 682.962 125.487 685.279 125.77 687.988C126.489 694.893 127.297 701.806 128.623 708.656C129.973 715.619 132.36 722.271 135.007 728.977C135.637 730.572 136.339 735.498 138.654 736.11C143.139 737.296 140.128 731.625 139.655 730.518C133.128 715.242 130.342 699.366 129.215 683.283C130.67 683.486 133.27 683.027 134.534 683.457C135.563 683.807 134.878 683.547 135.711 684.093C137.966 685.568 139.401 688.702 141.358 690.512C145.935 694.751 151.817 698.048 157.312 701.459C163.047 705.019 168.874 708.487 174.826 711.811C177.467 713.286 180.44 714.576 182.93 716.19C185.352 717.76 185.037 719.943 184.215 722.419ZM257.454 631.369C272.207 642.956 283.877 655.896 289.973 671.807C292.747 679.047 294.761 686.86 295.553 694.413C295.982 698.503 296.069 702.583 295.86 706.682C295.684 710.155 296.122 715.144 292.88 717.854C290.656 719.715 287.026 719.609 284.081 719.908C279.568 720.365 275.827 721.917 271.79 723.528C263.258 726.933 254.057 730.691 244.659 732.21C225.075 735.374 207.597 726.031 192.219 717.591C182.621 712.323 173.025 707.049 163.706 701.464C158.746 698.491 153.786 695.464 149.053 692.261C144.964 689.492 142.502 686.163 139.253 682.846C157.821 677.968 209.745 659.458 185.242 638.683C180.178 634.391 173.703 631.733 167.609 628.557C161.574 625.41 155.908 621.558 151.292 617.12C146.81 612.811 144.269 607.694 143.572 602.091C143.311 600.001 143.285 599.438 145.171 598.197C146.7 597.192 149.845 595.682 149.438 593.765C159.814 596.644 171.075 596.792 181.636 599.204C191.734 601.51 201.691 606.508 212.155 607.489C213.384 607.604 215.328 607.253 216.389 607.658C217.768 608.186 219.072 609.678 220.411 610.404C224.341 612.54 228.615 614.335 232.639 616.363C241.331 620.741 250.095 625.59 257.454 631.369ZM323.099 556.839C321.6 567.269 313.03 576.158 307.696 585.401C302.04 595.201 297.882 604.602 288.405 612.602C284.129 616.211 279.676 620.232 273.714 622.008C267.868 623.749 261.188 623.657 255.094 623.064C248.593 622.433 243.782 618.38 238.392 615.613C232.481 612.579 226.136 609.991 220.594 606.516C229.267 602.851 232.984 592.971 236.728 586.281C240.989 578.662 245.692 570.462 248.387 562.387C251.219 553.902 247.994 546.436 244.426 538.536C241.008 530.975 237.431 523.42 233.323 516.077C231.255 512.378 229.167 508.71 227.537 504.868C226.871 503.299 223.52 498.347 224.481 497.011C225.834 495.13 232.261 493.739 234.548 492.923C239.441 491.179 244.236 489.556 249.474 488.569C260.108 486.564 271.553 486.809 282.323 487.989C293.419 489.203 298.917 493.959 304.071 501.658C309.676 510.029 312.483 519.507 315.698 528.598C318.905 537.674 324.488 547.2 323.099 556.839Z" fill="#B6B4CA"/>
<path d="M212.183 489.525C212.183 489.557 212.187 489.586 212.187 489.618C212.189 489.322 212.185 489.361 212.183 489.525Z" fill="#B6B4CA"/>
<path d="M109.331 438.953C109.337 438.964 109.483 439.172 109.331 438.953V438.953Z" fill="#B6B4CA"/>
<path d="M105.252 584.581C110.01 586.196 118.18 578.28 120.64 575.794C121.592 574.832 131.385 562.83 126.058 562.48C123.879 562.337 123.387 565.337 122.807 566.556C121.325 569.673 119.134 572.521 116.411 575.037C114.186 577.094 111.532 579.306 108.528 580.615C107.459 581.085 101.03 583.139 105.252 584.581Z" fill="#B6B4CA"/>
<path d="M137.169 569.912C137.116 568.497 135.768 567.921 134.22 568.498C133.033 568.94 132.483 570.32 131.798 571.13C130.716 572.409 129.498 573.509 128.021 574.513C126.653 575.444 124.714 575.955 123.439 576.848C122.348 577.612 120.91 579.814 123.784 579.954C127.309 580.124 131.632 576.201 133.675 574.244C134.595 573.362 137.219 571.224 137.169 569.912Z" fill="#B6B4CA"/>
<path d="M141.004 570.654C139.974 571.438 136.334 573.058 136.085 574.341C135.761 576.01 137.56 576.309 139.132 575.944C143.09 575.023 146.884 570.229 148.83 567.571C149.584 566.542 154.367 559.134 149.027 561.039C147.438 561.605 146.689 564.282 145.907 565.421C144.581 567.354 142.926 569.078 141.004 570.654Z" fill="#B6B4CA"/>
<path d="M111.953 592.413C118.051 592.465 123.936 589.582 128.782 586.919C130.606 585.917 130.335 583.878 127.838 583.897C126.161 583.91 123.789 585.892 122.362 586.54C119.676 587.758 116.694 588.752 113.634 589.154C112.355 589.323 111.154 589.453 109.891 589.156C108.87 588.915 108.087 587.977 106.979 587.979C105.24 587.985 104.401 589.029 105.257 590.364C106.313 592.016 109.94 592.396 111.953 592.413Z" fill="#B6B4CA"/>
<path d="M128.59 591.797C127.248 591.739 126.078 592.44 124.751 592.452C123.395 592.463 121.729 591.433 120.421 591.607C117.869 591.948 117.791 593.587 119.741 594.637C121.694 595.689 126.14 595.721 128.255 594.979C129.807 594.434 132.02 591.945 128.59 591.797Z" fill="#B6B4CA"/>
<path d="M143.568 584.383C142.1 584.319 140.894 585.466 139.475 585.672C138.314 585.841 136.513 585.185 135.497 585.533C133.133 586.345 133.968 588.006 136.023 588.648C137.81 589.206 140.126 588.897 141.872 588.394C143.468 587.935 148.023 584.574 143.568 584.383Z" fill="#B6B4CA"/>
<path d="M110.745 600.322C105.461 600.948 98.1504 596.915 96.4406 593.025C95.9092 591.815 96.325 589.786 94.2408 589.455C91.8874 589.08 92.041 591.132 92.2135 592.359C92.7863 596.419 98.052 600.049 102.305 601.869C104.481 602.801 108.878 604.379 111.272 603.402C113.043 602.678 113.608 599.983 110.745 600.322Z" fill="#B6B4CA"/>
<path d="M74.7669 561.271C74.2527 566.245 74.6185 572.234 76.9684 576.924C77.6534 578.291 80.231 580.41 81.299 577.966C81.8373 576.733 79.8083 573.956 79.4649 572.608C78.8283 570.109 78.5799 567.497 78.516 564.948C78.4556 562.491 79.9239 559.257 79.358 556.961C78.9353 555.245 77.222 554.443 75.7313 556.082C74.7065 557.207 74.9032 559.956 74.7669 561.271Z" fill="#B6B4CA"/>
<path d="M93.737 582.92C93.9993 581.362 90.3605 580.77 88.9285 580.372C87.0893 579.861 84.6859 580.107 85.8436 582.256C86.777 583.983 93.2833 585.675 93.737 582.92Z" fill="#B6B4CA"/>
<path d="M92.3824 566.508C88.5677 566.343 91.1385 570.9 91.9666 572.211C93.654 574.881 96.5871 577.894 100.295 578.795C101.842 579.172 104.496 579.382 104.296 577.433C104.134 575.847 100.957 575.603 99.5857 574.878C97.5567 573.807 95.733 571.883 94.86 570.069C94.2976 568.903 94.5443 566.602 92.3824 566.508Z" fill="#B6B4CA"/>
<path d="M80.3086 583.108C75.8934 582.249 73.8524 578.907 73.0277 575.613C72.7913 574.672 73.0553 573.239 71.6215 572.836C69.2975 572.182 69.0301 574.436 69.0922 575.609C69.2785 579.109 71.9079 583 75.5466 584.933C76.782 585.589 79.2734 586.711 80.7658 586.057C82.2979 585.383 82.3358 583.499 80.3086 583.108Z" fill="#B6B4CA"/>
<path d="M74.2182 588.058C72.4446 587.718 71.2489 587.207 70.0136 586.159C69.144 585.421 68.9232 583.971 67.7051 583.532C63.8058 582.13 64.9049 585.803 66.1471 587.272C67.586 588.972 69.9066 590.59 72.5153 590.932C75.2586 591.292 77.6465 588.728 74.2182 588.058Z" fill="#B6B4CA"/>
<path d="M84.2821 551.359C86.7787 552.213 89.5237 546.004 90.9109 544.652C91.8046 543.781 94.7756 542.113 94.7463 540.891C94.7049 539.141 92.9243 539.118 91.3922 539.689C88.9405 540.606 79.9584 549.889 84.2821 551.359Z" fill="#B6B4CA"/>
<path d="M117.429 519.98C114.353 518.239 110.542 526.992 109.527 528.235C108.345 529.682 98.1712 537.286 101.015 539.071C104.61 541.312 121.441 522.25 117.429 519.98Z" fill="#B6B4CA"/>
<path d="M114.198 535.434C114.755 538.691 118.975 535.152 119.978 534.256C121.387 532.995 125.952 530.292 126.02 528.501C126.156 524.803 121.549 528.259 120.443 529.224C119.053 530.432 113.879 533.544 114.198 535.434Z" fill="#B6B4CA"/>
<path d="M71.3528 562.413C72.5329 561.361 72.0929 558.654 71.9221 557.347C71.7047 555.7 71.8618 549.61 69.1012 549.625C64.9414 549.647 68.2817 557.616 68.1971 559.357C68.1161 561.013 68.6268 564.843 71.3528 562.413Z" fill="#B6B4CA"/>
<path d="M135.49 553.806C134.824 555.095 136.77 557.278 137.203 558.527C137.831 560.34 137.969 561.865 137.509 563.734C137.167 565.122 136.693 570.288 140.207 567.268C142.357 565.42 141.905 560.787 141.215 558.621C140.982 557.883 137.659 549.61 135.49 553.806Z" fill="#B6B4CA"/>
<path d="M136.825 565.841C136.644 566.354 136.996 565.337 136.825 565.841V565.841Z" fill="#B6B4CA"/>
<path d="M146.532 555.904C148.351 554.364 146.979 550.417 146.311 548.808C145.782 547.532 143.775 542.139 141.032 543.519C138.476 544.804 142.69 549.624 143.202 551.319C143.494 552.291 142.534 559.289 146.532 555.904Z" fill="#B6B4CA"/>
<path d="M90.347 555.747C92.8659 557.324 98.3542 550.49 99.8104 549.448C101.403 548.31 109.969 545.535 107.55 543.409C103.943 540.239 86.7514 553.496 90.347 555.747Z" fill="#B6B4CA"/>
<path d="M95.4399 556.91C94.7739 557.854 93.9129 559.397 95.3381 560.189C97.386 561.325 98.4937 558.916 99.4789 557.99C103.285 554.413 97.8363 553.519 95.4399 556.91Z" fill="#B6B4CA"/>
<path d="M99.6255 564.704C98.3643 565.781 99.622 566.767 100.757 567.283C104.713 569.077 111.739 567.039 115.273 565.396C116.556 564.798 119.198 563.629 119.322 562.271C119.448 560.895 118.252 560.298 116.653 560.624C114.82 560.996 112.748 562.946 110.844 563.589C108.559 564.358 106.192 564.865 103.725 564.67C102.439 564.569 100.723 563.769 99.6255 564.704Z" fill="#B6B4CA"/>
<path d="M107.743 569.844C103.356 569.909 105.193 573.423 109.132 572.936C110.531 572.763 112.215 572.389 112.053 570.997C111.827 569.055 109.305 569.82 107.743 569.844Z" fill="#B6B4CA"/>
<path d="M87.4896 565.67C87.3343 564.332 87.9882 561.309 86.3767 560.458C84.1183 559.266 83.4402 561.712 83.2987 562.953C83.1814 563.994 83.0486 566.101 84.0889 566.873C85.3726 567.827 87.6759 567.253 87.4896 565.67Z" fill="#B6B4CA"/>
<path d="M122.372 542.852C123.397 543.697 125.133 543.331 126.406 543.532C128.601 543.878 130.474 544.74 132.233 545.831C133.464 546.595 139.277 550.107 138.245 546.047C137.712 543.947 131.729 541.731 129.532 541.083C128.269 540.714 118.589 539.736 122.372 542.852Z" fill="#B6B4CA"/>
<path d="M129.898 537.398C131.92 537.931 133.219 540.127 134.983 540.449C137.431 540.898 137.69 539.094 136.829 537.702C136.044 536.432 132.452 534.06 130.476 534.51C128.872 534.874 127.754 536.828 129.898 537.398Z" fill="#B6B4CA"/>
<path d="M122.031 548.217C123.708 549.417 125.211 550.533 126.313 552.15C127.699 554.182 126.327 556.186 127.352 557.954C128.14 559.313 129.986 558.821 130.813 557.891C131.891 556.679 131.393 553.934 130.894 552.669C129.857 550.036 126.218 545.866 122.882 544.783C118.72 543.434 120.012 546.772 122.031 548.217Z" fill="#B6B4CA"/>
<path d="M111.799 549.766C113.019 547.503 115.933 546.065 117.069 543.9C118.482 541.209 115.316 540.917 113.212 542.521C111.577 543.768 109.833 545.818 108.808 547.439C108.311 548.226 107.488 549.398 108.142 550.267C109.144 551.603 111.113 551.04 111.799 549.766Z" fill="#B6B4CA"/>
<path d="M106.487 554.634C104.194 557.004 111.386 559.231 113.492 558.585C119.27 556.814 108.068 553.009 106.487 554.634Z" fill="#B6B4CA"/>
<path d="M120.112 554.521C120.856 555.783 119.921 559.597 123.166 558.873C124.988 558.467 124.598 556.114 124.365 555.048C124.1 553.829 123.22 551.355 121.401 550.998C117.926 550.316 119.41 553.326 120.112 554.521Z" fill="#B6B4CA"/>
<path d="M164.533 568.151C165.696 566.942 164.733 565.481 162.933 565.499C161.348 565.514 159.817 567.539 158.882 568.287C157.231 569.607 155.326 570.737 153.406 571.794C151.933 572.605 148.032 573.712 147.152 575.007C144.543 578.851 151.691 576.427 153.123 575.652C157.188 573.455 161.496 571.308 164.533 568.151Z" fill="#B6B4CA"/>
<path d="M141.456 581.118C144.034 580.46 142.041 578.455 140.468 578.224C139.324 578.055 133.78 578.754 132.768 579.431C131.128 580.527 131.753 581.94 133.691 582.339C135.578 582.726 139.695 581.569 141.456 581.118Z" fill="#B6B4CA"/>
<path d="M152.16 587.744C154.926 588.339 163.687 584.346 158.43 583.155C156.577 582.735 147.733 586.224 152.16 587.744Z" fill="#B6B4CA"/>
<path d="M264.402 46.4047C259.393 42.2909 254.735 38.9799 248.23 36.35C241.657 33.6924 234.606 31.767 227.468 30.3482C220.201 28.9045 212.863 28.7052 205.434 28.2567C197.625 27.7861 189.871 26.8988 182.133 25.9479C152.535 22.3089 121.843 19.5502 93.2024 28.3979C77.1326 33.3615 61.4925 41.1406 49.4496 51.104C52.3723 42.349 55.0621 33.8626 59.0011 25.3485C63.4248 15.7866 66.7944 5.57689 66.9341 -4.69235C66.9963 -9.2643 65.9024 -13.7615 65.5625 -18.3113C65.1761 -23.4632 65.7281 -28.7397 66.3303 -33.8709C66.9635 -39.2733 68.1333 -44.6107 69.4307 -49.9315C69.9259 -51.9621 70.3124 -53.9969 70.6022 -56.0524C70.6678 -56.523 71.0491 -59.7066 70.9559 -58.9522C71.4097 -62.9594 73.0056 -69.126 65.4383 -67.4303C59.9483 -66.1998 54.9396 -62.9899 49.8844 -60.9302C44.4789 -58.7294 38.9424 -56.6213 34.1442 -53.6051C29.2512 -50.5295 25.3381 -46.6081 21.2473 -42.8888C13.1831 -35.5582 2.23761 -30.1364 -5.09332 -22.3725C-8.60094 -18.6573 -10.6489 -14.1062 -12.7607 -9.80136C-15.3798 -4.4598 -18.444 0.570305 -22.1362 5.49522C-26.2132 -9.09543 -33.6873 -23.1158 -43.9375 -35.5582C-48.8685 -41.5434 -55.6249 -46.3285 -61.6722 -51.5579C-64.4344 -53.947 -66.7585 -56.4953 -68.8479 -59.2844C-69.7606 -60.5025 -70.9079 -61.8036 -71.46 -63.1629C-72.1346 -64.8225 -71.46 -66.4199 -71.8724 -68.0726C-72.5004 -70.5863 -75.694 -71.3517 -76.7516 -68.5751C-77.302 -67.1314 -76.3806 -65.7015 -76.1167 -64.3173C-75.8303 -62.8141 -75.989 -61.3593 -75.92 -59.8367C-75.6181 -53.1636 -71.3513 -46.7479 -66.8327 -41.2804C-61.881 -35.2897 -56.4272 -29.8111 -52.0897 -23.4688C-47.816 -17.2233 -45.6266 -10.3675 -44.9071 -3.28049C-43.3923 11.6479 -44.5155 26.7645 -43.2801 41.7331C-42.6797 49.0125 -41.1994 56.0331 -38.9461 63.0965C-36.8653 69.6174 -31.2511 74.5368 -27.2397 80.331C-25.2159 83.253 -23.0075 86.1459 -21.6255 89.3115C-20.623 91.6093 -18.6061 93.8752 -18.8166 96.2186C-19.4516 103.332 -21.1441 110.744 -22.3519 117.835C-24.9899 133.315 -27.6038 148.213 -34.8622 162.828C-42.8195 178.854 -47.1276 196.075 -53.3802 212.566C-59.117 227.699 -65.0228 242.709 -71.8327 257.556C-78.0956 254.425 -81.0856 246.289 -82.4003 240.907C-83.9083 234.735 -83.9497 228.153 -82.528 221.84C-79.1205 206.707 -62.1398 199.379 -51.9051 187.557C-46.1149 180.867 -47.6849 174.57 -49.4102 167.094C-51.0269 160.086 -46.0338 154.918 -45.1797 148.195C-44.3326 141.531 -48.0817 135.218 -48.7788 128.647C-49.0945 125.674 -48.9824 122.622 -48.1853 119.698C-47.8419 118.442 -45.4782 114.663 -48.7305 114.493C-51.4358 114.35 -54.1497 120.677 -55.0417 122.032C-57.6246 125.96 -59.9814 130.047 -62.9645 133.795C-67.773 139.84 -75.1833 144.041 -83.2923 146.853C-82.1588 143.891 -79.8089 141.281 -78.4545 138.374C-77.1553 135.586 -75.9165 132.751 -74.8365 129.905C-72.578 123.955 -70.8958 117.835 -70.2661 111.63C-68.9962 99.1461 -69.7744 86.8158 -67.3917 74.3679C-66.1943 68.1114 -64.6553 61.9144 -64.048 55.5943C-63.7512 52.5062 -63.5511 49.4111 -63.2526 46.323C-63.0542 44.2564 -61.8119 40.2783 -64.4707 38.9827C-69.2205 36.6697 -77.1605 45.152 -79.343 47.5674C-83.9273 52.6432 -87.6074 58.2588 -90.3196 64.1347C-93.0405 57.6221 -98.6236 52.3096 -103.268 46.6538C-107.399 41.6251 -109.505 36.577 -111.695 30.8866C-113.512 26.1666 -115.965 20.9593 -121.816 18.5896C-128.872 15.7326 -133.934 20.4305 -138.784 23.9048C-140.294 21.4839 -141.985 19.2983 -143.896 17.0684C-145.525 15.1693 -146.671 12.7552 -148.479 10.9876C-153.299 6.27313 -155.163 12.6016 -156.22 15.7382C-158.011 21.0493 -158.658 26.5085 -158.158 31.994C-157.682 37.2068 -155.822 42.6771 -157.659 47.7556C-165.056 39.6651 -176.521 28.3633 -191.034 30.8756C-203.426 33.0197 -195.225 49.735 -195.092 55.932C-194.835 67.9259 -199.076 79.9212 -197.342 91.9083C-195.618 103.827 -188.938 113.255 -180.039 122.663C-175.19 127.789 -169.977 132.769 -166.124 138.44C-162.026 144.473 -160.368 151.27 -156.812 157.484C-164.854 153.827 -171.716 147.739 -181.281 146.733C-190.213 145.793 -200.22 147.345 -209.147 148.006C-213.822 148.352 -218.543 148.708 -223.241 148.474C-226.612 148.305 -231.871 146.992 -232.227 150.996C-232.763 157.044 -223.334 164.423 -218.417 168.092C-210.941 173.672 -202.539 178.485 -195.256 184.223C-188.006 189.937 -182.992 195.92 -178.57 203.231C-174.468 210.016 -169.626 216.566 -163.496 222.301C-160.782 224.839 -158.205 227.605 -155.016 229.778C-151.302 232.31 -146.712 233.961 -142.423 235.765C-138.617 237.366 -135.018 238.918 -131.892 241.324C-128.346 244.052 -125.175 246.734 -120.532 248.271C-116.438 249.627 -112.43 249.723 -108.092 249.435C-106.419 249.324 -103.67 248.748 -102.149 249.503C-100.389 250.373 -99.3121 253.19 -98.37 254.566C-94.2689 260.565 -89.2654 267.979 -82.6212 272.389C-79.419 274.514 -77.2312 275.938 -76.6118 279.422C-75.8941 283.448 -75.8303 287.503 -74.9831 291.536C-68.156 324.022 -54.5 355.514 -44.091 387.328C-38.9426 403.062 -34.6794 418.866 -28.8443 434.464C-28.1783 436.247 -27.4778 438.02 -26.7618 439.792C-26.384 440.725 -24.3446 443.821 -24.8311 444.703C-25.8646 446.58 -30.963 444.647 -31.9067 448.109C-33.5285 454.051 -20.9785 458.367 -17.2673 462.244C-11.5374 468.228 -7.39493 475.725 -3.97188 482.712C-2.4346 485.849 -1.06297 489.106 0.113708 492.342C0.652008 493.822 0.755539 500.921 4.4167 498.308C6.92706 496.517 3.47986 490.508 2.64824 488.5C1.07474 484.704 -0.693726 480.975 -2.73653 477.326C-6.44081 470.71 -10.466 463.516 -16.7117 458.158C-19.6551 455.634 -23.8046 454.117 -26.5496 451.505C-26.9982 451.077 -28.5889 449.661 -28.306 449.009C-27.885 448.039 -26.6531 448.538 -25.5282 448.393C-20.1003 447.69 -20.6783 444.82 -22.0758 441.339C-23.4388 437.945 -24.7708 434.554 -25.9578 431.117C-28.5768 423.536 -31.6704 416.074 -34.0065 408.427C-36.4685 400.37 -38.3733 392.203 -41.12 384.204C-46.5721 368.328 -52.3036 352.537 -57.6056 336.622C-62.9058 320.717 -68.8599 304.993 -71.6843 288.649C-72.2623 285.305 -72.2502 281.897 -72.8834 278.572C-73.6494 274.554 -76.1771 272.825 -79.8486 270.303C-86.919 265.449 -92.1071 257.368 -96.4618 250.848C-98.6323 247.598 -100.128 245.979 -104.983 246.167C-109.533 246.344 -113.845 246.871 -118.279 245.631C-122.682 244.399 -125.744 241.798 -129.002 239.263C-132.369 236.641 -136.134 234.761 -140.292 233.042C-144.509 231.299 -148.853 229.78 -152.478 227.276C-156.069 224.795 -159.117 221.746 -162.064 218.784C-168.303 212.512 -172.846 205.466 -177.226 198.296C-185.035 185.519 -199.276 177.388 -212.632 168.04C-218.087 164.221 -227.792 157.556 -228.307 151.205C-218.721 151.939 -209.342 151.04 -199.792 150.465C-189.835 149.864 -181.248 148.643 -172.345 152.985C-156.876 160.53 -140.135 168.885 -132.558 182.306C-128.603 189.683 -125.292 196.536 -123.872 204.532C-122.29 213.443 -122.834 221.898 -124.347 230.758C-128.986 228.48 -132.739 225.287 -136.188 221.955C-132.459 220.716 -134.115 210.445 -134.542 207.941C-135.014 205.163 -135.846 202.46 -136.809 199.769C-137.357 198.233 -137.837 194.35 -139.369 193.215C-142.014 191.254 -142.787 193.957 -142.414 195.617C-141.862 198.079 -140.428 200.507 -139.681 202.954C-138.053 208.293 -137.401 213.903 -138.638 219.34C-142.756 214.782 -146.44 209.972 -149.747 205.008C-151.39 202.542 -153.068 200.061 -154.616 197.556C-156.248 194.913 -155.477 192.887 -155.151 189.932C-155.244 190.78 -155.046 189.134 -155.018 188.892C-154.842 187.314 -154.761 185.758 -154.757 184.172C-154.754 182.735 -153.964 178.735 -156.108 177.997C-160.028 176.649 -158.948 189.439 -159.141 191.053C-161.871 187.037 -164.428 182.673 -168.434 179.35C-172.675 175.831 -178.467 172.678 -183.557 170.019C-188.596 167.386 -193.643 165.358 -199.288 163.714C-200.817 163.268 -203.621 162.056 -204.533 163.873C-205.644 166.086 -200.888 166.518 -199.335 166.943C-193.374 168.572 -188.032 171.272 -182.946 174.202C-178.01 177.045 -172.656 179.822 -169.007 183.787C-162.116 191.279 -157.43 200.256 -151.811 208.373C-146.134 216.572 -139.497 225.68 -130.013 231.425C-122.766 235.815 -114.766 240.648 -105.071 239.773C-94.7951 238.845 -103.908 227.712 -104.956 223.189C-105.955 218.876 -105.944 214.469 -106.691 210.132C-107.518 205.334 -109.583 200.831 -111.707 196.325C-114.005 191.445 -116.674 186.376 -117.371 181.142C-118.115 175.55 -115.292 170.992 -111.783 166.312C-106.074 158.696 -94.5001 154.27 -85.8027 151.118C-78.9497 148.632 -71.8206 146.28 -66.3703 141.98C-60.392 137.262 -56.6687 131.115 -52.7867 125.249C-52.9662 133.478 -47.0793 141.708 -49.4292 149.874C-50.649 154.115 -53.4855 157.885 -53.715 162.319C-53.9479 166.805 -51.7429 170.973 -51.384 175.399C-50.5869 185.213 -62.1777 192.685 -69.9382 199.027C-78.9186 206.366 -85.1988 213.549 -86.8396 223.998C-87.4763 220.405 -88.2924 216.936 -88.3493 213.291C-88.3924 210.523 -88.929 206.7 -87.88 204.034C-86.6671 200.95 -82.7885 197.716 -80.4593 195.085C-77.7299 192.002 -74.7985 189.004 -71.5014 186.297C-70.1798 185.212 -66.177 183.339 -65.932 181.748C-65.5162 179.049 -68.9824 180.132 -70.5059 181.08C-76.8275 185.014 -81.7292 191.089 -86.1926 196.316C-82.7006 183.61 -74.1032 172.332 -67.6056 160.543C-66.9862 159.419 -63.834 154.65 -67.6884 154.627C-69.8123 154.613 -70.9476 158.886 -71.6843 160.19C-75.4145 166.794 -79.6122 173.223 -83.3614 179.819C-84.7623 176.259 -87.1485 172.798 -89.9383 169.811C-91.9966 167.608 -96.4066 166.852 -94.3586 170.48C-92.528 173.723 -89.0135 175.997 -87.5298 179.549C-86.8931 181.073 -85.8527 183.515 -86.0598 185.144C-86.0736 185.253 -86.4946 186.179 -86.6895 186.601C-90.4387 194.716 -92.0536 203.369 -92.2434 211.998C-93.439 210.827 -97.3331 207.024 -99.3034 206.949C-103.632 206.784 -100.208 210.27 -98.8566 211.266C-92.7368 215.781 -91.3962 220.402 -90.1747 226.801C-89.0273 232.812 -87.2192 239.038 -85.2316 244.911C-83.4666 250.131 -80.1798 256.673 -74.4069 259.905C-67.804 263.601 -67.0828 255.175 -65.5283 251.843C-62.5745 245.508 -59.4896 239.198 -56.805 232.783C-53.8202 225.652 -51.61 218.323 -48.8374 211.137C-46.0579 203.937 -43.2387 196.835 -41.089 189.493C-38.972 182.266 -36.503 175.106 -33.2801 168.143C-30.1038 161.285 -26.6583 154.533 -24.455 147.414C-19.9208 132.771 -18.6286 117.596 -16.3149 102.663C-15.8853 99.8839 -15.14 97.5142 -14.0237 95.0739C-12.8591 92.5284 -13.8511 89.1205 -13.8114 86.312C-13.7131 79.3773 -11.7945 72.6114 -8.78554 66.1293C-5.72307 59.5323 -2.33969 52.4494 1.9167 46.2856C5.52094 41.0673 13.5627 37.4656 19.1442 33.7104C26.7201 28.6138 33.5731 22.6411 39.1891 16.1077C41.6977 13.1885 44.3409 10.2056 46.4855 7.10226C47.959 4.97062 47.6139 1.32607 44.1615 3.98785C41.2094 6.26344 39.2546 10.5143 36.903 13.2577C34.1563 16.4635 31.1697 19.5363 27.9572 22.4501C21.4199 28.3799 13.7801 33.046 6.26282 38.1065C10.0102 30.2624 13.4523 22.2936 16.1783 14.1782C18.8094 6.34511 20.7263 -1.60701 23.7128 -9.37088C26.67 -17.06 31.0679 -24.3422 36.2112 -31.2368C38.9303 -34.8799 42.1049 -38.2587 45.0914 -41.7566C47.3792 -44.4349 51.3941 -48.0117 52.3844 -51.2133C53.4852 -54.7679 50.0362 -54.2349 48.3264 -51.7753C45.8575 -48.2207 43.0728 -44.8364 40.1656 -41.4991C34.277 -34.7415 28.8923 -27.8829 24.7325 -20.3184C16.2387 -4.85015 13.5748 12.1462 6.72348 28.0754C-0.71788 45.3721 -14.2376 61.6431 -17.181 80.0223C-20.4937 68.1585 -23.4647 56.3043 -24.7639 44.1734C-25.9888 32.7234 -27.1552 20.8652 -20.7714 10.2291C-17.7607 5.21146 -13.8925 0.573074 -11.2027 -4.58992C-8.68375 -9.42486 -6.71686 -14.6059 -3.1368 -19.038C0.836655 -23.9588 7.20657 -27.6185 12.581 -31.4929C18.2332 -35.5679 23.1987 -40.1343 28.2505 -44.673C33.4282 -49.3253 39.1615 -53.0972 46.1387 -55.8918C52.9037 -58.6007 60.1484 -63.2031 67.5277 -64.6232C66.5391 -48.9806 60.0949 -33.5304 61.7495 -17.7507C62.5467 -10.1557 63.3782 -3.19466 61.841 4.40726C60.3365 11.8541 57.8468 18.9702 54.5463 26.024C51.0887 33.4114 48.6905 40.7088 46.4441 48.3647C45.6746 50.9891 44.5117 53.0169 42.8036 55.0807C40.2502 58.1661 38.5749 61.7829 35.9299 64.9126C30.7315 71.0625 24.7066 77.3148 17.5983 82.1055C11.0748 86.5016 2.17722 90.1545 -2.57436 95.9251C-4.57919 98.3599 -7.11543 101.964 -7.80901 104.849C-8.58368 108.069 -6.0578 109.259 -2.55193 108.03C4.83768 105.439 14.0958 104.398 20.6228 100.486C27.0358 96.6435 28.3367 88.0976 30.885 82.3712C34.0769 75.1984 38.58 68.0145 43.8423 61.6722C53.7647 49.7143 69.8 40.3157 85.8404 34.2087C103.347 27.5438 121.593 25.4579 140.827 25.4745C162.421 25.4925 183.391 29.9537 204.835 31.3199C215.321 31.9884 225.366 32.7165 235.397 35.4517C240.913 36.9549 246.293 38.8152 251.283 41.2403C255.817 43.4439 258.796 46.55 262.654 49.3751C257.173 52.0771 250.822 53.4446 244.83 55.1915C237.568 57.3093 230.725 59.9863 224.304 63.4481C210.568 70.8521 200.187 80.8819 190.094 91.2508C185.08 96.4013 179.937 101.466 174.962 106.64C170.537 111.244 165.632 115.241 158.853 117.55C144.709 122.367 126.905 119.856 112.445 117.308C102.838 115.615 93.9839 112.6 84.781 109.912C75.9025 107.32 66.3717 105.689 58.3541 101.506C63.4456 99.8438 68.4473 98 73.342 95.9916C77.3224 94.3583 81.5098 91.5304 86.0457 91.4321C96.5909 91.2037 107.236 92.1989 117.773 91.7989C120.273 91.7034 128.962 91.7145 130.13 89.4638C132.015 85.8276 122.454 88.2803 120.987 88.434C116.101 88.9461 111.26 88.5945 106.361 88.4962C100.725 88.3841 95.0968 88.6637 89.4584 88.4201C99.4464 83.3872 109.534 80.3683 120.816 77.7702C125.804 76.6213 130.459 74.3568 135.373 73.3713C140.628 72.3166 146.222 73.1124 151.536 73.327C156.96 73.5457 162.06 72.9782 167.373 72.1435C169.291 71.8418 172.659 71.7546 174.24 70.7524C175.789 69.771 176.16 68.2554 173.82 67.7335C172.119 67.3543 169.183 68.6263 167.487 68.9516C164.359 69.551 161.17 70.0437 157.963 70.2569C152.1 70.6445 146.303 69.7046 140.445 69.7572C155.163 62.9789 172.564 58.9897 188.651 54.826C196.51 52.7913 204.557 51.1815 212.188 48.6194C213.886 48.0491 219.882 46.7369 217.768 44.3921C216.207 42.6605 209.914 46.049 208.11 46.6026C192.081 51.5165 175.321 55.1153 159.15 59.7856C151.739 61.9255 143.874 64.2011 137.274 67.7086C134.386 69.2437 132.06 71.0819 128.867 72.2681C124.721 73.8073 120.219 74.5312 115.875 75.5957C116.99 70.2209 118.268 65.0607 121.377 60.1634C122.883 57.7923 124.662 55.5195 126.634 53.3796C128.311 51.5608 130.961 50.0257 132.447 48.1778C133.834 46.4531 132.818 44.8018 130.168 45.5963C128.668 46.0448 126.82 48.2982 125.846 49.2243C121.496 53.3574 117.845 58.0526 115.532 63.1436C114.369 65.7029 113.622 68.3509 112.971 71.021C112.737 71.9816 112.683 75.759 111.748 76.6186C110.751 77.5349 107.057 77.7716 105.642 78.1841C102.543 79.0893 99.5568 80.2091 96.6427 81.4466C90.5229 84.0433 84.8638 87.2394 78.8924 90.0341C72.9797 92.801 66.7081 95.0448 60.5314 97.3979C63.7613 92.9478 65.7989 87.699 68.223 82.936C70.742 77.9875 73.9114 74.1796 78.3731 70.2417C79.4894 69.2575 82.8124 66.2441 79.0149 65.8939C77.3914 65.7445 75.8714 67.6588 75.0139 68.4464C70.7799 72.329 67.576 76.2656 64.9966 80.9981C62.5984 85.3984 60.8144 90.2085 58.047 94.4524C57.4327 95.3936 55.8886 98.5551 55.0656 99.2098C53.5628 100.407 48.8112 100.958 46.9065 101.46C36.3474 104.245 23.6956 106.684 14.0303 107.956C9.29941 108.595 4.60132 109.4 -0.017395 110.442C-2.96599 111.108 -7.32246 111.641 -10.0554 112.766C-13.1575 114.044 -13.192 118.876 -13.9029 121.377C-14.8829 124.83 -15.9232 128.272 -16.829 131.739C-17.8125 135.502 -18.7252 139.323 -18.6596 143.187C-18.6372 144.473 -19.6983 147.999 -18.7062 148.797C-15.5419 151.341 -6.4874 138.353 -5.43839 136.659C-4.03397 134.389 -4.47911 133.446 -5.28656 131.175C-6.42355 127.976 -6.13542 125.007 -5.33832 121.74C-4.94839 120.14 -4.6413 116.087 -3.28346 114.697C-1.70305 113.082 4.64618 112.603 6.98056 112.169C15.5624 110.57 24.3874 109.976 32.9434 108.257C37.0445 107.433 41.0162 106.297 45.0207 105.221C48.0504 104.407 52.4724 102.262 55.4521 103.711C51.3682 105.273 47.8382 107.311 43.4834 108.471C39.2615 109.597 35.0069 109.919 30.5969 110.142C21.6062 110.596 16.9599 113.322 13.0244 119.819C9.07509 126.34 5.4312 132.996 -2.04121 137.312C-5.49016 139.304 -6.72205 143.088 -8.9391 145.938C-11.5064 149.237 -14.6827 152.232 -17.5382 155.369C-29.1824 168.149 -31.6738 184.091 -35.6455 199.209C-39.7725 214.923 -43.6321 230.895 -48.9479 246.38C-50.4334 250.708 -52.1466 255.004 -54.4379 259.105C-55.5835 261.156 -56.824 263.227 -58.3009 265.141C-59.1756 266.273 -61.0735 267.411 -61.6687 268.603C-62.3571 269.979 -61.3979 271.286 -61.0804 272.691C-60.6404 274.641 -60.6439 276.666 -60.3351 278.631C-60.1815 279.599 -59.9969 280.555 -59.8036 281.516C-59.7398 281.793 -59.2826 283.936 -59.5172 282.795C-56.3961 297.912 -51.8067 312.919 -47.9472 327.928C-46.1235 335.019 -44.7173 342.183 -42.7211 349.244C-40.7249 356.306 -37.6745 363.137 -35.7836 370.227C-34.8329 373.793 -34.2325 377.42 -33.1421 380.964C-32.69 382.434 -32.1862 383.904 -31.3477 385.266C-30.3177 386.938 -28.6062 387.438 -27.4209 388.844C-25.5144 391.104 -26.3788 395.711 -25.9992 398.355C-25.6731 400.632 -25.0589 403.685 -24.6362 405.6C-21.4944 419.81 -16.7928 433.737 -9.87596 447.067C-6.38905 453.787 -2.55537 460.397 0.534698 467.244C2.11856 470.753 3.61443 474.285 5.37253 477.742C6.87358 480.694 8.53163 484.992 11.2784 487.37C14.1096 489.821 15.7159 487.479 14.2511 485.176C12.3342 482.16 10.3156 479.314 8.73692 476.142C5.39496 469.424 2.65343 462.561 -1.00256 455.938C-8.65096 442.074 -14.5136 428.277 -18.6579 413.485C-20.7145 406.15 -21.9792 398.933 -22.8229 391.456C-23.1576 388.483 -24.1496 387.569 -26.4909 385.45C-29.2135 382.988 -29.6189 379.444 -30.3902 376.319C-32.4071 368.137 -35.1038 360.254 -37.835 352.217C-40.5438 344.247 -42.1794 335.991 -44.1997 327.893C-47.8609 313.219 -52.8074 296.557 -55.5921 282.929C-56.2408 279.764 -56.4634 276.568 -57.0535 273.399C-57.2088 272.56 -58.0007 271.042 -57.8903 270.243C-57.7436 269.175 -55.9838 267.979 -55.2263 267.049C-50.0365 260.68 -47.1984 253.205 -44.7932 245.92C-39.9002 231.099 -36.032 215.906 -32.0914 200.9C-28.2766 186.372 -26.3253 170.308 -15.1227 157.988C-12.3811 154.973 -9.45497 152.084 -6.92737 148.945C-4.85179 146.367 -3.3145 142.565 -0.700623 140.353C0.652039 139.208 2.77591 138.572 4.23036 137.431C5.84872 136.16 7.23763 134.659 8.48848 133.15C11.0058 130.116 13.121 126.799 15.0603 123.509C16.9357 120.33 18.6438 116.347 22.7328 114.558C26.3094 112.992 30.7436 113.356 34.6566 113.074C39.0648 112.755 43.3661 111.907 47.4776 110.595C49.6066 109.915 58.2368 107.633 58.185 105.072C66.0197 108.768 75.0622 110.435 83.5647 112.844C91.8566 115.193 99.8621 118.136 108.449 119.747C123.934 122.652 142.188 125.405 157.716 121.224C173.199 117.055 182.39 104.211 191.926 94.3832C202.394 83.5949 213.144 72.9076 227.642 65.4358C235.561 61.3538 244.026 58.7751 252.832 56.231C256.712 55.1098 260.544 53.882 264.157 52.2764C268.824 50.2001 267.58 49.0139 264.402 46.4047ZM-152.449 12.0812C-152.423 12.0881 -152.275 12.1338 -152.449 12.0812V12.0812ZM-24.8363 445.312C-24.7673 445.274 -24.6396 445.183 -24.8363 445.312V445.312ZM-228.295 150.93C-228.293 150.92 -228.146 150.833 -228.295 150.93V150.93ZM-135.083 25.4039C-132.401 23.3899 -129.462 20.1786 -125.316 20.7877C-119.749 21.6057 -117.307 27.4013 -115.803 31.0804C-113.86 35.8309 -112.342 40.4956 -109.184 44.8572C-106.103 49.1149 -102.375 53.064 -98.998 57.1708C-96.2272 60.5427 -92.4539 65.1922 -92.6212 69.425C-92.6885 71.104 -93.7237 72.9768 -94.124 74.6226C-94.8193 77.4782 -95.2886 80.3683 -95.7682 83.2502C-96.5774 88.1031 -96.9587 93.1305 -98.3838 97.8962C-99.9608 103.171 -103.415 108.078 -105.786 113.146C-108.591 104.198 -113.318 95.8462 -117.932 87.4152C-122.659 78.7765 -129.15 72.0494 -137.52 65.4815C-141.421 62.4197 -145.192 59.3689 -148.688 56.0012C-150.161 54.581 -152.823 52.9131 -153.841 51.2895C-154.585 50.106 -154.43 50.524 -154.1 49.0568C-151.88 39.2097 -143.858 31.9884 -135.083 25.4039ZM-153.432 38.5398C-154.566 30.0284 -154.782 21.5517 -151.26 13.3435C-149.323 15.7243 -147.587 18.1785 -145.582 20.5247C-144.863 21.3676 -141.459 24.8391 -141.736 26.0766C-142.033 27.3902 -146.484 30.0783 -147.483 31.0458C-149.882 33.3602 -151.733 35.8641 -153.432 38.5398ZM-108.379 225.383C-107.452 228.491 -105.358 231.283 -104.397 234.374C-103.446 237.429 -106.407 236.781 -109.447 236.537C-112.554 236.288 -117.623 235.666 -119.654 233.507C-121.828 231.196 -119.578 226.683 -119.226 224.005C-118.158 215.873 -119.191 207.593 -121.027 199.589C-118.638 201.6 -116.141 203.531 -113.781 205.566C-107.984 210.562 -110.278 219.019 -108.379 225.383ZM-119.666 187.395C-117.956 192.188 -115.62 196.815 -113.41 201.47C-116.805 198.86 -121.194 195.853 -123.092 192.367C-125.639 187.692 -127.485 182.805 -130.758 178.385C-133.349 174.886 -136.555 171.378 -139.738 168.213C-142.73 165.239 -147.268 163.502 -150.083 160.629C-156.992 153.583 -157.966 143.589 -163.529 135.853C-169.464 127.598 -177.804 120.655 -184.142 112.613C-190.548 104.485 -193.99 95.4864 -193.845 85.8109C-193.705 76.5314 -191.585 67.3155 -191.3 58.0415C-191.171 53.8142 -191.931 49.8333 -192.986 45.7126C-193.712 42.8792 -195.26 37.4919 -192.423 34.981C-189.388 32.2916 -182.33 34.3858 -178.874 35.597C-173.213 37.5791 -169.314 40.7129 -165.536 44.5388C-157.383 52.7913 -149.112 60.7614 -139.716 68.1405C-135.064 71.7933 -130.565 75.5735 -126.971 79.9503C-123.296 84.4254 -121.186 89.4873 -118.432 94.3319C-116.752 97.2484 -113.587 103.007 -111.824 107.032C-110.537 109.973 -109.624 113.072 -108.736 116.106C-107.918 118.901 -108.738 120.582 -109.493 123.319C-111.174 129.408 -112.262 136.069 -112.256 142.308C-112.252 145.342 -111.886 148.384 -111.065 151.349C-110.644 152.87 -110.094 157.284 -107.911 157.826C-108.118 157.961 -108.323 158.097 -108.531 158.233C-113.443 161.481 -116.524 166.179 -119.148 170.737C-123.57 163.533 -127.568 156.071 -129.638 148.184C-131.638 140.561 -132.545 132.686 -135.406 125.22C-140.991 110.64 -157.28 100.63 -162.226 85.8469C-162.697 84.4378 -162.879 80.1745 -165.829 80.8915C-168.879 81.6335 -166.084 86.5016 -165.448 87.9924C-162.204 95.6012 -157.009 101.971 -151.153 108.427C-145.363 114.81 -140.808 121.206 -138.246 128.88C-135.818 136.151 -135.104 143.692 -132.79 150.974C-131.414 155.304 -129.55 159.521 -127.409 163.643C-125.575 167.177 -122.073 171.079 -121.072 174.782C-120.561 176.669 -121.491 178.936 -121.315 180.9C-121.12 183.112 -120.425 185.268 -119.666 187.395ZM-90.7906 149.616C-95.7579 151.785 -100.846 153.52 -105.427 156.249C-105.558 153.993 -107.009 151.85 -107.556 149.642C-108.11 147.411 -108.353 145.124 -108.387 142.852C-108.47 137.565 -107.4 132.239 -106.382 127.029C-105.356 121.779 -103.534 116.801 -101.044 111.879C-98.5132 106.875 -95.3265 102.074 -94.074 96.7224C-91.586 86.1016 -91.4566 75.3147 -86.655 65.0704C-84.2775 59.9987 -81.0753 55.0406 -77.264 50.5683C-74.7036 47.5619 -71.0908 43.5519 -66.7412 42.1746C-67.6746 50.7358 -68.2405 59.2014 -69.9538 67.6975C-71.5911 75.8171 -73.1991 84.0364 -73.4183 92.2723C-73.853 108.531 -74.2171 125.076 -83.5132 140.018C-85.4697 143.163 -86.9224 147.927 -90.7906 149.616ZM-29.4033 26.5749C-30.9129 45.9673 -25.2884 66.2441 -19.7086 84.997C-23.3957 79.4728 -27.4209 74.3181 -31.5893 69.0347C-35.6386 63.9035 -37.0172 57.348 -38.2077 51.4251C-40.8371 38.3335 -40.4368 24.6537 -40.6611 11.432C-40.8785 -1.42984 -41.1701 -13.8072 -49.0255 -25.3817C-52.716 -30.8188 -57.0793 -35.7174 -61.648 -40.6797C-65.8078 -45.199 -70.8389 -51.5662 -71.8206 -57.222C-66.7671 -50.3911 -58.9375 -45.0551 -52.3537 -39.2097C-45.963 -33.5359 -40.1832 -26.0433 -36.4616 -18.9923C-32.5141 -11.5108 -28.9719 -3.71512 -26.5099 4.16779C-26.0113 5.76514 -24.8536 8.05734 -25.0658 9.74742C-25.2469 11.198 -26.5013 12.8148 -27.0016 14.2432C-28.4181 18.2823 -29.0755 22.3961 -29.4033 26.5749ZM20.219 96.5439C17.7621 99.0894 13.4074 100.198 9.73592 101.114C5.09822 102.272 0.688263 103.34 -3.71135 105.043C-2.14647 101.838 -0.557419 98.4416 2.34459 95.8366C4.63239 93.7824 7.67931 92.347 10.3812 90.6833C17.298 86.4227 23.875 82.0473 29.5306 76.6947C26.1076 82.9955 24.9413 90.7705 20.219 96.5439ZM-9.97948 128.262C-9.88286 130.4 -7.80211 132.714 -8.12819 134.477C-8.30072 135.405 -10.4194 137.253 -11.0164 138.053C-12.2121 139.656 -13.3853 141.268 -14.7914 142.762C-14.8466 137.588 -13.2611 132.538 -11.7445 127.548C-11.2062 125.775 -9.81212 115.957 -7.49672 115.549C-9.11163 119.642 -10.1606 123.955 -9.97948 128.262Z" fill="#B6B4CA"/>
<path d="M372.306 38.5647C373.15 31.2451 373.262 23.9021 374.457 16.6047C375.62 9.50658 376.611 2.55661 374.154 -4.45012C370.001 -16.3029 357.308 -25.4274 355.173 -37.9265C354.908 -39.4851 355.115 -40.2769 355.824 -41.7109C356.209 -42.4874 357.08 -43.4868 356.174 -44.2633C354.77 -45.4675 351.162 -42.6051 350.003 -41.9434C343.381 -38.1674 336.723 -37.2331 328.69 -37.4642C321.448 -37.6732 314.078 -38.2726 306.847 -37.6968C299.369 -37.1016 292.199 -35.0364 285.522 -32.3261C273.194 -27.3251 263.393 -18.8262 256.873 -9.23384C248.727 2.75316 246.131 15.9333 244.195 29.3253C242.247 42.8086 241.1 56.2988 239.479 69.8029C237.887 83.073 234.184 96.339 224.669 107.508C220.038 112.942 214.334 117.68 208.822 122.528C207.333 123.837 206.003 125.645 204.317 126.748C203.606 127.213 202.78 127.451 202.06 127.923C200.83 128.732 199.816 130.092 198.748 131.065C198.591 131.209 197.323 132.326 197.989 131.751C190.071 138.7 182.468 145.942 174.164 152.595C167.166 158.201 160.63 164.668 154.213 170.347C154.195 170.361 153.453 171.013 153.306 171.139C152.243 172.056 151.165 172.962 150.112 173.886C148.668 175.157 147.252 176.45 145.799 177.715C142.392 180.681 138.963 183.688 135.471 186.624C135.892 187.422 136.256 188.222 136.541 189.027C139.65 186.327 142.806 183.667 145.985 181.022C152.288 175.781 158.311 170.304 164.239 164.792C170.747 158.741 178.014 153.284 184.559 147.27C189.255 142.954 195.704 137.297 199.671 133.832C200.813 132.83 201.924 131.436 203.235 130.578C203.762 130.233 204.697 130.168 205.373 129.655C206.02 129.162 206.496 128.527 207.04 127.966C210.064 124.835 213.508 122.032 216.824 119.103C223.924 112.772 231.336 104.341 235.67 95.3853C241.018 84.3354 242.145 72.7318 243.267 61.0285C244.388 49.3225 245.791 37.6248 247.63 25.9756C249.442 14.5021 252.035 2.93726 259.007 -7.33198C254.44 14.3789 254.828 36.6393 256.212 58.5689C257.452 78.245 250.485 96.2573 236.132 112.185C232.823 115.857 228.917 119.35 224.743 122.407C220.365 125.616 216.605 129.255 212.473 132.665C204.188 139.501 195.582 146.085 187.428 153.023C179.679 159.615 172.707 166.77 165.15 173.503C157.535 180.288 150.223 187.179 143.39 194.486C142.913 194.996 140.09 197.543 138.984 199.409C139.179 200.09 139.37 200.757 139.557 201.416C139.665 201.426 139.752 201.448 139.879 201.447C142.179 201.426 145.114 196.676 146.279 195.43C153.411 187.803 161.094 180.654 169.084 173.603C178.649 165.145 189.861 154.374 200.753 145.534C206.251 141.073 211.928 136.729 217.254 132.135C222.385 127.711 227.042 123.225 233.845 120.391C240.587 117.581 247.288 115.154 254.654 113.58C261.807 112.052 269.105 111.2 276.289 109.82C290.967 107 305.277 103.026 318.869 97.7578C330.608 93.208 341.54 86.0435 349.426 79.2167C362.039 68.182 370.584 53.5055 372.306 38.5647ZM321.046 -34.8024C323.127 -36.1825 329.452 -35.0087 332.285 -35.0267C336.681 -35.0557 341.107 -35.435 345.21 -36.779C346.134 -37.0836 347.014 -37.4891 347.865 -37.9085C342.965 -32.1019 337.78 -26.6385 333.893 -20.3239C330.092 -14.1477 327.068 -7.79568 324.214 -1.30803C318.208 12.3455 311.874 25.8136 303.829 38.7958C308.577 22.3795 307.792 5.21839 312.028 -11.3157C313.099 -15.4986 314.216 -19.6969 315.691 -23.8023C316.403 -25.7831 317.176 -27.757 318.058 -29.6934C318.681 -31.0568 319.6 -33.8432 321.046 -34.8024ZM295.808 -28.9986C296.757 -30.8077 297.661 -33.4183 299.811 -34.3387C302.194 -35.3589 306.246 -35.3783 308.891 -35.5264C311.937 -35.6426 314.984 -35.4862 318.024 -35.3658C314.028 -29.8872 312.306 -23.4383 310.544 -17.3147C308.774 -11.1551 307.385 -4.92628 306.367 1.34129C305.33 7.73483 304.814 14.1671 303.969 20.5773C303.596 23.4079 303.227 26.2386 302.849 29.0692C302.634 30.6845 302.389 32.2916 302.049 33.8917C302.014 34.0536 301.728 35.233 301.79 35.0226C301.062 37.7646 299.947 41.0881 298.945 44.046C297.478 48.3744 295.054 51.6535 292.099 55.4337C285.925 63.3277 279.405 71.0819 272.388 78.5108C284.155 58.8665 286.367 36.8441 287.828 15.37C288.558 4.64672 288.582 -5.9215 291.245 -16.4966C292.299 -20.6644 293.755 -25.0813 295.808 -28.9986ZM258.634 44.4599C258.615 34.8288 257.699 25.0966 258.734 15.4918C259.707 6.47246 260.116 -3.44381 263.432 -12.1365C265.232 -16.8122 271.702 -21.697 276.296 -24.7422C281.738 -28.3494 288.132 -30.9475 294.721 -32.9158C289.78 -24.5886 287.206 -15.1166 286.015 -5.97964C284.802 3.32759 285.052 12.8079 284.245 22.1552C283.41 31.8237 282.357 41.4964 280.209 51.0431C278.065 60.5759 274.292 69.5814 269.138 78.335C266.855 82.2134 264.707 86.1736 261.157 89.4236C257.407 92.8564 253.301 96.0206 249.464 99.3884C254.55 90.9504 257.861 81.6432 258.919 72.2999C259.966 63.0522 258.653 53.7242 258.634 44.4599ZM336.483 85.9604C322.894 95.2926 305.044 100.699 288.075 104.749C270.372 108.974 251.75 110.149 235.202 117.139C237.637 114.744 239.835 112.199 242.019 109.656C243.793 107.591 246.1 106.109 248.192 104.198C250.658 101.948 253.134 99.7109 255.686 97.5225C261.264 92.7401 266.885 88.0159 271.992 82.8986C289.631 65.2254 304.663 45.3043 315.515 24.4017C321.12 13.6051 325.261 2.39051 330.658 -8.46286C336.121 -19.4491 343.224 -28.9695 352.125 -38.3736C354.357 -22.6244 372.249 -11.7212 372.765 4.37957C373.008 11.9663 370.743 19.5848 370.127 27.1507C369.528 34.4993 369.35 41.7663 366.861 48.9114C361.731 63.628 350.872 76.0788 336.483 85.9604Z" fill="#B6B4CA"/>
<path d="M197.095 136.18C197.107 136.169 197.121 136.156 197.135 136.145C196.976 136.286 197.012 136.253 197.095 136.18Z" fill="#B6B4CA"/>
<path d="M170.178 172.661C170.197 172.645 170.216 172.627 170.235 172.61C170.238 172.607 170.228 172.617 170.178 172.661Z" fill="#B6B4CA"/>
<path d="M275.656 126.762C276.667 122.158 268.764 128.135 267.245 128.999C263.32 131.229 259.046 133.121 254.569 134.533C245.796 137.3 237.104 139.347 228.774 143.015C211.484 150.628 195.088 161.739 183.627 174.655C177.959 181.041 173.13 187.901 166.443 193.675C163.185 196.487 159.519 198.885 155.142 200.487C151.084 201.973 146.717 202.8 142.666 204.297C142.026 204.533 141.085 204.724 140.445 205.107C140.509 205.444 140.58 205.776 140.632 206.124C140.664 206.341 140.702 206.765 140.747 207.249C141.232 207.342 141.812 207.284 142.317 207.096C141.662 207.378 141.116 207.832 140.847 208.285C140.89 208.698 140.939 209.097 140.992 209.422C141.26 209.608 141.698 209.732 142.366 209.748C143.822 209.78 146.223 208.19 147.552 207.717C152.302 206.026 157.136 204.542 161.812 202.71C169.88 199.552 179.203 195.805 185.951 192.026C194.177 187.421 201.407 181.501 208.877 176.156C217.135 170.249 226.474 165.632 235.701 160.804C243.743 156.597 250.981 151.446 257.461 145.775C261.215 142.489 264.742 139.055 268.18 135.554C270.461 133.227 274.989 129.807 275.656 126.762ZM244.631 152.275C236.417 157.949 227.045 162.146 218.282 167.212C208.467 172.884 199.911 179.617 190.718 185.902C182.825 191.299 173.791 195.143 164.576 198.896C164.008 199.131 163.441 199.366 162.871 199.599C169.46 195.532 174.324 190.195 178.893 184.698C181.432 181.643 183.929 178.545 186.563 175.545C187.585 174.382 188.677 173.262 189.793 172.156C189.966 171.984 191.015 170.964 190.464 171.503C200.644 161.553 213.277 153.305 226.993 146.691C240.247 140.301 255.48 137.941 268.46 131.211C261.319 138.844 253.667 146.034 244.631 152.275Z" fill="#B6B4CA"/>
<path d="M312.477 204.906C306.308 202.936 300.392 200.596 294.58 198.025C271.389 187.77 246.693 179.488 219.695 183.243C214.038 184.031 208.47 185.246 203.203 187.098C197.474 189.114 192.481 191.908 187.081 194.376C176.529 199.2 165.214 202.569 153.972 206.165C149.755 207.515 145.499 208.824 141.451 210.483C142.423 211.766 143.064 213.156 143.297 214.554C146.18 214.107 150.573 212.102 151.31 211.812C157.326 209.445 162.902 207.123 169.71 206.82C176.448 206.52 182.997 206.888 189.69 205.934C196.539 204.958 203.449 204.241 210.276 203.171C223.263 201.137 235.604 199.653 248.881 200.705C261.823 201.731 274.471 203.239 286.828 206.6C292.944 208.264 298.94 210.109 305.316 211.046C308.567 211.524 311.864 211.817 315.17 211.875C317.188 211.911 321.158 212.351 322.834 211.302C326.83 208.8 314.185 205.451 312.477 204.906ZM280.282 202.412C268.32 199.657 255.349 198.382 242.923 197.91C249.737 196.091 256.236 194.8 263.434 194.67C264.374 194.653 265.563 194.979 266.189 194.169C266.928 193.212 265.956 192.565 264.964 192.25C263.199 191.691 259.15 192.347 257.906 192.461C254.569 192.768 251.353 193.326 248.129 194.079C245.551 194.68 243.009 195.352 240.47 196.042C239.59 196.281 238.568 196.443 237.742 196.768C237.161 196.997 236.419 197.729 235.993 197.851C234.039 198.41 230.882 198.032 228.779 198.206C226.305 198.411 223.843 198.696 221.389 199.026C216.477 199.685 211.605 200.524 206.708 201.254C215.718 197.449 224.001 192.223 233.727 189.505C234.897 189.179 237.758 188.991 238.118 187.75C238.739 185.613 235.551 186.43 234.359 186.765C229.709 188.074 225.492 190.045 221.103 191.812C216.658 193.6 212.525 195.646 208.289 197.722C206.327 198.684 204.3 199.573 202.154 200.241C200.266 200.828 198.146 201.016 196.388 201.829C195.611 202.187 195.654 202.456 194.928 202.735C193.862 203.147 192.064 203.135 190.915 203.306C188.418 203.675 185.93 204.016 183.399 204.196C178.396 204.551 173.368 204.142 168.366 204.504C167.681 204.552 166.996 204.601 166.313 204.655C172.217 202.767 178.075 201.069 183.725 198.667C189.548 196.192 194.862 193.031 200.778 190.692C212.316 186.129 225.119 184.29 237.963 184.781C252.53 185.338 266.721 189.306 279.733 194.403C286.424 197.023 292.768 200.147 299.367 202.904C305.382 205.417 311.819 207.037 317.906 209.399C304.466 209.494 292.944 205.327 280.282 202.412Z" fill="#B6B4CA"/>
<path d="M155.31 208.326C154.97 208.433 155.278 208.336 155.31 208.326V208.326Z" fill="#B6B4CA"/>
<path d="M57.4637 263.194C56.2336 262.007 52.6656 262.925 51.2612 263.399C49.6083 263.956 45.0241 266.214 44.855 267.964C44.4651 271.983 50.4986 266.956 51.4044 266.442C52.6811 265.822 59.8758 265.519 57.4637 263.194Z" fill="#B6B4CA"/>
<path d="M60.5177 260.039C60.8127 256.915 47.8986 254.704 47.8848 258.017C47.8762 260.117 51.6615 259.044 53.204 259.265C54.6809 259.479 60.2364 263.021 60.5177 260.039Z" fill="#B6B4CA"/>
<path d="M63.285 251.776C61.9082 251.103 58.9613 250.851 59.8188 253.001C60.207 253.975 61.9893 254.22 62.8899 254.815C64.3633 255.788 64.6549 256.871 65.7143 258.038C67.2671 259.75 69.4427 259.602 69.089 257.228C68.7543 254.974 65.4485 252.83 63.285 251.776Z" fill="#B6B4CA"/>
<path d="M74.2634 255.275C75.0226 256.375 73.6889 258.418 76.0871 258.541C78.0108 258.641 78.3404 256.545 78.1161 255.412C77.9228 254.428 76.8652 252.396 75.478 252.122C72.4484 251.524 73.5232 254.202 74.2634 255.275Z" fill="#B6B4CA"/>
<path d="M86.1937 259.729C88.83 261.141 91.3921 255.545 88.9042 254.598C86.5802 253.712 84.4667 258.804 86.1937 259.729Z" fill="#B6B4CA"/>
<path d="M88.9149 265.842C89.3997 267.979 96.4771 266.592 95.5575 264.39C94.8173 262.618 88.4853 263.941 88.9149 265.842Z" fill="#B6B4CA"/>
<path d="M92.1688 272.523C93.839 273.441 95.1088 274.143 95.8541 275.705C96.213 276.457 96.0163 277.768 96.6167 278.449C98.5301 280.614 99.8276 278.341 99.643 276.741C99.3859 274.526 97.8159 272.372 95.6126 271.064C94.9466 270.668 94.0719 269.943 93.1764 270.001C91.6236 270.103 90.6626 271.697 92.1688 272.523Z" fill="#B6B4CA"/>
<path d="M90.2279 276.471C87.5536 277.063 90.2883 279.775 90.5971 281.016C90.9301 282.362 89.0736 285.702 91.3925 286.345C94.3428 287.164 94.2031 282.637 94.1461 281.364C94.0823 279.942 92.8504 275.889 90.2279 276.471Z" fill="#B6B4CA"/>
<path d="M85.918 280.074C84.9397 278.047 82.7365 278.95 82.576 280.619C82.5139 281.267 83.2506 282.074 83.3041 282.723C83.3955 283.846 82.5622 284.511 82.4777 285.536C82.2689 288.043 84.8724 288.016 86.0146 285.968C87.0619 284.091 86.8221 281.947 85.918 280.074Z" fill="#B6B4CA"/>
<path d="M79.4256 281.282C77.7071 281.174 77.6295 282.719 77.3466 283.65C76.7755 285.527 76.0353 286.647 74.7862 288.261C73.4439 289.994 74.1029 292.181 76.9187 290.631C78.8441 289.569 83.6923 281.551 79.4256 281.282Z" fill="#B6B4CA"/>
<path d="M71.3786 281.906C70.5694 278.713 66.8375 282.686 66.2164 283.519C65.4762 284.51 63.2385 287.403 63.9994 288.721C65.2985 290.969 67.1722 288.621 67.7675 287.421C68.3696 286.213 71.6771 283.088 71.3786 281.906Z" fill="#B6B4CA"/>
<path d="M63.9734 276.519C63.0762 277.48 61.4907 279.444 62.1497 280.737C63.0504 282.506 64.6066 281.702 65.4762 280.561C65.8316 280.094 67.1618 277.823 67.1273 277.327C67.0393 276.053 64.9931 275.428 63.9734 276.519Z" fill="#B6B4CA"/>
<path d="M60.8436 269.95C58.5713 270.169 56.6217 271.428 55.5295 273.006C54.8342 274.012 53.9595 276.053 56.4612 275.992C58.1538 275.95 58.9716 273.709 60.357 272.97C61.3336 272.45 62.7328 272.668 62.876 271.373C62.9726 270.508 61.8477 269.856 60.8436 269.95Z" fill="#B6B4CA"/>
<path d="M94.8914 289.042C95.8248 291.86 102.153 287.433 102.141 285.85C102.114 281.923 94.3703 287.472 94.8914 289.042Z" fill="#B6B4CA"/>
<path d="M54.5254 283.938C56.8045 284.572 58.7818 279.934 56.8045 279.128C54.2372 278.083 52.0081 283.238 54.5254 283.938Z" fill="#B6B4CA"/>
<path d="M49.7654 277.25C50.2139 276.017 50.9714 275.376 51.8513 274.324C53.6387 272.187 50.2795 271.792 48.6594 272.918C46.96 274.098 45.8299 276.821 46.08 278.562C46.344 280.4 48.0124 281.436 49.284 279.461C49.7188 278.784 49.51 277.953 49.7654 277.25Z" fill="#B6B4CA"/>
<path d="M42.5966 276.176C42.7847 273.603 37.8451 275.075 39.0769 277.92C39.4617 278.81 40.0863 279.488 41.4131 279.153C42.9055 278.777 42.5276 277.085 42.5966 276.176Z" fill="#B6B4CA"/>
<path d="M44.7859 260.281C43.1847 258.932 36.9459 260.853 37.2858 262.813C37.7499 265.489 47.2117 262.324 44.7859 260.281Z" fill="#B6B4CA"/>
<path d="M50.4328 254.548C53.1795 252.14 44.2026 251.16 43.2554 253.931C42.7171 255.503 44.5546 255.614 45.852 255.476C46.7113 255.383 49.9118 255.005 50.4328 254.548Z" fill="#B6B4CA"/>
<path d="M102.188 273.193C103.734 274.496 106.261 272.72 104.81 271.387C103.344 270.041 100.654 271.902 102.188 273.193Z" fill="#B6B4CA"/>
<path d="M87.826 436.024C95.6659 425.935 95.2898 413.636 96.3699 402.189C97.4862 390.347 96.4872 377.582 103.435 366.754C108.352 374.872 116.203 382.779 127.15 385.86C132.215 387.285 135.273 385.371 138.915 382.633C143.44 379.234 147.987 375.658 152.828 372.551C162.492 366.347 173.565 361.253 184.101 356.074C193.989 351.214 204.233 346.899 209.217 338.029C213.884 329.724 213.504 322.251 211.665 313.482C209.968 305.384 212.74 295.494 207.06 288.27C206.627 287.719 206.146 287.096 205.616 286.615C203.92 285.078 204.022 286.069 204.603 284.172C205.176 282.306 207.35 280.248 208.475 278.505C211.436 273.916 214.101 269.209 216.846 264.536C218.724 261.34 220.934 258.215 222.678 254.972C224.7 251.212 222.621 249.251 219.641 246.387C215.181 242.102 212.317 236.93 208.425 232.335C205.064 228.365 201.612 224.272 197.911 220.507C189.251 211.698 179.272 204.003 164.904 202.089C175.44 185.599 167.771 168.416 154.241 154.768C146.648 147.109 138.527 139.885 130.618 132.44C127.799 129.786 124.84 124.926 119.855 126.056C115.017 127.152 110.421 129.81 105.659 131.245C84.6669 137.574 60.2897 135.693 43.8197 149.994C40.143 153.187 37.6809 156.991 35.9159 161.073C35.1188 162.917 34.4045 164.817 33.918 166.733C33.4763 168.478 33.918 171.353 32.9742 172.923C31.4663 175.431 24.4166 176.163 21.4042 176.642C15.5104 177.578 9.48037 177.968 3.49519 178.258C-4.59318 178.648 -22.7713 178.633 -23.1232 187.712C-23.2699 191.503 -20.8199 194.818 -20.0867 198.468C-19.0497 203.628 -23.1181 207.666 -27.1588 211.301C-26.4066 210.616 -28.5201 212.385 -28.6857 212.512C-30.5525 213.942 -32.4953 215.271 -34.0998 216.905C-37.3486 220.212 -39.4311 224.471 -39.9849 228.654C-40.9856 236.212 -35.5198 243.083 -33.9118 250.312C-41.7258 250.034 -49.9608 248.809 -54.8038 255.023C-57.1071 257.978 -57.9888 261.462 -59.1085 264.783C-60.4077 268.638 -61.8121 272.464 -63.0043 276.341C-65.2938 283.778 -69.3605 289.722 -74.5399 296.105C-76.8605 298.966 -79.1897 301.87 -81.0134 304.96C-82.2849 307.116 -85.9029 312.505 -83.5513 314.723C-81.9209 316.259 -76.3204 315.685 -73.9705 316.291C-69.6952 317.393 -66.1168 319.498 -62.5005 321.567C-54.4415 326.178 -46.2807 331.055 -38.7134 336.172C-36.7862 337.474 -34.9539 338.87 -32.9507 340.099C-31.6205 340.914 -29.105 341.684 -28.1164 342.666C-26.8845 343.889 -27.3193 344.5 -27.7834 346.038C-29.8296 352.826 -33.5581 359.098 -34.2758 366.157C-36.0736 383.84 -23.6219 400.002 -7.77813 411.385C-1.64803 415.776 6.83543 422.116 12.6188 428.112C16.4956 432.132 19.8565 436.45 22.5705 441.044C25.0619 445.261 27.2582 449.596 30.9625 453.254C34.4477 456.695 38.7886 459.167 44.4701 459.123C50.0085 459.08 56.0454 457.652 60.9419 455.625C66.1179 453.483 70.445 450.13 74.8394 447.113C79.5807 443.851 84.4961 440.308 87.826 436.024ZM198.008 291.812C198.919 290.956 200.282 288.389 201.574 288.037C203.651 287.474 205.615 291.909 206.127 293.336C208.218 299.174 206.927 305.598 207.811 311.597C208.765 318.072 210.877 323.911 208.813 330.434C206.577 337.506 202.524 342.96 195.105 347.27C180.733 355.618 164.417 361.725 150.411 370.545C147.219 372.555 144.381 374.925 141.349 377.088C138.77 378.929 136.056 381.907 132.933 383.101C126.755 385.463 117.212 378.197 113.782 374.678C107.985 368.729 104.11 361.835 99.9396 355.119C95.6866 348.267 92.3723 339.787 85.8298 334.091C96.7115 333.929 107.336 334.091 117.686 330.97C123.1 329.337 127.968 327.024 132.429 324.078C134.291 322.851 136.227 321.581 137.793 320.103C138.92 319.041 139.991 315.977 141.235 315.285C142.077 314.815 145.575 315.265 146.475 315.213C149.01 315.064 151.532 314.771 153.998 314.271C159.353 313.183 164.496 311.353 169.393 309.33C180.335 304.808 189.969 299.353 198.008 291.812ZM9.33544 244.612C10.7019 240.429 8.27609 236.057 9.19052 231.766C10.1981 227.04 14.8203 225.156 20.1222 224.11C32.7914 221.609 41.9339 216.082 49.1182 207.343C49.7738 211.81 53.3297 215.978 56.1368 219.75C59.2752 223.967 62.7362 228.074 64.9222 232.689C65.9902 234.945 69.5685 241.09 67.2048 242.895C66.72 243.266 63.6679 244.345 62.9605 244.482C61.3197 244.799 59.3442 244.128 57.3963 244.149C53.2331 244.192 50.5847 246.751 47.1927 247.784C41.9356 249.384 37.7586 251.733 34.672 255.643C32.1409 258.852 29.9307 262.684 29.9083 266.557C29.8962 268.773 30.1102 271.201 31.2265 273.258C32.2738 275.192 32.6602 276.604 33.4522 278.641C29.0008 277.884 24.3838 277.678 19.8496 277.956C16.1557 278.183 12.7999 279.029 9.17672 278.362C7.21846 278 5.29127 277.758 3.2709 277.938C1.80437 278.069 0.439629 278.618 -1.02518 278.373C-4.16874 277.848 -7.01554 274.735 -8.31989 272.592C-11.096 268.034 -12.6746 260.41 -8.19221 256.255C-5.48689 253.747 -1.56349 253.318 1.83024 251.706C5.14288 250.135 8.33302 247.684 9.33544 244.612ZM-11.9759 255.685C-12.5608 252.304 -11.6981 248.607 -11.4738 245.22C-11.1943 241.011 -10.5973 236.868 -9.54832 232.732C-7.87476 226.139 -4.43271 220.067 0.344734 214.541C6.21604 207.752 14.7237 202.897 22.3307 197.46C29.9256 192.032 36.3887 185.898 43.4729 180.081C46.5215 177.577 50.0809 174.631 54.1268 173.173C58.9112 171.449 59.9153 174.097 57.7224 177.16C55.6227 180.096 53.29 182.759 52.065 186.049C50.7314 189.63 50.7176 193.228 50.4708 196.92C50.0723 202.878 44.4581 208.502 39.3977 212.715C36.2627 215.327 32.5619 217.618 28.4366 219.131C23.9956 220.76 19.0232 220.936 14.558 222.46C10.7381 223.764 7.55317 226.42 6.2747 229.604C4.62183 233.718 6.17636 237.471 6.20914 241.58C6.27815 250.141 -7.17255 249.821 -11.9759 255.685ZM72.8985 249.901C71.9323 248.323 68.2832 246.596 66.3439 246.005C71.5751 244.027 77.6069 246.644 80.238 250.479C80.9885 251.573 81.6286 256.176 84.2011 255.272C85.9575 254.655 84.9999 252.149 84.5462 251.146C88.718 250.29 93.1073 251.859 93.9734 255.527C94.3616 257.168 93.2108 258.147 93.1107 259.613C92.9761 261.553 95.5089 262.38 96.5252 260.305C97.9227 261.191 99.2529 262.207 100.169 263.443C101.33 265.007 100.902 266.262 101.563 267.854C102.93 271.146 105.297 268.175 104.89 265.858C108.932 267.796 109.439 272.504 106.815 275.316C105.977 276.216 103.176 277.682 104.986 278.968C106.306 279.906 108.085 278.4 108.918 277.66C109.947 280.831 108.112 283.621 105.516 285.822C103.13 287.846 104.658 290.084 107.748 288.024C107.483 290.599 104.18 297.124 100.193 295.687C99.1459 295.309 97.9813 293.571 97.1584 292.925C96.1111 292.102 94.9965 291.301 93.7388 290.69C92.0962 289.892 90.3485 289.439 88.4282 289.344C79.6255 288.903 72.0996 295.366 64.0061 290.252C59.3787 287.327 54.2131 285.227 48.8559 283.295C46.1644 282.324 43.4418 281.372 40.6744 280.549C39.4391 280.18 38.1295 280.011 37.3014 279.227C33.2468 275.386 38.6351 271.279 40.2034 268.095C40.9625 266.552 40.0895 265.158 37.8276 266.062C36.1023 266.752 34.4925 269.788 33.8714 271.05C32.8569 268.026 32.9691 264.474 34.9963 261.746C36.0971 260.265 37.4601 259.722 38.9663 258.64C39.936 257.944 41.2317 255.745 38.5764 255.885C41.7596 252.194 48.2779 248.687 53.9267 250.711C55.2259 251.176 58.5005 253.168 59.0578 250.855C59.465 249.168 55.5623 248.098 54.0871 247.71C57.5671 246.172 61.7235 247.201 64.9947 248.577C66.6079 249.256 67.9416 250.166 69.4288 250.98C70.4743 251.556 74.465 252.459 72.8985 249.901ZM0.983109 285.476C10.9883 280.935 22.9362 279.27 34.1751 281.71C39.5943 282.888 44.9549 284.705 50.0188 286.636C52.9277 287.745 55.7762 288.97 58.4591 290.404C61.1783 291.857 63.6127 294.078 66.7856 294.876C71.4975 296.062 76.5216 294.371 80.9626 293.243C86.9478 291.722 90.9627 291.705 95.4434 295.489C99.6929 299.079 102.559 303.642 107.89 306.361C111.561 308.232 115.711 307.349 118.977 309.182C122.657 311.247 127.355 311.107 131.696 311.626C133.392 311.828 136.822 311.896 137.674 313.349C138.751 315.186 135.849 317.683 134.479 318.91C127.164 325.458 116.527 329.362 105.837 330.674C95.7798 331.909 84.8274 331.648 74.7273 331.097C63.0485 330.461 50.9712 328.998 40.3086 325.004C28.1899 320.464 16.4524 314.208 6.25745 307.265C1.3368 303.914 -3.70808 300.232 -6.61008 295.509C-9.57594 290.681 -3.67529 287.59 0.983109 285.476ZM166.099 205.059C182.45 208.177 192.036 218.493 201.096 229.01C205.266 233.85 209.132 238.748 213.123 243.689C214.117 244.92 215.068 246.172 216.172 247.342C217.19 248.42 219.371 249.733 219.933 251.009C220.918 253.243 218.223 255.949 217.022 257.883C212.314 265.451 206.924 275.942 200.711 284.001C192.578 294.551 180.614 301.625 167.045 307.202C160.64 309.835 153.849 311.875 146.643 312.471C145.607 312.556 144.469 312.623 143.428 312.61C141.332 312.583 141.639 312.321 140.259 311.381C137.692 309.632 134.924 309.132 131.503 308.771C128.851 308.491 125.6 308.706 123.102 307.961C121.037 307.345 120.067 306.119 117.845 305.712C115.388 305.262 113.14 305.545 110.806 304.531C107.524 303.104 105.321 300.864 103.056 298.557C109.443 296.129 110.83 290.491 111.084 285.483C111.199 283.202 112.831 281.159 112.629 278.809C112.436 276.557 111.096 274.876 111.836 272.548C113.076 268.652 120.994 265.217 125.525 263.792C131.97 261.762 138.986 261.277 145.814 260.724C152.552 260.179 159.693 260.298 166.249 258.858C169.743 258.092 173.252 257.038 176.482 255.722C177.918 255.138 181.265 254.064 182.216 252.905C183.232 251.668 182.685 250.452 180.656 250.592C178.722 250.725 175.721 252.947 173.917 253.594C167.742 255.806 161.713 256.925 154.986 257.334C147.284 257.805 139.557 258.258 131.964 259.461C123.647 260.778 117.588 263.851 111.173 268.171C109.477 264.25 105.083 263.763 102.333 260.935C101.106 259.674 98.7319 258.827 97.757 257.516C96.8754 256.331 97.3516 254.357 96.627 253.013C95.5521 251.02 94.9482 250.829 95.7798 248.636C96.5717 246.549 97.6552 244.5 98.9044 242.565C101.555 238.46 105.483 234.93 110.074 232.145C114.753 229.308 120.055 227.097 124.912 224.453C129.62 221.891 133.656 218.928 137.709 215.738C141.567 212.703 145.471 208.862 150.13 206.61C154.902 204.305 160.777 204.243 166.099 205.059ZM37.1495 167.788C39.4425 159.646 43.6713 152.79 52.1634 147.717C60.3121 142.849 69.9326 140.584 79.7549 138.957C89.4806 137.345 98.9751 136.306 108.318 133.407C112.295 132.174 116.004 130.085 120.014 129.015C121.9 128.512 121.737 128.463 123.213 129.732C125.109 131.363 126.839 133.158 128.651 134.855C141.284 146.697 157.09 158.107 163.591 173.169C166.384 179.64 167.697 186.426 165.64 193.162C164.917 195.532 163.463 200.507 160.727 201.706C159.32 202.322 156.429 201.955 154.74 202.262C152.253 202.715 149.874 203.487 147.716 204.578C138.387 209.296 132.114 217.34 122.843 222.266C113.559 227.201 102.626 231.465 96.9944 239.611C102.203 227.714 109.429 216.309 112.604 203.884C116.08 190.276 115.192 176.174 116.796 162.392C117.134 159.495 117.519 156.543 118.233 153.688C118.446 152.843 119.916 150.654 119.662 149.831C119.239 148.462 117.69 148.665 116.627 149.374C114.329 150.903 114.407 154.879 114.101 157.003C113.615 160.393 113.081 163.774 112.728 167.174C111.368 180.251 112.471 193.485 108.301 206.301C105.878 213.745 102.131 220.864 98.687 228.029C97.0065 231.526 95.3882 235.038 93.7957 238.562C92.6017 241.206 88.9975 245.338 89.1942 248.157C87.1773 247.839 84.5979 248.944 82.8881 248.503C82.1807 248.321 80.8229 246.393 80.1448 245.919C78.8198 244.993 77.0323 244.014 75.4381 243.435C72.524 242.373 71.7476 242.848 71.161 240.2C70.5157 237.283 69.3494 234.408 68.0261 231.648C65.3277 226.019 61.073 220.989 57.2756 215.816C54.0923 211.481 50.947 206.9 52.7327 201.704C54.565 196.371 53.4833 190.753 55.9263 185.487C57.5999 181.881 62.6379 178.334 62.5447 174.307C62.4326 169.471 56.5492 169.154 52.3342 170.848C45.7365 173.5 40.3345 178.694 35.4794 183.011C35.9332 177.996 36.0281 172.735 37.1495 167.788ZM-30.9735 246.524C-32.0674 242.514 -34.9056 238.989 -35.9252 234.941C-37.0225 230.587 -36.5601 226.47 -34.1585 222.441C-29.1654 214.064 -14.783 209.209 -16.5739 198.504C-17.2036 194.743 -21.0528 190.214 -19.3707 186.379C-17.5228 182.167 -7.90582 181.96 -3.37164 181.53C8.03626 180.445 22.7033 181.531 32.8328 176.454C32.6792 179.35 32.8483 183.725 31.2592 186.361C29.5425 189.209 24.8376 191.874 21.9839 193.961C14.6512 199.323 6.41446 204.071 0.0824814 210.247C-5.53348 215.725 -9.54315 222.247 -11.9483 229.057C-14.5898 236.54 -14.5639 243.995 -15.4438 251.663C-19.0394 250.668 -22.9714 250.506 -26.7447 250.474C-27.4745 250.469 -29.7416 250.765 -30.3938 250.355C-31.0425 249.946 -30.8044 247.144 -30.9735 246.524ZM-80.7425 313.199C-80.7408 313.194 -80.5872 313.408 -80.7425 313.199V313.199ZM-28.6184 339.167C-33.4149 336.597 -37.5643 333.301 -42.1744 330.526C-46.8155 327.731 -51.4084 324.896 -55.9512 321.999C-63.0768 317.454 -71.122 312.63 -80.6821 312.786C-77.492 301.53 -66.0133 293.473 -61.6068 282.623C-59.1827 276.655 -57.4022 270.433 -55.4008 264.362C-53.8187 259.563 -52.2469 253.837 -45.0988 252.898C-38.3045 252.007 -29.8589 253.006 -22.9783 253.482C-21.5601 253.581 -16.831 253.446 -15.6439 254.516C-14.6691 255.394 -14.557 259.234 -14.4241 260.366C-13.8064 265.612 -13.8944 270.538 -10.3886 275.239C-8.89787 277.239 -6.78434 279.09 -4.22913 280.248C-0.775009 281.815 1.65771 280.619 5.2119 280.661C-0.217728 282.538 -7.64874 285.35 -10.2229 289.953C-13.0197 294.954 -7.43652 300.194 -3.54417 303.691C6.04351 312.3 19.8496 319.634 32.5998 324.869C25.1171 332.754 16.6905 342.207 4.12666 344.977C-6.43065 347.302 -19.752 343.915 -28.6184 339.167ZM74.1942 443.862C69.3391 447.251 64.6997 451.038 58.8663 453.354C54.0216 455.276 46.2662 457.396 40.8055 455.998C34.917 454.489 31.2782 449.216 28.723 445.079C25.7227 440.223 22.9639 435.294 19.3061 430.721C11.392 420.828 0.0307236 413.704 -10.4973 405.746C-19.9228 398.622 -27.5746 387.662 -30.1954 377.437C-33.163 365.853 -27.3986 355.449 -23.8513 344.449C-14.2309 347.921 -2.76431 350.001 7.41688 347.028C18.7713 343.711 26.6164 335.579 33.7472 328.202C35.5018 326.386 34.9877 326.107 37.4515 326.725C39.4632 327.229 41.3801 328.393 43.3625 329.043C46.0022 329.91 48.7127 330.619 51.4853 331.153C52.8725 331.42 56.9253 331.384 57.9553 332.202C59.0147 333.042 58.0451 337.258 57.9433 338.328C57.7569 340.276 57.4274 342.218 56.9753 344.136C55.8591 348.866 53.7438 353.222 50.8901 357.438C45.6209 365.219 39.7513 373.006 38.0088 381.915C36.2955 390.671 38.0053 399.727 41.9218 407.936C43.8835 412.049 44.5426 415.992 44.967 420.344C45.0654 421.345 45.0533 423.584 47.134 423.258C49.201 422.932 48.5367 420.352 48.4522 419.264C47.7172 409.951 41.6768 401.77 40.985 392.439C40.1568 381.267 44.9118 371.6 51.6699 362.041C58.2452 352.742 61.7994 343.278 61.5302 332.509C65.2362 332.93 68.9388 333.381 72.6621 333.684C75.7849 333.939 79.4461 333.661 82.1462 335.185C87.3567 338.124 89.5238 344.622 92.1808 348.988C93.7457 351.558 95.4278 354.087 97.0531 356.634C98.1608 358.37 101.175 361.49 101.249 363.507C101.322 365.496 98.8009 367.997 97.9123 369.874C96.6425 372.554 95.8178 375.312 95.3364 378.149C93.3005 390.133 93.1245 402.298 91.8202 414.338C91.2146 419.923 90.2553 425.4 87.4568 430.587C84.56 435.957 79.629 440.075 74.1942 443.862Z" fill="#B6B4CA"/>
</svg>
