<svg width="376" height="693" viewBox="0 0 376 693" fill="none" xmlns="http://www.w3.org/2000/svg">
<path d="M262.301 37.8393C262.259 37.8319 262.097 37.7919 262.301 37.8393V37.8393Z" fill="#B6B4CA"/>
<path d="M50.7991 148.52C53.2525 156.472 56.7446 164.229 59.4896 172.126C62.2553 180.082 65.4644 188.035 70.8371 195.136C76.0632 202.043 82.4037 205.887 92.4503 207.108C103.144 208.408 114.69 208.686 125.311 206.913C121.284 211.47 117.314 216.125 114.526 221.265C111.593 226.673 110.554 232.472 109.793 238.296C108.308 249.655 108.551 261.281 114.526 271.885C117.409 277.001 121.778 281.497 125.799 286.058C130.021 290.847 133.427 295.885 137.199 300.888C138.915 303.163 140.839 305.278 142.911 307.35C144.53 308.971 146.013 311.334 148.336 312.368C152.214 314.093 158.591 311.637 162.118 310.342C176.46 305.075 188.6 295.615 198.51 285.947C199.706 293.117 209.428 298.775 216.445 302.529C219.578 304.206 223.445 305.919 226.623 303.417C229.578 301.088 230.627 296.808 231.818 293.74C234.73 286.24 238.489 278.793 244.116 272.321C250.657 264.795 258.065 257.755 265.082 250.519C268.716 256.741 275.165 263.938 282.116 268.006C289.245 272.178 298.158 274.208 306.443 276.377C315.784 278.821 325.345 280.616 334.164 284.194C342.339 287.511 350.141 291.785 359.254 293.28C368.053 294.723 376.627 294.984 383.611 289.885C390.227 285.054 394.258 278.324 398.292 272.041C407.826 257.192 416.711 241.751 424.215 226.167C431.456 211.126 435.012 194.433 431.28 178.437C429.65 171.452 425.7 164.611 418.99 159.845C417.35 158.68 415.612 157.588 413.809 156.587C412.871 156.066 410.196 155.207 409.779 154.288C408.868 152.282 412.91 146.484 413.806 144.358C420.067 129.487 428.178 115.362 433.302 100.17C435.864 92.5754 438.418 85.0592 441.209 77.5196C442.709 73.4723 444.398 66.3742 436.535 67.5867C431.333 68.3896 426.575 71.2534 422.22 73.5304C413.085 78.31 403.889 83.0259 395.329 88.4644C379.261 98.6754 361.119 109.761 339.206 108.116C344.672 105.664 348.478 100.842 353.333 97.6857C358.907 94.062 364.373 90.8064 370.726 88.0975C383.802 82.522 397.515 77.7591 409.575 70.8022C432.536 57.5583 448.621 33.9664 442.16 11.1565C439.108 0.380615 435.171 -11.0624 425.95 -19.5585C420.876 -24.2343 416.49 -26.0587 408.851 -26.186C406.616 -26.2234 403.923 -26.0558 401.891 -26.9486C399.432 -28.0283 399.097 -30.2652 397.677 -32.0259C389.689 -41.9394 372.244 -40.5566 359.525 -39.9019C355.764 -39.7081 352.006 -39.4547 348.26 -39.1225C345.05 -38.8374 340.479 -37.5501 337.493 -38.508C334.924 -39.3315 332.156 -41.6237 330.015 -43.019C327.235 -44.8295 324.587 -46.7673 322.073 -48.8117C316.63 -53.2383 311.99 -58.3488 305.905 -62.2508C299.958 -66.0642 292.905 -68.5225 285.465 -69.7184C277.296 -71.0306 268.648 -72.3941 260.298 -71.9234C251.813 -71.4445 243.672 -69.6603 235.125 -69.6382C230.827 -69.5952 223.313 -71.9262 217.849 -71.9359C211.331 -71.9483 206.366 -66.5293 203.087 -62.6301C198.767 -57.4906 196.039 -51.6341 193.565 -45.8012C192.245 -42.6895 191.119 -39.553 189.987 -36.3943C188.929 -33.446 187.159 -30.3925 187.389 -27.2656C174.461 -34.3554 160.751 -42.1899 144.745 -43.6405C129.128 -45.0551 113.365 -38.7668 99.8883 -33.1304C96.1909 -31.5843 93.2803 -31.3407 89.2654 -30.787C86.0269 -30.3399 81.9362 -29.6672 79.7916 -27.5107C75.2057 -22.8986 76.0217 -14.8426 76.07 -9.33218C76.1839 3.68188 79.9417 17.4821 85.7871 29.5979C92.459 43.4314 105.999 56.0634 119.716 65.7915C108.905 64.8502 98.9152 66.4143 90.8803 72.5435C82.0552 79.2761 75.3075 86.2427 70.1591 95.1416C67.6987 99.3938 65.8871 103.92 63.2042 108.081C60.7025 111.959 57.873 115.583 55.5869 119.568C53.0179 124.046 50.5127 128.6 49.3619 133.47C48.1127 138.743 49.2187 143.4 50.7991 148.52ZM194.041 285.399C185.044 293.99 174.502 302.013 161.81 306.961C159.135 308.005 155.546 309.622 152.497 309.802C149.252 309.993 148.163 307.58 146.333 305.777C141.433 300.95 138.079 295.552 133.983 290.296C130.007 285.198 125.418 280.446 121.334 275.409C117.095 270.181 114.987 264.554 113.775 258.425C111.493 246.87 112.537 232.591 118.475 221.783C120.073 218.875 122.135 216.188 124.36 213.567C126.436 211.122 128.572 207.757 131.564 205.944C134.193 204.349 138.18 203.778 141.212 202.676C145.382 201.16 149.555 199.647 153.441 197.689C157.318 204.803 161.279 215.232 173.168 214.332C183.484 213.551 192.706 208.19 199.412 202.172C206.56 195.758 210.912 187.858 217.573 181.184C221.11 177.64 224.975 174.541 229.475 171.784C231.566 170.502 233.752 169.357 235.981 168.236C237.491 167.478 240.217 165.433 241.926 165.187C242.353 167.292 241.064 170.116 243.151 171.825C245.327 173.605 249.34 172.57 251.954 172.098C252.056 175.178 251.564 181.365 256.221 182.638C259.92 183.65 261.488 180.429 262.703 178.314C263.155 177.527 263.617 176.757 264.126 175.992C264.207 175.868 265.211 174.455 264.649 175.221C265.488 174.077 268.793 167.066 270.477 166.954C272.611 166.81 273.607 171.919 273.962 172.858C276.461 179.465 277.12 185.43 275.684 192.268C273.013 204.99 269.475 218.217 260.451 229.112C251.255 240.213 236.68 245.274 224.632 253.844C212.192 262.691 204.685 275.237 194.041 285.399ZM228.027 99.5696C230.087 99.9295 233.5 96.0912 235.318 95.3091C234.93 96.5922 233.762 100.001 236.935 99.7219C239.133 99.5281 239.023 96.0261 239.67 94.7098C241.702 90.5738 246.288 86.1251 252.006 85.1645C250.977 85.9119 248.864 87.1729 249.404 88.4906C250.222 90.4852 252.435 88.9931 253.564 88.3578C257.037 86.4047 260.041 83.8785 264.428 83.2404C266.661 82.9151 268.831 82.9885 270.919 83.7208C273.322 84.5637 273.79 84.8489 276.54 84.6994C281.73 84.4156 287.063 85.8898 290.624 89.0595C288.396 89.425 284.68 91.3407 288.745 92.3539C290.187 92.7124 292.334 91.94 293.821 91.8777C296.116 91.7836 298.415 91.9497 300.346 93.0681C298.207 93.6425 285.167 99.2139 289.34 101.867C291.202 103.051 293.985 99.8215 295.187 99.0478C297.903 97.3009 300.826 95.8019 304.38 95.7493C306.842 95.7119 310.843 96.2684 312.92 97.4726C314.016 98.1079 316.181 100.006 316.697 100.955C318.509 104.291 317.094 110.553 315.224 113.681C314.399 115.06 311.035 116.472 311.342 117.856C311.666 119.32 315.224 119.182 316.421 120.375C317.487 121.438 319.301 124.715 319.099 126.215C318.842 128.132 318.29 127.361 316.2 127.458C314.861 127.52 312.422 127.868 311.673 128.975C310.636 130.509 313.36 132.467 313.502 134.23C313.697 136.645 312.448 139.074 311.763 141.383C310.874 144.378 311.176 147.205 310.891 150.244C308.478 148.323 305.546 146.114 302.075 145.56C300.515 145.311 299.43 145.533 298.001 145.869C298.013 145.866 295.595 146.725 295.783 146.574C293.876 148.106 294.464 152.204 293.657 154.253C292.634 156.85 291.178 159.485 288.821 161.485C288.198 159.035 286.921 154.938 282.767 155.974C280.622 156.508 279.157 158.604 277.943 159.972C277.196 160.815 275.21 164.155 273.817 164.345C271.813 164.619 271.012 163.061 268.509 164.284C266.328 165.351 265.398 167.583 264.29 169.314C263.153 171.092 261.875 172.802 260.693 174.559C259.818 175.86 259.028 178.749 257.535 179.651C255.701 177.837 255.786 174.419 255.762 172.218C255.736 169.764 256.079 168.3 252.487 168.766C250.845 168.979 247.064 170.195 245.926 169.253C244.425 168.01 246.928 164.544 244.74 162.895C243.139 161.688 240.486 162.378 238.562 161.661C235.741 160.609 234.58 158.154 233.96 155.853C233.605 154.533 234.204 151.328 232.018 150.877C230.296 150.521 230.346 151.443 229.601 152.123C229.756 151.982 228.728 153.856 229.532 153.227C227.271 155.02 224.828 157.653 221.469 158.071C220.877 154.976 220.674 151.753 221.302 148.651C221.899 145.706 223.653 143.908 225.21 141.361C226.512 139.231 225.424 137.146 222.459 138.885C219.563 140.583 218.086 145.205 217.641 147.868C209.399 145.865 217.822 136.578 219.15 132.7C219.977 130.286 218.343 129.31 215.267 129.831C213.46 130.135 212.109 130.831 210.172 130.988C208.187 131.148 206.174 131.2 204.181 131.255C206.191 124.904 211.124 118.896 217.765 115.024C219.48 114.025 226.36 112.628 226.497 110.799C226.761 107.255 219.342 110.582 218.036 111.176C215.869 112.162 211.919 113.54 209.376 112.322C207.506 111.428 210.028 108.408 211.219 106.969C213.151 104.634 216.316 102.584 219.649 101.669C221.78 101.091 228.778 102.98 228.027 99.5696ZM251.923 14.1712C269.511 23.52 285.015 34.6169 304.019 42.2853C313.502 46.1112 322.558 50.0588 330.973 55.2689C335.155 57.8587 339.202 60.4707 342.96 63.4563C346.576 66.3299 350.854 68.9335 354.059 72.1061C343.592 72.92 332.584 72.0452 322.905 68.5972C313.348 65.1935 306.347 59.3038 298.945 53.601C282.736 41.1101 262.008 37.2635 240.408 34.9353C235.334 34.3885 230.273 34.0107 225.163 33.792C222.497 33.6771 219.832 33.5663 217.176 33.3421C215.694 33.2175 211.605 32.1365 210.413 33.0417C206.448 36.0523 216.643 36.4537 218.082 36.5534C223.85 36.9492 229.623 37.0282 235.379 37.5735C255.703 39.4962 276.904 42.158 292.917 53.3145C301.497 59.2927 308.252 66.0752 318.592 70.3053C329.539 74.7831 342.191 76.1521 354.347 75.2081C347.187 86.4974 331.808 91.6023 320.136 99.1696C319.218 96.7722 315.412 94.9631 312.631 94.0218C310.458 93.2868 307.789 93.4211 305.724 92.664C303.786 91.9552 302.522 90.4188 300.553 89.6658C298.785 88.9903 296.512 89.1799 294.942 88.3605C293.374 87.5425 292.303 85.8275 290.733 84.8849C286.925 82.5996 281.116 80.8804 276.321 81.4687C277.596 75.5527 278.417 67.4622 276.518 61.9144C276.086 60.6312 274.389 59.1363 272.894 60.6312C271.73 61.7953 273.151 64.8765 273.276 66.2676C273.707 71.133 273.597 76.0192 272.536 80.8306C268.897 79.4852 264.694 79.7094 261.033 80.843C260.046 81.1489 258.129 82.266 257.09 82.3795C256.034 82.4944 255.134 82.0168 254.105 81.9435C250.244 81.6653 246.416 83.5685 243.476 85.3845C241.725 86.4656 240.206 87.656 238.964 89.126C238.227 89.9966 237.837 91.3213 236.414 91.6023C235.779 79.2568 226.738 70.9932 215.204 63.6293C206.198 57.8795 189.528 53.6176 188.212 42.8431C187.532 37.2759 192.618 33.5193 197.351 30.099C202.539 26.3492 208.231 23.041 214.323 20.3003C220.415 17.5583 226.923 15.4862 233.445 13.5082C240.075 11.4956 245.81 10.9225 251.923 14.1712ZM246.897 11.969C247.021 11.9966 247.145 12.0229 247.27 12.0506C246.89 11.9759 246.766 11.9496 246.897 11.969ZM370.967 146.329C371.149 147.282 371.378 148.253 371.518 149.212C371.542 149.375 371.668 150.647 371.666 149.73C371.644 157.406 371.292 165.116 371.602 172.787C371.897 180.062 373.519 187.771 370.724 194.628C370.239 195.817 369.082 196.835 368.588 198.076C367.803 200.049 367.453 202.233 367.085 204.273C366.256 208.885 365.943 213.546 365.578 218.193C365.245 222.421 365.231 226.651 364.974 230.883C364.818 233.432 365.117 236.568 363.897 238.962C362.348 242.002 358.819 240.856 355.49 240.38C350.094 239.606 344.644 239.128 339.228 238.461C327.891 237.063 316.906 236.097 305.42 235.886C296.171 235.718 286.421 235.932 282.627 227.897C278.912 220.034 282.006 212.452 284.816 204.841C286.428 200.476 287.637 195.493 288.045 190.944C288.478 186.082 286.369 181.836 283.638 177.599C282.322 175.556 280.929 173.544 279.604 171.504C278.983 170.548 276.702 168.128 276.721 167.022C276.752 165.271 281.997 160.082 283.907 159.015C285.337 160.674 284.194 164.185 286.631 165.145C288.888 166.035 291.207 164.05 292.532 162.811C296.561 159.048 298.88 153.47 298.712 148.535C300.446 148.838 301.939 151.839 302.853 152.948C304.494 154.935 306.007 156.894 307.175 159.096C308.7 161.968 311.083 167.363 311.716 169.209C314.58 177.68 318.931 186.675 324.746 194.134C326.407 196.266 328.992 200.908 331.671 202.371C332.777 202.975 334.572 203.495 335.279 202.13C335.874 200.982 333.938 199.426 333.222 198.615C326.989 191.558 322.234 184.081 318.612 175.921C314.754 167.23 312.039 158.303 305.505 150.557C307.382 151.887 310.215 154.865 313.122 153.477C315.308 152.433 314.853 149.838 314.896 148.138C315.029 142.84 319.63 135.553 316.407 130.614C318.754 130.689 321.069 129.742 323.122 130.099C325.332 130.483 327.532 131.627 329.836 132.058C335.491 133.114 341.375 133.409 347.144 133.823C352.363 134.196 357.674 134.526 362.37 136.56C367.325 138.707 369.268 141.225 370.724 145.357C370.693 145.324 370.936 146.161 370.967 146.329ZM276.578 166.453C276.625 166.593 276.576 166.455 276.578 166.453V166.453ZM241.769 164.896C242.042 165.119 241.797 164.917 241.769 164.896V164.896ZM215.27 100.069C210.703 102.083 207.066 105.484 205.358 109.45C203.441 113.899 206.224 115.239 211.272 115.518C206.378 119.491 201.742 124.716 200.487 130.347C199.197 136.142 210.122 134.761 214.48 133.543C212.452 137.312 209.545 141.795 210.467 146.046C210.822 147.691 211.766 148.942 213.531 149.842C214.816 150.498 216.488 150.53 217.228 151.435C218.039 152.426 217.294 155.76 217.477 157.111C217.679 158.599 217.691 160.302 219.609 161.069C223.317 162.548 227.979 158.742 230.327 156.945C231.234 159.874 232.879 162.867 236.331 164.387C229.28 168.059 222.356 171.919 216.776 177.02C211.167 182.147 207.447 188.25 202.62 193.823C198.365 198.735 193.224 203.566 186.959 206.888C183.067 208.952 170.718 214.555 168.365 209.022C165.882 203.187 168.76 196.223 170.994 190.715C173.717 184.009 177.142 177.502 179.873 170.797C185.463 157.067 187.773 141.643 183.434 127.475C181.131 119.954 178.072 112.463 173.997 105.45C171.966 101.953 169.854 98.5232 167.373 95.215C165.308 92.4591 163.277 89.0028 159.276 87.7819C168.503 86.5196 179.39 92.2653 187.873 94.5686C197.192 97.0989 206.926 98.3695 216.638 99.4824C216.181 99.6762 215.725 99.8728 215.27 100.069ZM208.546 112.282C208.703 112.315 208.546 112.281 208.546 112.282V112.282ZM208.489 112.239C208.483 112.239 208.424 112.044 208.489 112.239V112.239ZM208.401 112.228C208.395 112.227 208.307 112.095 208.401 112.228V112.228ZM163.6 96.1687C176.307 112.89 183.777 132.931 181 152.533C179.559 162.703 175.035 172.227 170.746 181.797C166.852 190.485 162.884 198.8 164.295 208.15C159.961 203.54 157.273 197.397 154.676 192.051C151.983 186.507 149.637 180.912 146.726 175.428C143.641 169.619 140.565 163.905 137.911 157.963C135.615 152.819 132.49 147.7 131.053 142.341C129.348 135.982 131.22 130.404 133.979 124.464C136.607 118.807 139.519 113.115 142.53 107.581C145.139 102.785 147.675 96.1701 152.045 92.2238C156.966 87.7764 161.015 92.7691 163.6 96.1687ZM263.565 246.946C252.568 259.375 239.211 270.014 231.857 284.315C230.129 287.677 228.852 291.167 227.337 294.591C226.73 295.965 225.57 300.78 223.543 301.508C221.238 302.337 216.781 298.885 215.089 297.881C211.628 295.828 208.37 293.55 205.655 290.861C203.605 288.83 200.977 285.299 202.063 282.489C202.437 281.52 203.707 280.782 204.468 280.007C206.095 278.352 207.544 276.556 209.023 274.817C214.19 268.73 218.872 262.329 225.655 257.279C232.378 252.272 240.436 248.733 247.691 244.275C254.54 240.067 260.384 235.186 264.968 229.301C270.6 222.072 273.641 214.122 276.002 205.869C278.536 197.009 282.173 187.479 279.73 178.353C283.742 184.246 284.773 189.126 283.214 195.701C281.766 201.805 278.981 207.653 277.696 213.752C277.106 216.551 276.811 219.507 277.18 222.345C277.632 225.817 276.908 227.089 274.979 230.148C271.388 235.844 268.191 241.715 263.565 246.946ZM409.399 157.953C420.769 164.247 426.78 172.336 428.356 183.414C429.991 194.918 428.093 207.547 423.476 218.497C418.725 229.764 412.595 240.692 406.402 251.488C401.382 260.241 395.7 270.135 389.936 277.957C387.006 281.931 383.461 286.802 378.124 289.41C372.477 292.17 364.378 291.052 358.288 289.868C350.545 288.362 343.719 284.729 336.754 281.786C329.958 278.915 322.786 277.185 315.451 275.448C307.767 273.629 299.837 271.708 292.513 269.081C285.465 266.553 280.641 263.048 275.984 258.19C273.848 255.963 271.54 253.785 269.828 251.323C268.267 249.076 267.347 248.171 269.171 245.943C273.296 240.9 276.159 235.261 279.47 229.868C283.227 237.048 291 238.389 299.879 238.827C309.302 239.29 318.709 238.923 328.067 240.139C337.777 241.401 347.451 242.817 357.227 243.761C360.236 244.052 363.343 244.514 365.678 242.568C368.514 240.202 368.476 235.91 368.706 232.866C369.261 225.49 369.575 218.119 370.236 210.743C370.817 204.246 371.649 196.588 376.944 191.352C382.412 185.943 388.478 180.947 394.001 175.585C399.756 169.995 403.951 163.509 407.733 156.959C408.273 157.302 408.83 157.635 409.399 157.953ZM438.444 70.2457C438.447 70.2527 438.316 70.1876 438.444 70.2457V70.2457ZM421.879 77.4006C423.994 76.2794 436.858 68.8173 438.742 70.9281C439.499 71.778 437.762 75.8669 437.488 76.6794C436.635 79.2125 435.355 81.6306 434.394 84.136C429.72 96.3182 426.903 108.687 421.106 120.642C418.274 126.481 415.083 132.18 412.476 138.091C409.67 144.452 407.041 150.854 403.499 156.984C400.293 162.53 396.568 168.009 391.804 172.801C386.815 177.82 381.2 182.443 376.13 187.421C376.138 182.715 375.633 178.05 375.617 173.355C375.617 174.171 375.5 170.258 375.493 169.757C375.453 167.27 375.478 164.777 375.484 162.29C375.493 159.3 375.638 156.31 375.614 153.32C375.6 151.478 374.92 149.318 375.236 147.509C375.538 145.778 377.136 143.581 377.598 141.686C378.197 139.239 378.742 136.799 379.498 134.378C381 129.562 382.662 124.472 386.376 120.411C389.644 116.84 393.918 114.743 398.935 113.078C405.541 110.885 403.697 107.289 404.577 102.339C406.221 93.0986 411.82 82.7352 421.879 77.4006ZM340.558 111.298C368.254 112.812 387.698 96.0801 408.528 84.5886C404.587 89.5204 402.465 95.0309 401.066 100.742C400.591 102.677 400.409 104.507 400.388 106.477C400.379 107.375 400.754 108.521 400.064 109.316C398.899 110.654 394.377 111.042 392.607 111.843C379.277 117.881 376.152 130.728 373.619 141.825C370.688 134.956 360.283 131.63 352.011 130.986C346.663 130.571 341.338 130.365 336.009 129.749C332.717 129.368 326.318 129.08 323.667 127.134C321.742 125.721 321.632 121.776 320.357 119.775C319.867 119.005 317.603 117.272 317.524 116.578C317.444 115.895 319.009 114.469 319.34 113.784C321.154 110.024 319.572 109.576 324.784 109.918C330.058 110.264 335.281 111.002 340.558 111.298ZM340.462 -35.1818C348.046 -36.0413 355.648 -36.6919 363.304 -36.9521C370.374 -37.193 378.528 -37.7716 385.35 -35.9016C388.074 -35.1541 390.612 -33.9291 392.6 -32.2501C394.787 -30.4008 395.403 -27.8927 397.422 -26.0213C401 -22.7048 406.936 -23.3069 411.829 -23.0218C425.164 -22.2439 431.43 -7.13272 434.66 1.36615C439.106 13.0666 442.391 24.201 437.167 36.1603C432.562 46.6981 423.568 57.6774 412.871 64.9222C401.035 72.938 386.509 77.9833 372.898 83.6917C366.589 86.3383 360.479 88.9903 354.956 92.6307C349.799 96.0289 345.276 99.6942 340.472 103.376C338.383 104.978 335.298 106.669 332.418 107.136C330.12 107.508 327.41 106.918 325.017 106.78C321.754 106.59 321.18 107.295 320.962 104.867C320.919 104.385 320.64 103.364 320.824 102.911C321.343 101.642 321.012 102.834 321.956 102C323.214 100.887 325.2 99.9309 326.694 99.0519C333.167 95.244 340.405 92.1753 346.326 87.8027C350.65 84.6108 359.875 78.1231 358.693 72.7899C358.059 69.926 354.404 67.9175 351.889 66.0987C348.85 63.9007 346.043 61.5144 343.079 59.254C337.344 54.8813 330.674 50.6194 323.88 47.3597C337.172 36.6406 350.391 25.844 363.602 15.064C364.734 14.1393 370.833 10.1543 368.887 8.46146C366.473 6.36444 361.221 12.596 359.656 13.8376C353.302 18.8802 346.932 23.8867 340.731 29.0553C334.689 34.0923 328.704 39.1848 322.513 44.1055C320.64 45.5949 320.974 45.5423 318.674 45.0024C316.735 44.547 314.611 43.1241 312.81 42.3517C309.002 40.7184 305.122 39.1958 301.278 37.6192C285.436 31.1219 272.784 21.398 257.972 13.6937C263.969 8.39224 266.623 0.451202 271.671 -5.48416C276.744 -11.4472 282.387 -16.0095 289.789 -20.1634C304.487 -28.4118 322.839 -33.1913 340.462 -35.1818ZM191.785 -30.3289C195.922 -42.2453 200.106 -57.0657 211.1 -65.6531C212.88 -67.0484 214.654 -68.6415 217.304 -68.8284C220.872 -69.0803 225.47 -67.285 229.055 -66.9182C236.391 -66.168 243.222 -66.766 250.463 -67.7058C267.054 -69.8582 285.037 -68.6554 299.842 -61.8272C300.225 -61.632 301.877 -60.8278 301.604 -60.9842C303.181 -60.0776 304.616 -59.0298 306.017 -57.957C308.271 -56.2296 310.372 -54.3721 312.496 -52.5435C318.921 -47.0179 325.231 -41.711 332.957 -37.3217C317.197 -34.5783 301.506 -30.326 288.108 -22.9691C273.874 -15.1541 265.343 -4.33252 257.951 7.97977C256.54 10.3329 255.7 12.7289 252.456 10.7606C249.766 9.1286 250.513 6.81149 250.23 4.10266C249.511 -2.80304 248.703 -9.71558 247.377 -16.5659C246.027 -23.5283 243.64 -30.1807 240.993 -36.8871C240.363 -38.4816 239.661 -43.4079 237.346 -44.0197C232.861 -45.206 235.872 -39.535 236.345 -38.4277C242.872 -23.1519 245.658 -7.2753 246.785 8.8075C245.33 8.60403 242.73 9.06357 241.466 8.63309C240.437 8.2829 241.122 8.54315 240.289 7.99777C238.034 6.52225 236.599 3.38846 234.642 1.57794C230.065 -2.66043 224.183 -5.95758 218.688 -9.36819C212.953 -12.9283 207.126 -16.3971 201.174 -19.7205C198.533 -21.196 195.56 -22.4861 193.07 -24.1C190.648 -25.6697 190.963 -27.8525 191.785 -30.3289ZM118.546 60.7212C103.793 49.1342 92.1226 36.1949 86.0269 20.2837C83.2526 13.0431 81.2391 5.23077 80.4472 -2.32272C80.0176 -6.41296 79.9314 -10.4921 80.1401 -14.5921C80.3161 -18.065 79.8778 -23.0535 83.1198 -25.7638C85.3437 -27.6241 88.9738 -27.5189 91.919 -27.8179C96.4324 -28.2747 100.173 -29.8263 104.21 -31.4375C112.742 -34.8426 121.943 -38.6007 131.341 -40.1191C150.925 -43.2834 168.403 -33.9401 183.781 -25.5008C193.379 -20.2326 202.975 -14.9589 212.294 -9.37372C217.254 -6.40051 222.214 -3.37326 226.947 -0.170288C231.036 2.59808 233.498 5.927 236.747 9.24487C218.179 14.1227 166.255 32.632 190.758 53.4072C195.822 57.6996 202.297 60.3571 208.391 63.5338C214.426 66.6801 220.092 70.5323 224.708 74.9699C229.19 79.2789 231.731 84.3962 232.428 89.9994C232.689 92.0895 232.715 92.6529 230.829 93.8931C229.3 94.898 226.155 96.4082 226.562 98.3252C216.186 95.4462 204.925 95.298 194.364 92.8868C184.266 90.5807 174.309 85.5825 163.845 84.6011C162.616 84.4862 160.672 84.8378 159.611 84.4322C158.232 83.9048 156.928 82.4127 155.589 81.686C151.659 79.5502 147.385 77.7549 143.361 75.7271C134.669 71.349 125.905 66.5002 118.546 60.7212ZM52.9005 135.251C54.3998 124.821 62.9696 115.932 68.3043 106.69C73.96 96.8898 78.118 87.4885 87.5953 79.4879C91.8707 75.8793 96.3237 71.8583 102.286 70.0824C108.132 68.3411 114.812 68.4339 120.906 69.0263C127.407 69.6575 132.218 73.7104 137.608 76.4773C143.519 79.5115 149.864 82.0999 155.406 85.5742C146.733 89.2395 143.016 99.1197 139.272 105.809C135.011 113.428 130.308 121.628 127.613 129.703C124.781 138.188 128.006 145.655 131.574 153.554C134.992 161.116 138.569 168.671 142.677 176.014C144.745 179.712 146.833 183.38 148.463 187.223C149.129 188.791 152.48 193.744 151.519 195.079C150.166 196.961 143.739 198.352 141.452 199.167C136.559 200.911 131.764 202.535 126.526 203.522C115.892 205.526 104.447 205.281 93.6771 204.102C82.5815 202.888 77.0828 198.132 71.9293 190.433C66.3236 182.061 63.5165 172.584 60.3022 163.492C57.0948 154.416 51.5117 144.89 52.9005 135.251Z" fill="#B6B4CA"/>
<path d="M163.817 202.565C163.817 202.533 163.813 202.504 163.813 202.472C163.811 202.769 163.815 202.73 163.817 202.565Z" fill="#B6B4CA"/>
<path d="M266.669 253.138C266.663 253.126 266.517 252.919 266.669 253.138V253.138Z" fill="#B6B4CA"/>
<path d="M270.748 107.509C265.99 105.894 257.82 113.81 255.36 116.296C254.408 117.258 244.615 129.26 249.942 129.611C252.121 129.753 252.613 126.754 253.193 125.534C254.675 122.417 256.866 119.57 259.589 117.053C261.814 114.996 264.468 112.784 267.472 111.475C268.541 111.006 274.97 108.952 270.748 107.509Z" fill="#B6B4CA"/>
<path d="M238.831 122.179C238.884 123.594 240.232 124.169 241.78 123.592C242.967 123.151 243.517 121.771 244.202 120.961C245.284 119.682 246.502 118.581 247.979 117.578C249.347 116.646 251.286 116.136 252.561 115.243C253.652 114.479 255.09 112.276 252.216 112.137C248.691 111.966 244.368 115.889 242.325 117.846C241.405 118.728 238.781 120.867 238.831 122.179Z" fill="#B6B4CA"/>
<path d="M234.996 121.437C236.026 120.652 239.666 119.033 239.915 117.749C240.239 116.08 238.44 115.781 236.868 116.147C232.91 117.067 229.116 121.862 227.17 124.519C226.416 125.548 221.633 132.956 226.973 131.051C228.562 130.485 229.311 127.808 230.093 126.669C231.419 124.737 233.074 123.012 234.996 121.437Z" fill="#B6B4CA"/>
<path d="M264.047 99.6775C257.949 99.6249 252.064 102.508 247.218 105.171C245.394 106.173 245.665 108.212 248.162 108.193C249.839 108.181 252.211 106.198 253.638 105.551C256.324 104.333 259.306 103.339 262.366 102.936C263.645 102.767 264.846 102.637 266.109 102.935C267.13 103.175 267.913 104.114 269.021 104.111C270.76 104.106 271.599 103.062 270.743 101.726C269.687 100.075 266.06 99.6942 264.047 99.6775Z" fill="#B6B4CA"/>
<path d="M247.41 100.294C248.752 100.352 249.922 99.65 251.249 99.6389C252.605 99.6278 254.271 100.658 255.579 100.483C258.131 100.143 258.209 98.5039 256.259 97.4533C254.306 96.4013 249.86 96.3695 247.745 97.1114C246.193 97.6567 243.98 100.146 247.41 100.294Z" fill="#B6B4CA"/>
<path d="M232.432 107.707C233.9 107.771 235.106 106.625 236.525 106.419C237.686 106.25 239.487 106.906 240.503 106.557C242.867 105.746 242.032 104.085 239.977 103.443C238.19 102.885 235.874 103.193 234.128 103.696C232.532 104.155 227.977 107.516 232.432 107.707Z" fill="#B6B4CA"/>
<path d="M265.255 91.7685C270.539 91.1428 277.85 95.1749 279.559 99.0659C280.091 100.276 279.675 102.305 281.759 102.636C284.113 103.011 283.959 100.958 283.787 99.7316C283.214 95.6718 277.948 92.0411 273.695 90.2209C271.519 89.2894 267.122 87.7114 264.728 88.6887C262.957 89.4126 262.392 92.1076 265.255 91.7685Z" fill="#B6B4CA"/>
<path d="M301.233 130.819C301.747 125.846 301.382 119.856 299.032 115.167C298.347 113.799 295.769 111.68 294.701 114.124C294.163 115.358 296.192 118.134 296.535 119.483C297.172 121.981 297.42 124.593 297.484 127.143C297.544 129.599 296.076 132.833 296.642 135.129C297.065 136.846 298.778 137.647 300.269 136.008C301.294 134.883 301.097 132.134 301.233 130.819Z" fill="#B6B4CA"/>
<path d="M282.263 109.17C282.001 110.729 285.639 111.32 287.071 111.719C288.911 112.229 291.314 111.983 290.156 109.835C289.223 108.107 282.717 106.416 282.263 109.17Z" fill="#B6B4CA"/>
<path d="M283.618 125.582C287.432 125.747 284.862 121.191 284.033 119.88C282.346 117.21 279.413 114.196 275.705 113.295C274.158 112.919 271.504 112.708 271.704 114.657C271.866 116.243 275.043 116.487 276.414 117.212C278.443 118.284 280.267 120.208 281.14 122.021C281.702 123.188 281.456 125.488 283.618 125.582Z" fill="#B6B4CA"/>
<path d="M295.691 108.982C300.107 109.842 302.148 113.183 302.972 116.477C303.209 117.419 302.945 118.851 304.378 119.254C306.703 119.909 306.97 117.654 306.908 116.482C306.721 112.981 304.092 109.09 300.453 107.158C299.218 106.502 296.727 105.379 295.234 106.034C293.702 106.708 293.664 108.592 295.691 108.982Z" fill="#B6B4CA"/>
<path d="M301.782 104.032C303.555 104.373 304.751 104.884 305.986 105.931C306.856 106.669 307.077 108.12 308.295 108.559C312.194 109.961 311.095 106.287 309.853 104.818C308.414 103.119 306.093 101.501 303.485 101.159C300.741 100.799 298.354 103.362 301.782 104.032Z" fill="#B6B4CA"/>
<path d="M291.718 140.731C289.221 139.877 286.476 146.086 285.089 147.439C284.195 148.309 281.224 149.977 281.254 151.2C281.295 152.949 283.076 152.973 284.608 152.401C287.059 151.485 296.042 142.201 291.718 140.731Z" fill="#B6B4CA"/>
<path d="M258.571 172.11C261.647 173.852 265.458 165.098 266.473 163.855C267.655 162.409 277.829 154.804 274.985 153.02C271.39 150.779 254.559 169.84 258.571 172.11Z" fill="#B6B4CA"/>
<path d="M261.802 156.656C261.245 153.399 257.025 156.938 256.022 157.834C254.613 159.095 250.048 161.798 249.98 163.589C249.844 167.288 254.451 163.832 255.557 162.867C256.947 161.658 262.121 158.547 261.802 156.656Z" fill="#B6B4CA"/>
<path d="M304.647 129.677C303.467 130.729 303.907 133.436 304.078 134.743C304.295 136.39 304.138 142.481 306.899 142.465C311.059 142.443 307.718 134.475 307.803 132.733C307.884 131.078 307.373 127.248 304.647 129.677Z" fill="#B6B4CA"/>
<path d="M240.51 138.284C241.176 136.995 239.23 134.812 238.797 133.564C238.169 131.751 238.031 130.225 238.491 128.356C238.833 126.968 239.307 121.802 235.793 124.823C233.643 126.671 234.095 131.303 234.785 133.47C235.018 134.207 238.341 142.481 240.51 138.284Z" fill="#B6B4CA"/>
<path d="M239.175 126.25C239.356 125.736 239.004 126.754 239.175 126.25V126.25Z" fill="#B6B4CA"/>
<path d="M229.468 136.187C227.649 137.726 229.021 141.674 229.689 143.282C230.218 144.558 232.225 149.951 234.968 148.571C237.524 147.287 233.31 142.467 232.798 140.771C232.506 139.799 233.466 132.801 229.468 136.187Z" fill="#B6B4CA"/>
<path d="M285.653 136.343C283.134 134.767 277.646 141.6 276.19 142.643C274.597 143.78 266.031 146.556 268.45 148.682C272.057 151.852 289.249 138.594 285.653 136.343Z" fill="#B6B4CA"/>
<path d="M280.56 135.181C281.226 134.236 282.087 132.693 280.662 131.901C278.614 130.765 277.506 133.175 276.521 134.101C272.715 137.678 278.164 138.572 280.56 135.181Z" fill="#B6B4CA"/>
<path d="M276.375 127.386C277.636 126.309 276.378 125.324 275.243 124.807C271.287 123.014 264.261 125.051 260.727 126.694C259.444 127.292 256.802 128.462 256.678 129.82C256.552 131.195 257.748 131.792 259.347 131.467C261.18 131.094 263.252 129.144 265.156 128.502C267.441 127.732 269.808 127.226 272.275 127.421C273.561 127.522 275.277 128.322 276.375 127.386Z" fill="#B6B4CA"/>
<path d="M268.257 122.247C272.644 122.182 270.807 118.667 266.868 119.154C265.469 119.328 263.785 119.701 263.947 121.094C264.173 123.036 266.695 122.27 268.257 122.247Z" fill="#B6B4CA"/>
<path d="M288.51 126.42C288.666 127.758 288.012 130.781 289.623 131.633C291.882 132.825 292.56 130.379 292.701 129.137C292.819 128.096 292.951 125.989 291.911 125.217C290.627 124.263 288.324 124.838 288.51 126.42Z" fill="#B6B4CA"/>
<path d="M253.628 149.238C252.603 148.394 250.867 148.759 249.594 148.559C247.399 148.213 245.526 147.35 243.767 146.26C242.536 145.495 236.723 141.984 237.755 146.044C238.288 148.143 244.271 150.359 246.468 151.007C247.731 151.377 257.411 152.354 253.628 149.238Z" fill="#B6B4CA"/>
<path d="M246.102 154.692C244.08 154.159 242.781 151.964 241.017 151.641C238.569 151.193 238.31 152.996 239.171 154.389C239.956 155.658 243.548 158.031 245.524 157.581C247.128 157.217 248.246 155.262 246.102 154.692Z" fill="#B6B4CA"/>
<path d="M253.969 143.873C252.292 142.673 250.789 141.557 249.687 139.941C248.301 137.909 249.673 135.904 248.648 134.137C247.86 132.778 246.014 133.269 245.187 134.199C244.109 135.412 244.607 138.156 245.106 139.422C246.143 142.054 249.782 146.225 253.118 147.307C257.28 148.657 255.988 145.318 253.969 143.873Z" fill="#B6B4CA"/>
<path d="M264.201 142.324C262.981 144.587 260.067 146.026 258.931 148.19C257.518 150.881 260.684 151.173 262.788 149.569C264.423 148.322 266.167 146.272 267.192 144.651C267.689 143.865 268.512 142.692 267.858 141.823C266.856 140.487 264.887 141.051 264.201 142.324Z" fill="#B6B4CA"/>
<path d="M269.513 137.456C271.806 135.086 264.614 132.859 262.508 133.506C256.73 135.276 267.932 139.081 269.513 137.456Z" fill="#B6B4CA"/>
<path d="M255.888 137.57C255.144 136.307 256.079 132.494 252.834 133.218C251.012 133.623 251.402 135.976 251.635 137.042C251.9 138.262 252.78 140.735 254.599 141.092C258.074 141.775 256.59 138.764 255.888 137.57Z" fill="#B6B4CA"/>
<path d="M211.467 123.94C210.304 125.148 211.267 126.61 213.067 126.592C214.652 126.576 216.183 124.551 217.118 123.804C218.769 122.483 220.674 121.354 222.594 120.296C224.067 119.485 227.968 118.378 228.848 117.084C231.457 113.24 224.309 115.664 222.877 116.439C218.812 118.635 214.504 120.782 211.467 123.94Z" fill="#B6B4CA"/>
<path d="M234.544 110.972C231.966 111.63 233.959 113.636 235.532 113.867C236.676 114.036 242.22 113.337 243.232 112.66C244.872 111.564 244.247 110.15 242.309 109.752C240.422 109.364 236.305 110.521 234.544 110.972Z" fill="#B6B4CA"/>
<path d="M223.84 104.346C221.074 103.751 212.313 107.745 217.57 108.935C219.423 109.356 228.267 105.866 223.84 104.346Z" fill="#B6B4CA"/>
<path d="M111.598 645.686C116.607 649.799 121.265 653.11 127.77 655.74C134.343 658.398 141.394 660.323 148.532 661.742C155.799 663.186 163.137 663.385 170.566 663.834C178.375 664.304 186.129 665.192 193.867 666.143C223.465 669.782 254.157 672.54 282.798 663.693C298.867 658.729 314.508 650.95 326.55 640.986C323.628 649.741 320.938 658.228 316.999 666.742C312.575 676.304 309.206 686.513 309.066 696.783C309.004 701.355 310.098 705.852 310.437 710.402C310.824 715.554 310.272 720.83 309.67 725.961C309.036 731.364 307.867 736.701 306.569 742.022C306.074 744.053 305.688 746.087 305.398 748.143C305.332 748.613 304.951 751.797 305.044 751.043C304.59 755.05 302.994 761.216 310.562 759.521C316.052 758.29 321.06 755.08 326.116 753.021C331.521 750.82 337.058 748.712 341.856 745.696C346.749 742.62 350.662 738.698 354.753 734.979C362.817 727.649 373.762 722.227 381.093 714.463C384.601 710.748 386.649 706.197 388.761 701.892C391.38 696.55 394.444 691.52 398.136 686.595C402.213 701.186 409.687 715.206 419.937 727.649C424.868 733.634 431.625 738.419 437.672 743.648C440.434 746.037 442.758 748.586 444.848 751.375C445.761 752.593 446.908 753.894 447.46 755.253C448.135 756.913 447.46 758.51 447.872 760.163C448.5 762.677 451.694 763.442 452.752 760.665C453.302 759.222 452.381 757.792 452.117 756.408C451.83 754.904 451.989 753.45 451.92 751.927C451.618 745.254 447.351 738.838 442.833 733.371C437.881 727.38 432.427 721.901 428.09 715.559C423.816 709.314 421.627 702.458 420.907 695.371C419.392 680.442 420.515 665.326 419.28 650.357C418.68 643.078 417.199 636.057 414.946 628.994C412.865 622.473 407.251 617.554 403.24 611.759C401.216 608.837 399.007 605.944 397.625 602.779C396.623 600.481 394.606 598.215 394.817 595.872C395.452 588.758 397.144 581.346 398.352 574.255C400.99 558.776 403.604 543.878 410.862 529.262C418.819 513.236 423.128 496.016 429.38 479.525C435.117 464.391 441.023 449.381 447.833 434.534C454.096 437.665 457.086 445.802 458.4 451.183C459.908 457.355 459.95 463.937 458.528 470.25C455.12 485.384 438.14 492.712 427.905 504.534C422.115 511.224 423.685 517.52 425.41 524.996C427.027 532.004 422.034 537.173 421.18 543.896C420.333 550.559 424.082 556.872 424.779 563.443C425.094 566.416 424.982 569.469 424.185 572.392C423.842 573.649 421.478 577.428 424.73 577.598C427.436 577.74 430.15 571.413 431.042 570.058C433.625 566.13 435.981 562.044 438.964 558.295C443.773 552.251 451.183 548.05 459.292 545.237C458.159 548.199 455.809 550.81 454.455 553.717C453.155 556.504 451.917 559.339 450.836 562.185C448.578 568.136 446.896 574.255 446.266 580.46C444.996 592.944 445.774 605.275 443.392 617.722C442.194 623.979 440.655 630.176 440.048 636.496C439.751 639.584 439.551 642.679 439.253 645.767C439.054 647.834 437.812 651.812 440.471 653.108C445.221 655.421 453.161 646.938 455.343 644.523C459.927 639.447 463.607 633.832 466.32 627.956C469.04 634.468 474.624 639.781 479.268 645.437C483.399 650.465 485.505 655.513 487.695 661.204C489.512 665.924 491.965 671.131 497.816 673.501C504.872 676.358 509.934 671.66 514.784 668.186C516.294 670.606 517.985 672.792 519.896 675.022C521.525 676.921 522.671 679.335 524.479 681.103C529.299 685.817 531.163 679.489 532.22 676.352C534.011 671.041 534.658 665.582 534.158 660.096C533.682 654.884 531.822 649.413 533.659 644.335C541.056 652.425 552.521 663.727 567.034 661.215C579.426 659.071 571.225 642.355 571.092 636.158C570.835 624.164 575.076 612.169 573.342 600.182C571.618 588.263 564.938 578.835 556.039 569.427C551.19 564.301 545.977 559.321 542.124 553.65C538.026 547.618 536.368 540.82 532.812 534.607C540.854 538.264 547.716 544.351 557.281 545.358C566.213 546.297 576.22 544.746 585.147 544.084C589.822 543.738 594.543 543.382 599.241 543.616C602.612 543.785 607.871 545.099 608.227 541.094C608.763 535.047 599.334 527.668 594.417 523.998C586.941 518.419 578.539 513.606 571.256 507.867C564.006 502.153 558.992 496.171 554.57 488.859C550.468 482.074 545.626 475.524 539.496 469.79C536.782 467.251 534.205 464.485 531.016 462.312C527.302 459.781 522.712 458.129 518.423 456.326C514.617 454.724 511.018 453.172 507.892 450.767C504.346 448.039 501.175 445.356 496.532 443.82C492.438 442.463 488.43 442.368 484.092 442.655C482.419 442.766 479.67 443.342 478.149 442.588C476.389 441.717 475.312 438.9 474.37 437.524C470.269 431.525 465.265 424.112 458.621 419.702C455.419 417.577 453.231 416.153 452.612 412.669C451.894 408.642 451.83 404.588 450.983 400.554C444.156 368.069 430.5 336.576 420.091 304.762C414.943 289.028 410.679 273.225 404.844 257.626C404.178 255.844 403.478 254.071 402.762 252.299C402.384 251.366 400.345 248.269 400.831 247.388C401.865 245.511 406.963 247.443 407.907 243.981C409.529 238.039 396.978 233.723 393.267 229.846C387.537 223.862 383.395 216.365 379.972 209.378C378.435 206.242 377.063 202.985 375.886 199.748C375.348 198.269 375.244 191.169 371.583 193.782C369.073 195.574 372.52 201.582 373.352 203.591C374.925 207.386 376.694 211.115 378.737 214.764C382.441 221.38 386.466 228.574 392.712 233.932C395.655 236.457 399.805 237.974 402.55 240.586C402.998 241.014 404.589 242.43 404.306 243.082C403.885 244.052 402.653 243.552 401.528 243.697C396.1 244.401 396.678 247.27 398.076 250.751C399.439 254.145 400.771 257.536 401.958 260.973C404.577 268.555 407.67 276.017 410.006 283.663C412.469 291.72 414.373 299.887 417.12 307.886C422.572 323.763 428.304 339.553 433.606 355.469C438.906 371.373 444.86 387.097 447.684 403.442C448.262 406.786 448.25 410.194 448.883 413.518C449.649 417.537 452.177 419.266 455.849 421.788C462.919 426.642 468.107 434.723 472.462 441.242C474.632 444.492 476.128 446.112 480.983 445.923C485.533 445.746 489.845 445.219 494.279 446.459C498.682 447.691 501.744 450.292 505.002 452.828C508.369 455.449 512.134 457.329 516.292 459.048C520.509 460.791 524.853 462.311 528.478 464.815C532.069 467.295 535.117 470.345 538.064 473.307C544.303 479.578 548.846 486.624 553.226 493.794C561.035 506.571 575.276 514.702 588.632 524.051C594.087 527.87 603.792 534.535 604.307 540.885C594.721 540.152 585.342 541.05 575.792 541.626C565.835 542.227 557.248 543.447 548.345 539.105C532.876 531.56 516.135 523.205 508.558 509.784C504.603 502.408 501.292 495.555 499.872 487.558C498.29 478.647 498.834 470.192 500.347 461.332C504.986 463.611 508.739 466.804 512.188 470.136C508.459 471.374 510.115 481.645 510.542 484.149C511.014 486.927 511.846 489.63 512.809 492.321C513.357 493.858 513.837 497.74 515.369 498.875C518.014 500.837 518.787 498.133 518.414 496.474C517.862 494.011 516.428 491.583 515.681 489.136C514.053 483.797 513.401 478.187 514.638 472.75C518.756 477.308 522.44 482.118 525.747 487.082C527.39 489.549 529.068 492.029 530.616 494.535C532.248 497.177 531.477 499.203 531.151 502.159C531.244 501.31 531.046 502.956 531.018 503.198C530.842 504.776 530.761 506.332 530.757 507.918C530.754 509.355 529.964 513.355 532.108 514.093C536.028 515.441 534.948 502.651 535.141 501.037C537.871 505.053 540.428 509.417 544.434 512.741C548.675 516.259 554.467 519.412 559.557 522.071C564.596 524.704 569.643 526.732 575.288 528.376C576.817 528.822 579.621 530.035 580.533 528.217C581.644 526.004 576.888 525.572 575.335 525.147C569.374 523.518 564.032 520.819 558.946 517.888C554.01 515.045 548.656 512.269 545.007 508.303C538.116 500.812 533.43 491.834 527.811 483.717C522.134 475.519 515.497 466.411 506.013 460.665C498.766 456.276 490.766 451.442 481.071 452.317C470.795 453.246 479.908 464.379 480.956 468.901C481.955 473.214 481.944 477.621 482.691 481.958C483.518 486.757 485.583 491.26 487.707 495.765C490.005 500.646 492.674 505.715 493.371 510.948C494.115 516.54 491.292 521.098 487.783 525.778C482.074 533.394 470.5 537.821 461.803 540.972C454.95 543.458 447.821 545.81 442.37 550.111C436.392 554.828 432.669 560.975 428.787 566.841C428.966 558.612 423.079 550.382 425.429 542.217C426.649 537.976 429.485 534.205 429.715 529.772C429.948 525.286 427.743 521.118 427.384 516.691C426.587 506.877 438.178 499.405 445.938 493.063C454.919 485.724 461.199 478.542 462.84 468.093C463.476 471.686 464.292 475.155 464.349 478.799C464.392 481.568 464.929 485.391 463.88 488.057C462.667 491.141 458.789 494.374 456.459 497.005C453.73 500.088 450.799 503.086 447.501 505.793C446.18 506.879 442.177 508.751 441.932 510.342C441.516 513.041 444.982 511.959 446.506 511.01C452.828 507.077 457.729 501.001 462.193 495.775C458.701 508.48 450.103 519.758 443.606 531.548C442.986 532.671 439.834 537.44 443.688 537.464C445.812 537.477 446.948 533.204 447.684 531.9C451.414 525.297 455.612 518.867 459.361 512.271C460.762 515.832 463.148 519.292 465.938 522.279C467.997 524.483 472.407 525.238 470.359 521.611C468.528 518.367 465.014 516.093 463.53 512.541C462.893 511.017 461.853 508.576 462.06 506.946C462.074 506.837 462.495 505.911 462.69 505.489C466.439 497.375 468.054 488.721 468.243 480.092C469.439 481.263 473.333 485.067 475.303 485.142C479.632 485.306 476.208 481.821 474.857 480.824C468.737 476.309 467.396 471.689 466.175 465.29C465.027 459.278 463.219 453.052 461.232 447.179C459.467 441.959 456.18 435.418 450.407 432.186C443.804 428.49 443.083 436.915 441.528 440.247C438.575 446.582 435.49 452.893 432.805 459.307C429.82 466.438 427.61 473.768 424.837 480.953C422.058 488.153 419.239 495.256 417.089 502.597C414.972 509.824 412.503 516.985 409.28 523.947C406.104 530.806 402.658 537.558 400.455 544.676C395.921 559.32 394.629 574.495 392.315 589.427C391.885 592.206 391.14 594.576 390.024 597.017C388.859 599.562 389.851 602.97 389.811 605.778C389.713 612.713 387.795 619.479 384.786 625.961C381.723 632.558 378.34 639.641 374.083 645.805C370.479 651.023 362.437 654.625 356.856 658.38C349.28 663.477 342.427 669.449 336.811 675.983C334.302 678.902 331.659 681.885 329.514 684.988C328.041 687.12 328.386 690.764 331.839 688.103C334.791 685.827 336.745 681.576 339.097 678.833C341.844 675.627 344.83 672.554 348.043 669.64C354.58 663.711 362.22 659.044 369.737 653.984C365.99 661.828 362.548 669.797 359.822 677.912C357.191 685.745 355.274 693.697 352.287 701.461C349.33 709.15 344.932 716.433 339.789 723.327C337.07 726.97 333.895 730.349 330.909 733.847C328.621 736.525 324.606 740.102 323.616 743.304C322.515 746.858 325.964 746.325 327.674 743.866C330.143 740.311 332.927 736.927 335.834 733.589C341.723 726.832 347.108 719.973 351.267 712.409C359.761 696.941 362.425 679.944 369.277 664.015C376.718 646.718 390.238 630.447 393.181 612.068C396.494 623.932 399.465 635.786 400.764 647.917C401.989 659.367 403.155 671.225 396.771 681.861C393.761 686.879 389.893 691.517 387.203 696.68C384.684 701.515 382.717 706.696 379.137 711.128C375.163 716.049 368.793 719.709 363.419 723.583C357.767 727.658 352.801 732.225 347.75 736.763C342.572 741.416 336.839 745.188 329.861 747.982C323.096 750.691 315.852 755.293 308.472 756.714C309.461 741.071 315.905 725.621 314.25 709.841C313.453 702.246 312.622 695.285 314.159 687.683C315.664 680.236 318.153 673.12 321.454 666.066C324.911 658.679 327.31 651.382 329.556 643.726C330.325 641.101 331.488 639.073 333.196 637.01C335.75 633.924 337.425 630.307 340.07 627.178C345.269 621.028 351.293 614.776 358.402 609.985C364.925 605.589 373.823 601.936 378.574 596.165C380.579 593.73 383.115 590.126 383.809 587.241C384.584 584.022 382.058 582.831 378.552 584.061C371.162 586.652 361.904 587.693 355.377 591.604C348.964 595.447 347.663 603.993 345.115 609.719C341.923 616.892 337.42 624.076 332.158 630.418C322.235 642.376 306.2 651.775 290.16 657.882C272.653 664.547 254.407 666.633 235.173 666.616C213.579 666.598 192.609 662.137 171.165 660.771C160.679 660.102 150.634 659.374 140.603 656.639C135.087 655.135 129.707 653.275 124.717 650.85C120.183 648.646 117.204 645.54 113.346 642.715C118.827 640.013 125.178 638.646 131.17 636.899C138.432 634.781 145.275 632.104 151.696 628.642C165.432 621.238 175.813 611.209 185.906 600.84C190.92 595.689 196.063 590.624 201.038 585.45C205.463 580.847 210.368 576.849 217.147 574.54C231.291 569.723 249.095 572.234 263.555 574.782C273.162 576.475 282.016 579.49 291.219 582.178C300.098 584.771 309.628 586.401 317.646 590.584C312.554 592.247 307.553 594.09 302.658 596.099C298.678 597.732 294.49 600.56 289.954 600.658C279.409 600.887 268.764 599.891 258.227 600.291C255.727 600.387 247.038 600.376 245.87 602.627C243.985 606.263 253.546 603.81 255.013 603.656C259.899 603.144 264.74 603.496 269.639 603.594C275.275 603.706 280.903 603.427 286.542 603.67C276.554 608.703 266.466 611.722 255.184 614.32C250.196 615.469 245.541 617.734 240.627 618.719C235.372 619.774 229.778 618.978 224.464 618.763C219.04 618.545 213.94 619.112 208.627 619.947C206.709 620.249 203.341 620.336 201.76 621.338C200.211 622.319 199.84 623.835 202.18 624.357C203.881 624.736 206.817 623.464 208.513 623.139C211.641 622.539 214.83 622.047 218.037 621.833C223.9 621.446 229.697 622.386 235.555 622.333C220.837 629.112 203.436 633.101 187.349 637.264C179.49 639.299 171.443 640.909 163.812 643.471C162.114 644.041 156.118 645.353 158.232 647.698C159.793 649.43 166.086 646.041 167.89 645.488C183.919 640.574 200.679 636.975 216.85 632.305C224.261 630.165 232.126 627.889 238.726 624.382C241.614 622.847 243.94 621.009 247.133 619.822C251.279 618.283 255.781 617.559 260.125 616.495C259.01 621.869 257.732 627.03 254.623 631.927C253.117 634.298 251.338 636.571 249.366 638.711C247.689 640.53 245.039 642.065 243.553 643.913C242.166 645.637 243.182 647.289 245.832 646.494C247.332 646.046 249.18 643.792 250.154 642.866C254.504 638.733 258.155 634.038 260.468 628.947C261.631 626.387 262.378 623.74 263.029 621.069C263.263 620.109 263.317 616.331 264.252 615.472C265.249 614.555 268.943 614.319 270.358 613.906C273.457 613.001 276.443 611.881 279.357 610.644C285.477 608.047 291.136 604.851 297.108 602.056C303.02 599.289 309.292 597.046 315.469 594.692C312.239 599.143 310.201 604.391 307.777 609.154C305.258 614.103 302.089 617.911 297.627 621.849C296.511 622.833 293.188 625.846 296.985 626.196C298.609 626.346 300.129 624.432 300.986 623.644C305.22 619.761 308.424 615.825 311.003 611.092C313.402 606.692 315.186 601.882 317.953 597.638C318.567 596.697 320.111 593.535 320.934 592.881C322.437 591.683 327.189 591.132 329.094 590.63C339.653 587.845 352.304 585.406 361.97 584.134C366.701 583.496 371.399 582.69 376.017 581.648C378.966 580.982 383.322 580.449 386.055 579.324C389.158 578.046 389.192 573.214 389.903 570.713C390.883 567.261 391.923 563.818 392.829 560.351C393.812 556.589 394.725 552.767 394.66 548.904C394.637 547.618 395.698 544.091 394.706 543.294C391.542 540.75 382.487 553.737 381.438 555.432C380.034 557.702 380.479 558.644 381.287 560.916C382.424 564.115 382.135 567.084 381.338 570.35C380.948 571.95 380.641 576.003 379.283 577.393C377.703 579.008 371.354 579.487 369.019 579.922C360.438 581.521 351.613 582.114 343.057 583.834C338.956 584.657 334.984 585.794 330.979 586.869C327.95 587.683 323.528 589.828 320.548 588.379C324.632 586.818 328.162 584.779 332.517 583.619C336.738 582.494 340.993 582.171 345.403 581.948C354.394 581.494 359.04 578.769 362.976 572.272C366.925 565.751 370.569 559.094 378.041 554.778C381.49 552.786 382.722 549.002 384.939 546.152C387.506 542.854 390.683 539.858 393.538 536.722C405.182 523.941 407.674 508 411.646 492.882C415.773 477.167 419.632 461.195 424.948 445.71C426.433 441.382 428.147 437.087 430.438 432.986C431.583 430.934 432.824 428.863 434.301 426.949C435.176 425.817 437.073 424.679 437.669 423.487C438.357 422.111 437.398 420.805 437.08 419.4C436.64 417.45 436.644 415.424 436.335 413.459C436.182 412.491 435.997 411.535 435.804 410.574C435.74 410.297 435.283 408.155 435.517 409.295C432.396 394.179 427.807 379.171 423.947 364.163C422.123 357.072 420.717 349.907 418.721 342.846C416.725 335.784 413.675 328.953 411.784 321.864C410.833 318.298 410.232 314.67 409.142 311.126C408.69 309.656 408.186 308.186 407.348 306.824C406.318 305.152 404.606 304.653 403.421 303.246C401.514 300.986 402.379 296.379 401.999 293.736C401.673 291.459 401.059 288.405 400.636 286.491C397.494 272.281 392.793 258.353 385.876 245.023C382.389 238.303 378.555 231.694 375.465 224.846C373.881 221.337 372.386 217.805 370.627 214.349C369.126 211.396 367.468 207.098 364.722 204.72C361.89 202.269 360.284 204.611 361.749 206.914C363.666 209.93 365.684 212.776 367.263 215.949C370.605 222.666 373.347 229.529 377.003 236.152C384.651 250.016 390.514 263.814 394.658 278.605C396.714 285.94 397.979 293.157 398.823 300.634C399.158 303.608 400.15 304.521 402.491 306.64C405.213 309.103 405.619 312.646 406.39 315.772C408.407 323.954 411.104 331.837 413.835 339.873C416.544 347.843 418.179 356.1 420.2 364.197C423.861 378.871 428.807 395.534 431.592 409.161C432.241 412.327 432.463 415.523 433.053 418.691C433.209 419.53 434.001 421.048 433.89 421.847C433.744 422.916 431.984 424.112 431.226 425.042C426.037 431.41 423.198 438.885 420.793 446.17C415.9 460.992 412.032 476.184 408.091 491.19C404.277 505.719 402.325 521.782 391.123 534.103C388.381 537.117 385.455 540.006 382.927 543.146C380.852 545.723 379.314 549.525 376.701 551.737C375.348 552.882 373.224 553.519 371.77 554.659C370.151 555.93 368.762 557.432 367.512 558.94C364.994 561.975 362.879 565.291 360.94 568.581C359.064 571.761 357.356 575.743 353.267 577.533C349.691 579.098 345.256 578.734 341.343 579.017C336.935 579.335 332.634 580.184 328.522 581.496C326.393 582.175 317.763 584.458 317.815 587.019C309.98 583.323 300.938 581.655 292.435 579.246C284.143 576.897 276.138 573.955 267.551 572.344C252.066 569.438 233.812 566.685 218.284 570.867C202.801 575.036 193.61 587.88 184.074 597.707C173.606 608.496 162.856 619.183 148.358 626.655C140.439 630.737 131.974 633.315 123.168 635.859C119.288 636.981 115.456 638.208 111.843 639.814C107.176 641.89 108.42 643.077 111.598 645.686ZM528.449 680.009C528.423 680.002 528.275 679.957 528.449 680.009V680.009ZM400.836 246.779C400.767 246.816 400.64 246.907 400.836 246.779V246.779ZM604.295 541.161C604.293 541.17 604.146 541.258 604.295 541.161V541.161ZM511.083 666.686C508.401 668.7 505.462 671.912 501.316 671.303C495.749 670.485 493.307 664.689 491.803 661.01C489.86 656.259 488.342 651.595 485.184 647.233C482.103 642.975 478.375 639.026 474.998 634.92C472.227 631.548 468.454 626.898 468.621 622.665C468.689 620.986 469.724 619.114 470.124 617.468C470.819 614.612 471.289 611.722 471.768 608.84C472.577 603.987 472.959 598.96 474.384 594.194C475.961 588.919 479.415 584.012 481.786 578.945C484.591 587.892 489.318 596.244 493.932 604.675C498.659 613.314 505.15 620.041 513.52 626.609C517.421 629.671 521.192 632.721 524.688 636.089C526.161 637.509 528.823 639.177 529.841 640.801C530.585 641.984 530.43 641.566 530.1 643.034C527.88 652.881 519.858 660.102 511.083 666.686ZM529.432 653.551C530.566 662.062 530.782 670.539 527.26 678.747C525.323 676.366 523.587 673.912 521.582 671.566C520.863 670.723 517.459 667.251 517.736 666.014C518.033 664.7 522.484 662.012 523.483 661.045C525.882 658.73 527.733 656.226 529.432 653.551ZM484.379 466.707C483.452 463.599 481.358 460.808 480.397 457.717C479.446 454.662 482.407 455.31 485.447 455.553C488.554 455.802 493.623 456.424 495.654 458.583C497.828 460.895 495.578 465.407 495.226 468.086C494.158 476.218 495.191 484.498 497.027 492.501C494.638 490.49 492.141 488.559 489.781 486.524C483.984 481.529 486.278 473.071 484.379 466.707ZM495.666 504.696C493.956 499.902 491.62 495.275 489.41 490.62C492.805 493.231 497.194 496.237 499.092 499.724C501.639 504.398 503.485 509.286 506.758 513.705C509.349 517.205 512.555 520.712 515.738 523.878C518.73 526.851 523.268 528.588 526.083 531.462C532.992 538.507 533.966 548.501 539.529 556.237C545.464 564.492 553.804 571.435 560.142 579.478C566.548 587.605 569.99 596.604 569.845 606.279C569.705 615.559 567.585 624.775 567.3 634.049C567.171 638.276 567.931 642.257 568.986 646.378C569.712 649.211 571.26 654.598 568.423 657.109C565.388 659.799 558.33 657.705 554.874 656.493C549.213 654.511 545.314 651.377 541.536 647.552C533.383 639.299 525.112 631.329 515.716 623.95C511.064 620.297 506.565 616.517 502.971 612.14C499.296 607.665 497.186 602.603 494.432 597.758C492.752 594.842 489.587 589.084 487.824 585.059C486.537 582.117 485.624 579.018 484.736 575.984C483.918 573.189 484.738 571.509 485.493 568.771C487.174 562.682 488.262 556.021 488.256 549.783C488.252 546.749 487.886 543.706 487.065 540.741C486.644 539.22 486.094 534.806 483.911 534.265C484.118 534.129 484.323 533.993 484.531 533.858C489.443 530.609 492.524 525.911 495.148 521.353C499.57 528.558 503.568 536.02 505.638 543.907C507.638 551.53 508.545 559.404 511.406 566.87C516.991 581.45 533.28 591.46 538.226 606.243C538.697 607.653 538.879 611.916 541.829 611.199C544.879 610.457 542.084 605.589 541.448 604.098C538.204 596.489 533.009 590.119 527.153 583.663C521.363 577.281 516.808 570.885 514.246 563.211C511.818 555.94 511.104 548.399 508.79 541.116C507.414 536.787 505.55 532.569 503.409 528.447C501.575 524.913 498.073 521.011 497.072 517.308C496.561 515.422 497.491 513.155 497.315 511.19C497.12 508.978 496.425 506.822 495.666 504.696ZM466.791 542.474C471.758 540.305 476.846 538.571 481.427 535.841C481.558 538.097 483.009 540.24 483.556 542.448C484.11 544.679 484.353 546.966 484.387 549.239C484.47 554.525 483.4 559.851 482.382 565.061C481.356 570.312 479.534 575.289 477.044 580.211C474.513 585.215 471.327 590.017 470.074 595.368C467.586 605.989 467.457 616.776 462.655 627.02C460.278 632.092 457.075 637.05 453.264 641.522C450.704 644.529 447.091 648.538 442.741 649.916C443.675 641.355 444.241 632.889 445.954 624.393C447.591 616.273 449.199 608.054 449.418 599.818C449.853 583.56 450.217 567.014 459.513 552.072C461.47 548.927 462.922 544.163 466.791 542.474ZM405.403 665.515C406.913 646.123 401.288 625.846 395.709 607.093C399.396 612.618 403.421 617.772 407.589 623.056C411.639 628.187 413.017 634.742 414.208 640.665C416.837 653.757 416.437 667.437 416.661 680.658C416.878 693.52 417.17 705.898 425.025 717.472C428.716 722.909 433.079 727.808 437.648 732.77C441.808 737.289 446.839 743.657 447.821 749.312C442.767 742.481 434.938 737.145 428.354 731.3C421.963 725.626 416.183 718.134 412.462 711.083C408.514 703.601 404.972 695.806 402.51 687.923C402.011 686.325 400.854 684.033 401.066 682.343C401.247 680.892 402.501 679.276 403.002 677.847C404.418 673.808 405.075 669.694 405.403 665.515ZM355.781 595.547C358.238 593.001 362.593 591.892 366.264 590.976C370.902 589.819 375.312 588.75 379.711 587.048C378.146 590.252 376.557 593.649 373.655 596.254C371.368 598.308 368.321 599.743 365.619 601.407C358.702 605.668 352.125 610.043 346.469 615.396C349.892 609.095 351.059 601.32 355.781 595.547ZM385.979 563.828C385.883 561.691 383.802 559.376 384.128 557.613C384.301 556.686 386.419 554.838 387.016 554.038C388.212 552.435 389.385 550.822 390.791 549.329C390.847 554.503 389.261 559.552 387.744 564.542C387.206 566.315 385.812 576.133 383.497 576.542C385.112 572.449 386.161 568.136 385.979 563.828Z" fill="#B6B4CA"/>
<path d="M3.69403 653.526C2.85034 660.845 2.73817 668.188 1.54253 675.486C0.379654 682.584 -0.610672 689.534 1.84621 696.54C5.99908 708.393 18.6923 717.518 20.8266 730.017C21.0923 731.575 20.8852 732.367 20.1761 733.801C19.7914 734.578 18.9201 735.577 19.8259 736.354C21.2303 737.558 24.838 734.695 25.9974 734.034C32.6192 730.258 39.2773 729.323 47.3105 729.555C54.5517 729.764 61.9223 730.363 69.1532 729.787C76.6308 729.192 83.8012 727.127 90.4783 724.417C102.806 719.415 112.607 710.917 119.127 701.324C127.273 689.337 129.869 676.157 131.805 662.765C133.753 649.282 134.9 635.792 136.521 622.287C138.113 609.017 141.816 595.751 151.331 584.582C155.962 579.148 161.666 574.41 167.178 569.563C168.667 568.253 169.997 566.445 171.683 565.342C172.394 564.877 173.22 564.639 173.94 564.167C175.17 563.359 176.184 561.998 177.252 561.025C177.409 560.881 178.677 559.764 178.011 560.34C185.929 553.39 193.532 546.148 201.836 539.496C208.834 533.89 215.37 527.423 221.787 521.743C221.805 521.73 222.547 521.078 222.694 520.952C223.757 520.034 224.835 519.129 225.888 518.204C227.332 516.933 228.748 515.641 230.201 514.375C233.608 511.409 237.037 508.403 240.529 505.467C240.108 504.668 239.744 503.868 239.459 503.064C236.35 505.763 233.194 508.423 230.015 511.069C223.712 516.309 217.689 521.786 211.761 527.298C205.253 533.35 197.986 538.806 191.441 544.82C186.745 549.136 180.296 554.793 176.329 558.258C175.187 559.26 174.076 560.654 172.765 561.512C172.238 561.857 171.303 561.922 170.627 562.436C169.98 562.928 169.504 563.564 168.96 564.124C165.936 567.255 162.492 570.058 159.176 572.987C152.076 579.318 144.664 587.749 140.33 596.705C134.982 607.755 133.855 619.359 132.733 631.062C131.612 642.768 130.209 654.466 128.37 666.115C126.558 677.588 123.965 689.153 116.993 699.422C121.56 677.711 121.172 655.451 119.788 633.522C118.548 613.845 125.515 595.833 139.868 579.905C143.177 576.233 147.083 572.741 151.257 569.683C155.635 566.475 159.395 562.836 163.527 559.425C171.812 552.59 180.418 546.005 188.572 539.068C196.321 532.475 203.293 525.32 210.85 518.587C218.465 511.802 225.777 504.912 232.61 497.605C233.087 497.094 235.91 494.547 237.016 492.681C236.821 492 236.63 491.333 236.443 490.674C236.335 490.664 236.248 490.642 236.121 490.644C233.821 490.664 230.886 495.415 229.721 496.661C222.589 504.287 214.906 511.437 206.916 518.488C197.351 526.945 186.139 537.717 175.247 546.556C169.749 551.017 164.072 555.361 158.746 559.955C153.615 564.379 148.958 568.865 142.155 571.7C135.413 574.51 128.712 576.936 121.346 578.51C114.193 580.038 106.895 580.891 99.7106 582.271C85.0331 585.09 70.7232 589.064 57.1311 594.333C45.3919 598.882 34.4602 606.047 26.5737 612.874C13.9615 623.908 5.41591 638.585 3.69403 653.526ZM54.9537 726.893C52.8729 728.273 46.5479 727.099 43.7149 727.117C39.3187 727.146 34.8932 727.525 30.7904 728.869C29.8656 729.174 28.9857 729.58 28.1351 729.999C33.035 724.192 38.2197 718.729 42.1068 712.414C45.9077 706.238 48.9323 699.886 51.786 693.398C57.7918 679.745 64.1255 666.277 72.1708 653.295C67.4227 669.711 68.2077 686.872 63.972 703.406C62.9006 707.589 61.7843 711.787 60.3091 715.893C59.5965 717.873 58.8236 719.847 57.942 721.784C57.3191 723.147 56.3995 725.934 54.9537 726.893ZM80.1919 721.089C79.2429 722.898 78.3388 725.509 76.1891 726.429C73.8064 727.449 69.7536 727.469 67.1086 727.617C64.0634 727.733 61.0165 727.577 57.9765 727.456C61.9723 721.978 63.6942 715.529 65.4558 709.405C67.226 703.245 68.6149 697.017 69.6328 690.749C70.6697 684.356 71.1856 677.923 72.031 671.513C72.4037 668.682 72.7729 665.852 73.1508 663.021C73.3664 661.406 73.6114 659.799 73.9513 658.199C73.9858 658.037 74.2722 656.857 74.2101 657.068C74.9382 654.326 76.0528 651.002 77.0552 648.044C78.5217 643.716 80.9458 640.437 83.9013 636.657C90.0746 628.763 96.5946 621.009 103.612 613.58C91.8447 633.224 89.6329 655.246 88.1715 676.72C87.4417 687.444 87.4176 698.012 84.7554 708.587C83.7012 712.755 82.245 717.172 80.1919 721.089ZM117.366 647.63C117.385 657.262 118.301 666.994 117.266 676.599C116.293 685.618 115.884 695.534 112.568 704.227C110.768 708.903 104.298 713.787 99.7036 716.833C94.2619 720.44 87.8678 723.038 81.2788 725.006C86.2202 716.679 88.7944 707.207 89.9848 698.07C91.1978 688.763 90.9476 679.283 91.755 669.935C92.5901 660.267 93.6426 650.594 95.7906 641.047C97.9352 631.514 101.708 622.509 106.862 613.755C109.145 609.877 111.293 605.917 114.843 602.667C118.593 599.234 122.699 596.07 126.536 592.702C121.45 601.14 118.139 610.447 117.081 619.79C116.034 629.038 117.347 638.366 117.366 647.63ZM39.5171 606.13C53.1059 596.798 70.9561 591.391 87.9248 587.341C105.628 583.117 124.25 581.941 140.798 574.951C138.363 577.346 136.165 579.891 133.981 582.434C132.207 584.499 129.9 585.982 127.808 587.892C125.342 590.143 122.866 592.38 120.314 594.568C114.736 599.35 109.115 604.074 104.008 609.192C86.3685 626.865 71.3374 646.786 60.4851 667.689C54.8795 678.485 50.7387 689.7 45.3418 700.553C39.8794 711.539 32.7762 721.06 23.8752 730.464C21.6427 714.715 3.75096 703.812 3.23508 687.711C2.99181 680.124 5.25719 672.506 5.87312 664.94C6.47182 657.591 6.64951 650.324 9.13918 643.179C14.2686 628.462 25.1279 616.012 39.5171 606.13Z" fill="#B6B4CA"/>
<path d="M178.905 555.911C178.893 555.922 178.879 555.934 178.865 555.945C179.024 555.804 178.988 555.837 178.905 555.911Z" fill="#B6B4CA"/>
<path d="M205.822 519.429C205.803 519.446 205.784 519.464 205.765 519.48C205.762 519.483 205.772 519.473 205.822 519.429Z" fill="#B6B4CA"/>
<path d="M100.344 565.328C99.3327 569.932 107.236 563.955 108.755 563.092C112.68 560.862 116.954 558.97 121.431 557.558C130.204 554.791 138.896 552.744 147.226 549.075C164.516 541.462 180.912 530.352 192.373 517.436C198.041 511.049 202.87 504.189 209.557 498.416C212.815 495.603 216.481 493.206 220.858 491.603C224.916 490.118 229.283 489.29 233.334 487.794C233.974 487.557 234.915 487.366 235.555 486.984C235.491 486.646 235.42 486.314 235.368 485.967C235.336 485.749 235.298 485.326 235.253 484.841C234.768 484.748 234.188 484.807 233.683 484.995C234.338 484.712 234.884 484.258 235.153 483.806C235.11 483.392 235.061 482.993 235.008 482.668C234.74 482.483 234.302 482.358 233.634 482.343C232.178 482.311 229.777 483.9 228.448 484.373C223.698 486.065 218.864 487.549 214.188 489.38C206.12 492.539 196.797 496.286 190.049 500.064C181.823 504.67 174.593 510.59 167.123 515.934C158.865 521.842 149.526 526.458 140.299 531.286C132.257 535.494 125.019 540.644 118.539 546.315C114.785 549.601 111.258 553.036 107.82 556.536C105.539 558.863 101.011 562.283 100.344 565.328ZM131.369 539.815C139.583 534.142 148.955 529.945 157.718 524.879C167.533 519.206 176.089 512.474 185.282 506.188C193.175 500.791 202.209 496.947 211.424 493.195C211.992 492.959 212.559 492.724 213.129 492.492C206.54 496.558 201.676 501.896 197.107 507.392C194.568 510.447 192.071 513.545 189.437 516.546C188.415 517.709 187.323 518.828 186.207 519.934C186.034 520.106 184.985 521.126 185.536 520.588C175.356 530.537 162.723 538.785 149.007 545.399C135.753 551.79 120.52 554.15 107.54 560.88C114.681 553.246 122.333 546.057 131.369 539.815Z" fill="#B6B4CA"/>
<path d="M63.5235 487.185C69.6915 489.154 75.6077 491.495 81.4203 494.065C104.611 504.321 129.307 512.602 156.305 508.847C161.962 508.059 167.53 506.844 172.797 504.992C178.526 502.977 183.519 500.182 188.919 497.714C199.471 492.89 210.786 489.521 222.028 485.925C226.245 484.575 230.501 483.266 234.549 481.608C233.577 480.325 232.936 478.935 232.703 477.537C229.82 477.984 225.427 479.988 224.69 480.279C218.674 482.646 213.098 484.967 206.29 485.27C199.552 485.571 193.003 485.202 186.31 486.156C179.461 487.132 172.551 487.849 165.724 488.919C152.737 490.954 140.396 492.437 127.119 491.386C114.177 490.36 101.529 488.851 89.1723 485.49C83.0559 483.826 77.0604 481.981 70.6836 481.044C67.433 480.567 64.1359 480.273 60.8302 480.215C58.8116 480.179 54.8416 479.739 53.1663 480.788C49.1704 483.291 61.8154 486.639 63.5235 487.185ZM95.7182 489.679C107.68 492.433 120.651 493.708 133.077 494.18C126.263 495.999 119.764 497.29 112.566 497.421C111.626 497.437 110.437 497.112 109.811 497.922C109.072 498.878 110.044 499.526 111.036 499.84C112.801 500.399 116.85 499.743 118.094 499.63C121.431 499.322 124.647 498.765 127.871 498.012C130.449 497.411 132.991 496.738 135.53 496.049C136.41 495.809 137.432 495.647 138.258 495.322C138.839 495.094 139.581 494.361 140.007 494.24C141.961 493.68 145.118 494.058 147.221 493.884C149.695 493.679 152.157 493.394 154.611 493.065C159.523 492.406 164.395 491.567 169.292 490.836C160.282 494.641 151.999 499.868 142.273 502.585C141.103 502.912 138.242 503.1 137.882 504.34C137.261 506.477 140.449 505.661 141.641 505.326C146.291 504.016 150.508 502.045 154.897 500.279C159.342 498.49 163.475 496.445 167.711 494.368C169.673 493.406 171.7 492.518 173.846 491.849C175.734 491.262 177.854 491.074 179.612 490.262C180.389 489.903 180.346 489.635 181.072 489.355C182.138 488.944 183.936 488.955 185.085 488.785C187.582 488.415 190.07 488.075 192.601 487.895C197.604 487.539 202.632 487.949 207.634 487.586C208.319 487.539 209.004 487.489 209.687 487.435C203.783 489.323 197.925 491.021 192.275 493.423C186.452 495.898 181.138 499.059 175.222 501.399C163.684 505.961 150.881 507.801 138.037 507.309C123.47 506.753 109.279 502.784 96.2668 497.688C89.576 495.067 83.2319 491.943 76.6325 489.186C70.618 486.674 64.1808 485.053 58.0938 482.691C71.5342 482.596 83.0559 486.764 95.7182 489.679Z" fill="#B6B4CA"/>
<path d="M220.69 483.764C221.03 483.658 220.722 483.754 220.69 483.764V483.764Z" fill="#B6B4CA"/>
<path d="M318.536 428.897C319.766 430.083 323.334 429.165 324.739 428.692C326.392 428.134 330.976 425.876 331.145 424.127C331.535 420.107 325.501 425.134 324.596 425.648C323.319 426.268 316.124 426.571 318.536 428.897Z" fill="#B6B4CA"/>
<path d="M315.482 432.051C315.187 435.175 328.101 437.386 328.115 434.074C328.124 431.974 324.338 433.046 322.796 432.825C321.319 432.612 315.764 429.07 315.482 432.051Z" fill="#B6B4CA"/>
<path d="M312.715 440.315C314.092 440.987 317.039 441.239 316.181 439.09C315.793 438.115 314.011 437.87 313.11 437.275C311.637 436.302 311.345 435.22 310.286 434.053C308.733 432.341 306.557 432.489 306.911 434.863C307.246 437.116 310.551 439.26 312.715 440.315Z" fill="#B6B4CA"/>
<path d="M301.737 436.816C300.977 435.715 302.311 433.672 299.913 433.549C297.989 433.449 297.66 435.545 297.884 436.679C298.077 437.663 299.135 439.695 300.522 439.969C303.552 440.567 302.477 437.888 301.737 436.816Z" fill="#B6B4CA"/>
<path d="M289.806 432.361C287.17 430.949 284.608 436.546 287.096 437.492C289.42 438.378 291.533 433.286 289.806 432.361Z" fill="#B6B4CA"/>
<path d="M287.085 426.249C286.6 424.112 279.523 425.499 280.443 427.701C281.183 429.473 287.515 428.149 287.085 426.249Z" fill="#B6B4CA"/>
<path d="M283.831 419.567C282.161 418.65 280.891 417.948 280.146 416.385C279.787 415.633 279.984 414.323 279.383 413.642C277.47 411.477 276.172 413.75 276.357 415.35C276.614 417.564 278.184 419.718 280.387 421.026C281.053 421.422 281.928 422.147 282.824 422.089C284.376 421.987 285.337 420.394 283.831 419.567Z" fill="#B6B4CA"/>
<path d="M285.772 415.62C288.446 415.027 285.712 412.316 285.403 411.074C285.07 409.729 286.926 406.389 284.608 405.745C281.657 404.927 281.797 409.453 281.854 410.727C281.918 412.148 283.15 416.201 285.772 415.62Z" fill="#B6B4CA"/>
<path d="M290.082 412.017C291.06 414.043 293.264 413.141 293.424 411.471C293.486 410.823 292.749 410.016 292.696 409.367C292.604 408.245 293.438 407.579 293.522 406.555C293.731 404.048 291.128 404.074 289.985 406.123C288.938 408 289.178 410.144 290.082 412.017Z" fill="#B6B4CA"/>
<path d="M296.574 410.808C298.293 410.916 298.37 409.371 298.653 408.44C299.225 406.563 299.965 405.443 301.214 403.829C302.556 402.096 301.897 399.909 299.081 401.459C297.156 402.521 292.308 410.54 296.574 410.808Z" fill="#B6B4CA"/>
<path d="M304.621 410.184C305.431 413.377 309.162 409.405 309.784 408.571C310.524 407.58 312.762 404.687 312.001 403.37C310.701 401.122 308.828 403.469 308.233 404.669C307.63 405.878 304.323 409.002 304.621 410.184Z" fill="#B6B4CA"/>
<path d="M312.027 415.571C312.924 414.611 314.509 412.646 313.85 411.354C312.95 409.585 311.393 410.389 310.524 411.529C310.168 411.996 308.838 414.267 308.873 414.763C308.961 416.038 311.007 416.662 312.027 415.571Z" fill="#B6B4CA"/>
<path d="M315.156 422.14C317.429 421.922 319.378 420.662 320.47 419.084C321.166 418.078 322.041 416.038 319.539 416.099C317.846 416.14 317.028 418.381 315.643 419.12C314.666 419.641 313.267 419.422 313.124 420.718C313.027 421.583 314.152 422.235 315.156 422.14Z" fill="#B6B4CA"/>
<path d="M281.109 403.049C280.175 400.23 273.847 404.657 273.859 406.24C273.886 410.167 281.63 404.618 281.109 403.049Z" fill="#B6B4CA"/>
<path d="M321.475 408.152C319.195 407.518 317.218 412.156 319.195 412.962C321.763 414.007 323.992 408.852 321.475 408.152Z" fill="#B6B4CA"/>
<path d="M326.235 414.84C325.786 416.074 325.029 416.715 324.149 417.766C322.361 419.904 325.72 420.298 327.341 419.173C329.04 417.992 330.17 415.269 329.92 413.528C329.656 411.69 327.988 410.655 326.716 412.63C326.281 413.307 326.49 414.137 326.235 414.84Z" fill="#B6B4CA"/>
<path d="M333.403 415.914C333.215 418.488 338.155 417.015 336.923 414.17C336.538 413.28 335.914 412.602 334.587 412.937C333.095 413.314 333.472 415.005 333.403 415.914Z" fill="#B6B4CA"/>
<path d="M331.214 431.809C332.815 433.159 339.054 431.237 338.714 429.277C338.25 426.602 328.788 429.766 331.214 431.809Z" fill="#B6B4CA"/>
<path d="M325.567 437.542C322.82 439.951 331.797 440.931 332.745 438.16C333.283 436.587 331.445 436.476 330.148 436.615C329.289 436.708 326.088 437.085 325.567 437.542Z" fill="#B6B4CA"/>
<path d="M273.812 418.897C272.266 417.595 269.739 419.371 271.19 420.704C272.656 422.049 275.346 420.189 273.812 418.897Z" fill="#B6B4CA"/>
<path d="M288.174 256.066C280.334 266.156 280.71 278.454 279.63 289.901C278.514 301.743 279.513 314.508 272.565 325.336C267.648 317.218 259.797 309.312 248.85 306.231C243.785 304.805 240.727 306.719 237.085 309.457C232.56 312.857 228.013 316.432 223.172 319.54C213.508 325.743 202.435 330.837 191.899 336.017C182.011 340.877 171.767 345.191 166.783 354.061C162.116 362.366 162.496 369.839 164.335 378.608C166.032 386.707 163.26 396.597 168.94 403.821C169.373 404.372 169.854 404.995 170.384 405.475C172.08 407.013 171.978 406.022 171.397 407.918C170.824 409.784 168.65 411.842 167.525 413.585C164.564 418.175 161.899 422.881 159.154 427.554C157.276 430.75 155.066 433.876 153.322 437.119C151.3 440.878 153.379 442.84 156.359 445.703C160.819 449.989 163.683 455.16 167.575 459.756C170.936 463.725 174.388 467.818 178.089 471.583C186.749 480.392 196.728 488.087 211.096 490.001C200.56 506.491 208.229 523.674 221.759 537.322C229.352 544.981 237.473 552.205 245.382 559.651C248.201 562.304 251.16 567.164 256.145 566.034C260.983 564.938 265.579 562.28 270.341 560.845C291.333 554.517 315.71 556.398 332.18 542.096C335.857 538.903 338.319 535.099 340.084 531.017C340.881 529.174 341.595 527.273 342.082 525.357C342.524 523.612 342.082 520.737 343.026 519.167C344.534 516.659 351.583 515.927 354.596 515.448C360.49 514.512 366.52 514.122 372.505 513.833C380.593 513.442 398.771 513.458 399.123 504.379C399.27 500.588 396.82 497.272 396.087 493.622C395.05 488.462 399.118 484.424 403.159 480.79C402.407 481.475 404.52 479.706 404.686 479.578C406.553 478.149 408.495 476.82 410.1 475.185C413.349 471.878 415.431 467.619 415.985 463.436C416.986 455.879 411.52 449.007 409.912 441.778C417.726 442.056 425.961 443.281 430.804 437.068C433.107 434.112 433.989 430.628 435.109 427.308C436.408 423.453 437.812 419.627 439.004 415.75C441.294 408.313 445.36 402.369 450.54 395.985C452.86 393.124 455.19 390.22 457.013 387.13C458.285 384.974 461.903 379.585 459.551 377.368C457.921 375.831 452.32 376.406 449.971 375.8C445.695 374.698 442.117 372.592 438.501 370.523C430.441 365.912 422.281 361.036 414.713 355.919C412.786 354.616 410.954 353.221 408.951 351.992C407.621 351.176 405.105 350.407 404.116 349.424C402.884 348.202 403.319 347.59 403.783 346.052C405.83 339.264 409.558 332.992 410.276 325.933C412.074 308.25 399.622 292.088 383.778 280.705C377.648 276.314 369.165 269.975 363.381 263.978C359.504 259.959 356.143 255.64 353.43 251.046C350.938 246.83 348.742 242.495 345.038 238.836C341.552 235.395 337.211 232.923 331.53 232.967C325.992 233.01 319.955 234.439 315.058 236.465C309.882 238.608 305.555 241.96 301.161 244.978C296.419 248.239 291.504 251.782 288.174 256.066ZM177.992 400.279C177.081 401.134 175.718 403.702 174.426 404.053C172.349 404.617 170.385 400.182 169.873 398.755C167.782 392.916 169.073 386.492 168.189 380.493C167.235 374.018 165.123 368.18 167.187 361.656C169.423 354.584 173.476 349.131 180.895 344.82C195.267 336.472 211.583 330.365 225.589 321.545C228.781 319.535 231.619 317.166 234.651 315.002C237.23 313.161 239.944 310.184 243.067 308.989C249.245 306.628 258.788 313.893 262.218 317.412C268.015 323.361 271.89 330.256 276.06 336.972C280.313 343.824 283.628 352.303 290.17 357.999C279.288 358.161 268.664 357.999 258.314 361.12C252.9 362.754 248.032 365.067 243.571 368.012C241.709 369.24 239.773 370.509 238.207 371.987C237.08 373.049 236.009 376.114 234.765 376.806C233.923 377.275 230.425 376.825 229.525 376.878C226.99 377.026 224.468 377.319 222.002 377.819C216.647 378.907 211.504 380.737 206.607 382.761C195.665 387.283 186.031 392.738 177.992 400.279ZM366.665 447.478C365.298 451.661 367.724 456.034 366.809 460.325C365.802 465.05 361.18 466.934 355.878 467.98C343.209 470.482 334.066 476.009 326.882 484.747C326.226 480.28 322.67 476.112 319.863 472.341C316.725 468.123 313.264 464.016 311.078 459.401C310.01 457.145 306.431 451.001 308.795 449.196C309.28 448.825 312.332 447.745 313.039 447.608C314.68 447.291 316.656 447.962 318.604 447.942C322.767 447.899 325.415 445.339 328.807 444.307C334.064 442.707 338.241 440.358 341.328 436.447C343.859 433.239 346.069 429.406 346.092 425.533C346.104 423.317 345.89 420.889 344.774 418.832C343.726 416.899 343.34 415.487 342.548 413.449C346.999 414.206 351.616 414.413 356.15 414.134C359.844 413.907 363.2 413.062 366.823 413.729C368.782 414.09 370.709 414.332 372.729 414.152C374.196 414.021 375.56 413.473 377.025 413.718C380.169 414.242 383.016 417.355 384.32 419.498C387.096 424.056 388.675 431.68 384.192 435.836C381.487 438.344 377.563 438.773 374.17 440.384C370.857 441.955 367.667 444.406 366.665 447.478ZM387.976 436.406C388.561 439.786 387.698 443.483 387.474 446.87C387.194 451.08 386.597 455.222 385.548 459.358C383.875 465.951 380.433 472.024 375.655 477.549C369.784 484.339 361.276 489.193 353.669 494.63C346.074 500.059 339.611 506.192 332.527 512.01C329.478 514.514 325.919 517.459 321.873 518.917C317.089 520.642 316.085 517.994 318.278 514.93C320.377 511.995 322.71 509.331 323.935 506.041C325.269 502.46 325.282 498.863 325.529 495.17C325.928 489.212 331.542 483.588 336.602 479.375C339.737 476.763 343.438 474.472 347.563 472.959C352.004 471.33 356.977 471.154 361.442 469.63C365.262 468.326 368.447 465.67 369.725 462.487C371.378 458.373 369.824 454.619 369.791 450.511C369.722 441.949 383.173 442.269 387.976 436.406ZM303.102 442.189C304.068 443.767 307.717 445.494 309.656 446.085C304.425 448.063 298.393 445.446 295.762 441.612C295.011 440.517 294.371 435.914 291.799 436.818C290.042 437.436 291 439.941 291.454 440.945C287.282 441.8 282.893 440.232 282.027 436.564C281.638 434.922 282.789 433.943 282.889 432.478C283.024 430.537 280.491 429.711 279.475 431.785C278.077 430.9 276.747 429.884 275.831 428.648C274.67 427.083 275.098 425.828 274.437 424.236C273.07 420.945 270.703 423.915 271.11 426.232C267.068 424.294 266.561 419.587 269.185 416.774C270.023 415.874 272.824 414.408 271.014 413.123C269.694 412.184 267.915 413.69 267.082 414.431C266.053 411.259 267.888 408.469 270.484 406.268C272.87 404.244 271.342 402.006 268.252 404.066C268.517 401.491 271.82 394.966 275.807 396.403C276.854 396.781 278.019 398.519 278.842 399.166C279.889 399.988 281.003 400.79 282.261 401.4C283.904 402.199 285.652 402.651 287.572 402.747C296.374 403.187 303.9 396.724 311.994 401.839C316.621 404.763 321.787 406.863 327.144 408.796C329.836 409.766 332.558 410.718 335.326 411.542C336.561 411.91 337.87 412.079 338.699 412.864C342.753 416.705 337.365 420.812 335.797 423.995C335.037 425.539 335.91 426.933 338.172 426.029C339.898 425.338 341.507 422.302 342.129 421.04C343.143 424.064 343.031 427.616 341.004 430.345C339.903 431.826 338.54 432.368 337.034 433.451C336.064 434.147 334.768 436.345 337.424 436.205C334.24 439.897 327.722 443.403 322.073 441.379C320.774 440.914 317.499 438.922 316.942 441.235C316.535 442.923 320.438 443.993 321.913 444.38C318.433 445.918 314.277 444.89 311.005 443.514C309.392 442.834 308.058 441.925 306.571 441.111C305.526 440.535 301.535 439.631 303.102 442.189ZM375.017 406.614C365.012 411.156 353.064 412.821 341.825 410.38C336.406 409.203 331.045 407.385 325.981 405.454C323.072 404.345 320.224 403.12 317.541 401.686C314.822 400.233 312.387 398.013 309.214 397.214C304.503 396.028 299.478 397.719 295.037 398.848C289.052 400.369 285.037 400.385 280.557 396.601C276.307 393.012 273.441 388.448 268.11 385.73C264.439 383.858 260.289 384.741 257.023 382.909C253.343 380.843 248.645 380.983 244.304 380.464C242.608 380.262 239.178 380.194 238.326 378.741C237.249 376.904 240.151 374.407 241.521 373.181C248.836 366.632 259.473 362.729 270.163 361.416C280.22 360.182 291.173 360.442 301.273 360.993C312.951 361.63 325.029 363.093 335.691 367.086C347.81 371.626 359.548 377.883 369.743 384.826C374.663 388.177 379.708 391.859 382.61 396.582C385.576 401.41 379.675 404.5 375.017 406.614ZM209.901 487.031C193.55 483.914 183.964 473.597 174.904 463.08C170.734 458.24 166.868 453.343 162.877 448.401C161.883 447.171 160.932 445.918 159.828 444.748C158.81 443.67 156.629 442.358 156.067 441.082C155.082 438.848 157.777 436.141 158.978 434.208C163.686 426.639 169.076 416.148 175.289 408.09C183.422 397.539 195.386 390.465 208.955 384.888C215.36 382.255 222.151 380.215 229.357 379.62C230.393 379.534 231.531 379.468 232.572 379.48C234.668 379.508 234.361 379.769 235.741 380.709C238.308 382.459 241.076 382.958 244.497 383.32C247.149 383.599 250.4 383.385 252.898 384.13C254.963 384.745 255.933 385.972 258.155 386.379C260.612 386.829 262.86 386.545 265.194 387.56C268.476 388.987 270.679 391.226 272.944 393.534C266.557 395.961 265.17 401.599 264.916 406.607C264.801 408.888 263.169 410.931 263.371 413.282C263.564 415.534 264.904 417.214 264.164 419.542C262.924 423.439 255.006 426.873 250.475 428.299C244.03 430.328 237.014 430.814 230.186 431.366C223.448 431.911 216.307 431.792 209.751 433.232C206.257 433.999 202.748 435.052 199.518 436.368C198.082 436.953 194.735 438.027 193.784 439.185C192.768 440.423 193.315 441.638 195.344 441.498C197.278 441.365 200.279 439.144 202.083 438.496C208.258 436.284 214.287 435.166 221.014 434.756C228.716 434.285 236.443 433.833 244.036 432.63C252.353 431.312 258.412 428.239 264.827 423.919C266.523 427.841 270.917 428.328 273.667 431.156C274.894 432.417 277.268 433.264 278.243 434.575C279.125 435.759 278.648 437.733 279.373 439.077C280.448 441.071 281.052 441.262 280.22 443.454C279.428 445.541 278.345 447.59 277.096 449.525C274.445 453.631 270.517 457.16 265.926 459.945C261.247 462.783 255.945 464.993 251.088 467.637C246.38 470.199 242.344 473.163 238.291 476.352C234.433 479.387 230.529 483.229 225.87 485.481C221.098 487.785 215.223 487.848 209.901 487.031ZM338.85 524.303C336.557 532.444 332.329 539.3 323.837 544.373C315.688 549.242 306.067 551.506 296.245 553.134C286.519 554.745 277.025 555.785 267.682 558.683C263.705 559.916 259.996 562.005 255.986 563.075C254.1 563.579 254.263 563.627 252.787 562.358C250.891 560.727 249.161 558.932 247.349 557.235C234.716 545.393 218.91 533.984 212.409 518.921C209.616 512.45 208.303 505.665 210.36 498.928C211.083 496.558 212.537 491.583 215.273 490.385C216.68 489.769 219.571 490.136 221.26 489.828C223.747 489.376 226.126 488.603 228.284 487.513C237.613 482.794 243.886 474.75 253.157 469.824C262.441 464.89 273.374 460.625 279.006 452.479C273.797 464.376 266.571 475.782 263.396 488.206C259.92 501.814 260.808 515.916 259.204 529.698C258.866 532.595 258.481 535.548 257.767 538.402C257.554 539.248 256.084 541.436 256.338 542.26C256.761 543.629 258.31 543.425 259.373 542.716C261.671 541.187 261.593 537.212 261.899 535.087C262.385 531.697 262.919 528.317 263.272 524.916C264.632 511.84 263.529 498.605 267.699 485.789C270.122 478.345 273.869 471.226 277.313 464.062C278.993 460.564 280.612 457.052 282.204 453.528C283.398 450.884 287.002 446.753 286.806 443.933C288.823 444.251 291.402 443.147 293.112 443.587C293.819 443.77 295.177 445.698 295.855 446.171C297.18 447.097 298.968 448.076 300.562 448.656C303.476 449.718 304.252 449.243 304.839 451.891C305.484 454.807 306.651 457.682 307.974 460.442C310.672 466.072 314.927 471.102 318.724 476.274C321.908 480.61 325.053 485.19 323.267 490.386C321.435 495.719 322.517 501.338 320.074 506.603C318.4 510.209 313.362 513.757 313.455 517.783C313.567 522.62 319.451 522.937 323.666 521.242C330.263 518.59 335.665 513.397 340.521 509.08C340.067 514.094 339.972 519.356 338.85 524.303ZM406.974 445.566C408.067 449.576 410.906 453.102 411.925 457.149C413.023 461.504 412.56 465.62 410.158 469.65C405.165 478.027 390.783 482.881 392.574 493.586C393.204 497.347 397.053 501.876 395.371 505.712C393.523 509.924 383.906 510.13 379.372 510.561C367.964 511.646 353.297 510.559 343.167 515.636C343.321 512.741 343.152 508.365 344.741 505.73C346.457 502.881 351.162 500.217 354.016 498.129C361.349 492.767 369.586 488.019 375.918 481.843C381.533 476.366 385.543 469.844 387.948 463.033C390.59 455.55 390.564 448.095 391.444 440.427C395.039 441.422 398.971 441.584 402.745 441.616C403.475 441.621 405.742 441.325 406.394 441.735C407.043 442.145 406.804 444.946 406.974 445.566ZM456.742 378.892C456.741 378.896 456.587 378.683 456.742 378.892V378.892ZM404.618 352.923C409.415 355.494 413.564 358.789 418.174 361.565C422.816 364.359 427.408 367.194 431.951 370.091C439.077 374.637 447.122 379.461 456.682 379.304C453.492 390.56 442.013 398.618 437.607 409.467C435.183 415.436 433.402 421.657 431.401 427.728C429.819 432.527 428.247 438.254 421.099 439.192C414.304 440.084 405.859 439.084 398.978 438.608C397.56 438.51 392.831 438.644 391.644 437.574C390.669 436.697 390.557 432.857 390.424 431.725C389.806 426.479 389.894 421.552 386.389 416.852C384.898 414.851 382.784 413.001 380.229 411.842C376.775 410.275 374.342 411.471 370.788 411.43C376.218 409.553 383.649 406.74 386.223 402.138C389.02 397.137 383.437 391.896 379.544 388.4C369.956 379.79 356.15 372.457 343.4 367.222C350.883 359.336 359.309 349.883 371.873 347.114C382.431 344.788 395.752 348.175 404.618 352.923ZM301.806 248.228C306.661 244.839 311.3 241.052 317.134 238.737C321.978 236.814 329.734 234.695 335.194 236.093C341.083 237.602 344.722 242.874 347.277 247.011C350.277 251.867 353.036 256.796 356.694 261.369C364.608 271.262 375.969 278.386 386.497 286.344C395.923 293.468 403.575 304.428 406.195 314.653C409.163 326.238 403.399 336.641 399.851 347.641C390.231 344.17 378.764 342.089 368.583 345.062C357.229 348.379 349.384 356.511 342.253 363.889C340.498 365.705 341.012 365.983 338.549 365.366C336.537 364.862 334.62 363.698 332.638 363.047C329.998 362.181 327.287 361.472 324.515 360.938C323.128 360.67 319.075 360.706 318.045 359.888C316.985 359.048 317.955 354.832 318.057 353.762C318.243 351.814 318.573 349.872 319.025 347.954C320.141 343.224 322.256 338.868 325.11 334.652C330.379 326.872 336.249 319.084 337.991 310.176C339.704 301.419 337.995 292.364 334.078 284.154C332.116 280.042 331.457 276.098 331.033 271.746C330.935 270.746 330.947 268.506 328.866 268.833C326.799 269.158 327.463 271.738 327.548 272.826C328.283 282.139 334.323 290.321 335.015 299.652C335.843 310.823 331.088 320.49 324.33 330.05C317.755 339.348 314.201 348.812 314.47 359.581C310.764 359.16 307.061 358.709 303.338 358.406C300.215 358.151 296.554 358.429 293.854 356.905C288.643 353.967 286.476 347.468 283.819 343.102C282.254 340.532 280.572 338.003 278.947 335.456C277.839 333.72 274.825 330.6 274.751 328.584C274.678 326.595 277.199 324.093 278.088 322.216C279.358 319.537 280.182 316.778 280.664 313.942C282.699 301.958 282.875 289.792 284.18 277.752C284.785 272.167 285.745 266.69 288.543 261.504C291.44 256.133 296.371 252.015 301.806 248.228Z" fill="#B6B4CA"/>
</svg>
